<?xml version="1.0" encoding="UTF-8" standalone="no"?>
<svg width="30px" height="88px" viewBox="0 0 30 88" version="1.1" xmlns="http://www.w3.org/2000/svg" xmlns:xlink="http://www.w3.org/1999/xlink">
    <!-- Generator: Sketch 39 (31667) - http://www.bohemiancoding.com/sketch -->
    <title>star</title>
    <desc>Created with Sketch.</desc>
    <defs></defs>
    <g id="Recipe" stroke="none" stroke-width="1" fill="none" fill-rule="evenodd">
        <g id="star">
            <polygon id="Star-1" fill="#D8D8D8" points="15 22.5 6.18322122 27.1352549 7.86707613 17.3176275 0.734152256 10.3647451 10.5916106 8.93237254 15 0 19.4083894 8.93237254 29.2658477 10.3647451 22.1329239 17.3176275 23.8167788 27.1352549"></polygon>
            <polygon id="Star-1" fill="#FF9D6D" points="15 52.5 6.18322122 57.1352549 7.86707613 47.3176275 0.734152256 40.3647451 10.5916106 38.9323725 15 30 19.4083894 38.9323725 29.2658477 40.3647451 22.1329239 47.3176275 23.8167788 57.1352549"></polygon>
            <polygon id="Star-1" fill="#CE7B52" points="15 82.5 6.18322122 87.1352549 7.86707613 77.3176275 0.734152256 70.3647451 10.5916106 68.9323725 15 60 19.4083894 68.9323725 29.2658477 70.3647451 22.1329239 77.3176275 23.8167788 87.1352549"></polygon>
        </g>
    </g>
</svg>