<?xml version="1.0" encoding="UTF-8" standalone="no"?>
<svg width="124px" height="50px" viewBox="0 0 124 50" version="1.1" xmlns="http://www.w3.org/2000/svg" xmlns:xlink="http://www.w3.org/1999/xlink">
    <!-- Generator: Sketch 3.8.3 (29802) - http://www.bohemiancoding.com/sketch -->
    <title>icon-video-play-white</title>
    <desc>Created with Sketch.</desc>
    <defs>
        <rect id="path-1" x="0" y="0" width="124" height="50" rx="25"></rect>
        <mask id="mask-2" maskContentUnits="userSpaceOnUse" maskUnits="objectBoundingBox" x="0" y="0" width="124" height="50" fill="white">
            <use xlink:href="#path-1"></use>
        </mask>
    </defs>
    <g id="Symbols" stroke="none" stroke-width="1" fill="none" fill-rule="evenodd">
        <g id="icon-video-play-white">
            <use id="Path" stroke="#FFFFFF" mask="url(#mask-2)" stroke-width="6" fill-opacity="0.5" fill="#000000" xlink:href="#path-1"></use>
            <path d="M27.742,18.256 L30.028,18.256 L31.468,22.486 L32.908,18.256 L35.212,18.256 L33.034,24.07 L34.654,28.156 L38.272,18.22 L40.972,18.22 L35.77,31 L33.682,31 L31.468,25.636 L29.254,31 L27.166,31 L21.982,18.22 L24.664,18.22 L28.3,28.156 L29.884,24.07 L27.742,18.256 Z M44.122,31.18 C43.6659977,31.18 43.240002,31.1050008 42.844,30.955 C42.447998,30.8049993 42.1060014,30.5950014 41.818,30.325 C41.5299985,30.0549987 41.3050008,29.7400018 41.143,29.38 C40.9809992,29.0199982 40.9,28.6240022 40.9,28.192 C40.9,27.7479978 40.998999,27.3370019 41.197,26.959 C41.395001,26.5809981 41.6709982,26.2600013 42.025,25.996 C42.3790018,25.7319987 42.8019975,25.5250008 43.294,25.375 C43.7860024,25.2249993 44.325997,25.15 44.914,25.15 C45.3340021,25.15 45.744998,25.1859996 46.147,25.258 C46.549002,25.3300004 46.9059984,25.4319993 47.218,25.564 L47.218,25.024 C47.218,24.3999969 47.0410018,23.9200017 46.687,23.584 C46.3329982,23.2479983 45.8080035,23.08 45.112,23.08 C44.6079975,23.08 44.1160024,23.1699991 43.636,23.35 C43.1559976,23.5300009 42.6640025,23.7939983 42.16,24.142 L41.422,22.612 C42.634006,21.807996 43.941993,21.406 45.346,21.406 C46.7020068,21.406 47.7549962,21.7389967 48.505,22.405 C49.2550037,23.0710033 49.63,24.0339937 49.63,25.294 L49.63,28.228 C49.63,28.4800013 49.6779995,28.6599995 49.774,28.768 C49.8700005,28.8760005 50.0379988,28.9359999 50.278,28.948 L50.278,31 C50.0499988,31.0480002 49.837001,31.0809999 49.639,31.099 C49.440999,31.1170001 49.2700007,31.126 49.126,31.126 C48.6699977,31.1139999 48.3220012,31.009001 48.082,30.811 C47.8419988,30.612999 47.6920003,30.3460017 47.632,30.01 L47.578,29.488 C47.1579979,30.0400028 46.648003,30.4599986 46.048,30.748 C45.447997,31.0360014 44.8060034,31.18 44.122,31.18 L44.122,31.18 Z M44.806,29.416 C45.214002,29.416 45.6009982,29.3440007 45.967,29.2 C46.3330018,29.0559993 46.617999,28.8640012 46.822,28.624 C47.0860013,28.419999 47.218,28.1920013 47.218,27.94 L47.218,26.86 C46.9299985,26.7519995 46.6180017,26.6650003 46.282,26.599 C45.9459983,26.5329997 45.6220015,26.5 45.31,26.5 C44.6859969,26.5 44.176002,26.6409986 43.78,26.923 C43.383998,27.2050014 43.186,27.5619978 43.186,27.994 C43.186,28.402002 43.3419984,28.7409987 43.654,29.011 C43.9660015,29.2810014 44.3499977,29.416 44.806,29.416 L44.806,29.416 Z M57.892,30.514 C57.5679984,30.6580007 57.1690023,30.8019993 56.695,30.946 C56.2209976,31.0900007 55.7260026,31.162 55.21,31.162 C54.8739983,31.162 54.5590014,31.1200004 54.265,31.036 C53.9709985,30.9519996 53.7130011,30.8170009 53.491,30.631 C53.2689989,30.4449991 53.0920006,30.2050015 52.96,29.911 C52.8279993,29.6169985 52.762,29.2600021 52.762,28.84 L52.762,23.422 L51.538,23.422 L51.538,21.568 L52.762,21.568 L52.762,18.508 L55.174,18.508 L55.174,21.568 L57.172,21.568 L57.172,23.422 L55.174,23.422 L55.174,28.03 C55.174,28.3660017 55.2639991,28.6029993 55.444,28.741 C55.6240009,28.8790007 55.8399987,28.948 56.092,28.948 C56.3440012,28.948 56.5899988,28.9060004 56.83,28.822 C57.0700012,28.7379996 57.2619993,28.6660003 57.406,28.606 L57.892,30.514 Z M58.972,26.284 C58.972,25.6239967 59.0859988,25.0000029 59.314,24.412 C59.5420011,23.8239971 59.8719978,23.3080022 60.304,22.864 C60.7360021,22.4199978 61.2579969,22.0660013 61.87,21.802 C62.482003,21.5379987 63.1719961,21.406 63.94,21.406 C64.9720051,21.406 65.8509963,21.6279978 66.577,22.072 C67.3030036,22.5160022 67.8459982,23.0979964 68.206,23.818 L65.848,24.538 C65.6439989,24.1899983 65.3740016,23.9230009 65.038,23.737 C64.7019983,23.5509991 64.330002,23.458 63.922,23.458 C63.5739982,23.458 63.2500015,23.5269993 62.95,23.665 C62.6499985,23.8030007 62.3890011,23.9949988 62.167,24.241 C61.9449989,24.4870012 61.7710006,24.7839983 61.645,25.132 C61.5189993,25.4800017 61.456,25.8639979 61.456,26.284 C61.456,26.7040021 61.5219993,27.0879983 61.654,27.436 C61.7860006,27.7840017 61.9629989,28.0839987 62.185,28.336 C62.4070011,28.5880013 62.6679985,28.7829993 62.968,28.921 C63.2680015,29.0590007 63.5859983,29.128 63.922,29.128 C64.3540021,29.128 64.7529981,29.0200011 65.119,28.804 C65.4850018,28.5879989 65.7399992,28.3240016 65.884,28.012 L68.242,28.732 C67.9179983,29.4520036 67.3840037,30.0399977 66.64,30.496 C65.8959962,30.9520023 65.0020052,31.18 63.958,31.18 C63.1899961,31.18 62.500003,31.0480013 61.888,30.784 C61.2759969,30.5199987 60.7540021,30.1630023 60.322,29.713 C59.8899978,29.2629978 59.5570011,28.741003 59.323,28.147 C59.0889988,27.552997 58.972,26.9320032 58.972,26.284 L58.972,26.284 Z M78.916,31 L76.504,31 L76.504,25.708 C76.504,24.9639963 76.3660013,24.4150018 76.09,24.061 C75.8139986,23.7069982 75.4240025,23.53 74.92,23.53 C74.7039989,23.53 74.4760012,23.5779995 74.236,23.674 C73.9959988,23.7700005 73.768001,23.9049991 73.552,24.079 C73.3359989,24.2530009 73.1380009,24.4599988 72.958,24.7 C72.7779991,24.9400012 72.6460004,25.2039986 72.562,25.492 L72.562,31 L70.15,31 L70.15,17.86 L72.562,17.86 L72.562,23.314 C72.9100017,22.7019969 73.380997,22.2310017 73.975,21.901 C74.5690029,21.5709984 75.2259964,21.406 75.946,21.406 C76.558003,21.406 77.055998,21.510999 77.44,21.721 C77.8240019,21.9310011 78.1239989,22.2099983 78.34,22.558 C78.556001,22.9060017 78.7059995,23.3019978 78.79,23.746 C78.8740004,24.1900022 78.916,24.6459977 78.916,25.114 L78.916,31 Z" id="Watch-Video" fill="#FFFFFF"></path>
            <polygon id="feed-icon-video-play-" fill="#FFFFFF" points="92 34 92 18 106.769231 26"></polygon>
        </g>
    </g>
</svg>