<?xml version="1.0" encoding="UTF-8" standalone="no"?>
<svg width="18px" height="10px" viewBox="0 0 18 10" version="1.1" xmlns="http://www.w3.org/2000/svg" xmlns:xlink="http://www.w3.org/1999/xlink">
    <!-- Generator: Sketch 3.8.3 (29802) - http://www.bohemiancoding.com/sketch -->
    <title>btn-refine-arrow-off</title>
    <desc>Created with Sketch.</desc>
    <defs></defs>
    <g id="Search" stroke="none" stroke-width="1" fill="none" fill-rule="evenodd">
        <g id="Desktop---Search-Results-Recipes" transform="translate(-186.000000, -361.000000)" fill="#FF6169">
            <g id="Button" transform="translate(90.000000, 344.000000)">
                <path d="M107.112838,13.4906712 C106.498141,14.1231527 100.491758,20.777554 100.491758,20.777554 C100.164409,21.1148982 100,21.5571388 100,22 C100,22.4428612 100.164409,22.8851018 100.491758,23.222446 C100.491758,23.222446 106.498141,29.8768473 107.112838,30.5093288 C107.726947,31.1418104 108.832813,31.1849483 109.488686,30.5093288 C110.144264,29.8346404 110.196323,28.8924353 109.488098,28.0644369 L103.978178,22 L109.488098,15.9358735 C110.196323,15.1075647 110.144264,14.1656699 109.488686,13.4906712 C108.832813,12.8150517 107.726947,12.8581896 107.112838,13.4906712" id="btn-refine-arrow-off" transform="translate(105.000000, 22.000000) rotate(-90.000000) translate(-105.000000, -22.000000) "></path>
            </g>
        </g>
    </g>
</svg>