<?xml version="1.0" encoding="UTF-8" standalone="no"?>
<svg width="65px" height="80px" viewBox="0 0 65 80" version="1.1" xmlns="http://www.w3.org/2000/svg" xmlns:xlink="http://www.w3.org/1999/xlink">
    <!-- Generator: Sketch 3.8.3 (29802) - http://www.bohemiancoding.com/sketch -->
    <title>cupcake-icon</title>
    <desc>Created with Sketch.</desc>
    <defs></defs>
    <g id="Home-Page" stroke="none" stroke-width="1" fill="none" fill-rule="evenodd">
        <g id="Desktop---Home" transform="translate(-691.000000, -2145.000000)">
            <g id="Join-Community" transform="translate(0.000000, 2060.000000)">
                <g id="cupcake-icon" transform="translate(691.000000, 85.000000)">
                    <path d="M64.7326087,43.0504348 C64.4586957,37.5297826 59.9963043,34.9743478 56.9369565,34.1673913 C56.5284783,24.6567391 50.6628261,16.2582609 41.9306522,12.5830435 C43.7186957,9.71195652 43.7219565,7.295 43.525,6.00413043 C43.0719565,3.03413043 40.9104348,0.668913043 38.1467391,0.118695652 C36.0154348,-0.305217391 33.9573913,0.419782609 32.3871739,2.07804348 C30.8165217,0.419782609 28.7582609,-0.305 26.6267391,0.118695652 C23.8630435,0.669130435 21.7019565,3.03434783 21.2486957,6.00413043 C21.0517391,7.29521739 21.0552174,9.71326087 22.8447826,12.585 C14.1115217,16.26 8.245,24.6565217 7.83608696,34.1673913 C4.77695652,34.9743478 0.314347826,37.5297826 0.0408695652,43.0502174 C0.0395652174,43.0697826 0.0765217391,43.4497826 0.0786956522,43.4582609 L9.195,79.0102174 C9.34282609,79.5871739 9.86282609,79.9906522 10.4584783,79.9906522 L54.3152174,79.9906522 C54.9108696,79.9906522 55.4306522,79.5873913 55.578913,79.0102174 L64.695,43.4582609 C64.6965217,43.4506522 64.7336957,43.0691304 64.7326087,43.0504348 L64.7326087,43.0504348 Z M23.8271739,6.39782609 C24.1154348,4.50913043 25.4452174,3.01413043 27.136087,2.6773913 C28.7184783,2.36217391 30.225,3.17108696 31.2695652,4.89586957 L31.2726087,4.89413043 C31.3780435,5.06956522 31.5258696,5.2226087 31.7128261,5.33586957 C32.3293478,5.70869565 33.131087,5.51195652 33.5041304,4.89565217 C34.5486957,3.17086957 36.056087,2.36195652 37.6371739,2.6773913 C39.3282609,3.01413043 40.6580435,4.50913043 40.9463043,6.39782609 C41.5021739,10.0393478 38.3128261,14.1867391 32.3869565,17.5754348 C26.461087,14.1867391 23.2717391,10.0393478 23.8271739,6.39782609 L23.8271739,6.39782609 Z M3.11652174,44.8032609 C4.05347826,45.2326087 4.74478261,46.0004348 5.54413043,46.8926087 C6.71195652,48.1963043 8.13282609,49.7795652 10.6215217,50.1384783 L15.7784783,77.3819565 L11.4702174,77.3819565 L3.11652174,44.8032609 L3.11652174,44.8032609 Z M20.8719565,44.585 L23.486087,77.3819565 L18.433913,77.3819565 L13.2593478,50.0465217 C15.441087,49.5613043 16.7476087,48.106087 17.8347826,46.8926087 C18.7973913,45.8180435 19.6036957,44.9230435 20.8719565,44.585 L20.8719565,44.585 Z M26.1028261,77.3819565 L23.4958696,44.6756522 C24.5991304,45.0663043 25.3530435,45.9030435 26.2393478,46.8926087 C27.3693478,48.1543478 28.7386957,49.6747826 31.0806522,50.0971739 L31.0821739,77.3819565 L26.1028261,77.3819565 L26.1028261,77.3819565 Z M33.6893478,50.0971739 C36.0308696,49.6747826 37.4002174,48.1541304 38.5304348,46.8926087 C39.4178261,45.9019565 40.1723913,45.0645652 41.2773913,44.6745652 L38.67,77.3819565 L33.691087,77.3819565 L33.6893478,50.0971739 L33.6893478,50.0971739 Z M41.2869565,77.3819565 L43.9013043,44.5858696 C45.1676087,44.9243478 45.9734783,45.818913 46.9356522,46.8926087 C48.0230435,48.1065217 49.3304348,49.5619565 51.5136957,50.0469565 L46.3393478,77.3819565 L41.2869565,77.3819565 L41.2869565,77.3819565 Z M53.3026087,77.3819565 L48.9943478,77.3819565 L54.1515217,50.1382609 C56.6393478,49.7791304 58.0606522,48.1963043 59.2282609,46.8926087 C60.0278261,46.0002174 60.7195652,45.2319565 61.6569565,44.8030435 L53.3026087,77.3819565 L53.3026087,77.3819565 Z M57.2852174,45.1519565 C56.0569565,46.5230435 55.0867391,47.6058696 53.0819565,47.6058696 C51.0771739,47.6058696 50.1069565,46.5228261 48.8786957,45.1519565 C47.5528261,43.6717391 45.9026087,41.83 42.7328261,41.83 C39.5630435,41.83 37.9130435,43.6719565 36.5873913,45.1519565 C35.3591304,46.5230435 34.3893478,47.6058696 32.3847826,47.6058696 C30.3806522,47.6058696 29.4106522,46.5228261 28.1826087,45.1519565 C26.8567391,43.6717391 25.2067391,41.83 22.0371739,41.83 C18.8676087,41.83 17.2176087,43.6719565 15.8915217,45.1519565 C14.6636957,46.5230435 13.6934783,47.6058696 11.6893478,47.6058696 C9.68521739,47.6058696 8.71521739,46.5228261 7.48717391,45.1519565 C6.38369565,43.9197826 5.05195652,42.4406522 2.80891304,41.9782609 C3.82521739,37.4113043 9.06782609,36.5584783 9.30521739,36.5223913 C9.94652174,36.4291304 10.4221739,35.8795652 10.4221739,35.2315217 C10.4221739,26.1173913 16.0336957,17.9891304 24.4756522,14.7341304 C26.0693478,16.5063043 28.3932609,18.3767391 31.7608696,20.2136957 C31.9591304,20.3217391 32.1732609,20.3730435 32.3841304,20.3730435 L32.3871739,20.3621739 L32.3897826,20.3730435 C32.6008696,20.3730435 32.815,20.3217391 33.0134783,20.2136957 C36.3806522,18.3767391 38.7047826,16.5063043 40.2982609,14.7341304 C48.74,17.9891304 54.3515217,26.1173913 54.3515217,35.2315217 C54.3515217,35.8793478 54.8271739,36.4291304 55.4682609,36.5223913 C55.4843478,36.5247826 57.1228261,36.7832609 58.7595652,37.7491304 C60.5023913,38.7773913 61.5769565,40.1967391 61.968913,41.9773913 C59.7228261,42.438913 58.3895652,43.9191304 57.2852174,45.1519565 L57.2852174,45.1519565 Z" id="Shape" fill="#FFFFFF"></path>
                    <path d="M15.5976087,40.3671739 C15.2541304,40.3671739 14.9191304,40.2280435 14.6758696,39.9845652 C14.4321739,39.7434783 14.2932609,39.4063043 14.2932609,39.0628261 C14.2932609,38.7195652 14.4321739,38.3847826 14.6758696,38.1413043 C14.9191304,37.8978261 15.2541304,37.7584783 15.5976087,37.7584783 C15.9408696,37.7584783 16.2778261,37.8978261 16.5215217,38.1413043 C16.7626087,38.3823913 16.9019565,38.7195652 16.9019565,39.0628261 C16.9019565,39.4063043 16.7626087,39.7434783 16.5215217,39.9845652 C16.2778261,40.2280435 15.9408696,40.3671739 15.5976087,40.3671739 Z M15.5976087,30.2041304 C15.2541304,30.2041304 14.9191304,30.065 14.6758696,29.8215217 C14.4321739,29.5804348 14.2932609,29.2432609 14.2932609,28.8997826 C14.2932609,28.5565217 14.4321739,28.2193478 14.6758696,27.9782609 C14.9191304,27.7347826 15.2541304,27.5954348 15.5976087,27.5954348 C15.9408696,27.5954348 16.2778261,27.7347826 16.5215217,27.9782609 C16.7626087,28.2193478 16.9019565,28.5565217 16.9019565,28.8997826 C16.9019565,29.2432609 16.7626087,29.5780435 16.5215217,29.8215217 C16.2778261,30.065 15.9408696,30.2041304 15.5976087,30.2041304 Z M23.9930435,35.2845652 C23.6495652,35.2845652 23.3126087,35.1454348 23.0691304,34.9041304 C22.8280435,34.6606522 22.6886957,34.3236957 22.6886957,33.9802174 C22.6886957,33.6367391 22.8280435,33.3019565 23.0691304,33.0586957 C23.3126087,32.8152174 23.6495652,32.6758696 23.9930435,32.6758696 C24.3343478,32.6758696 24.6713043,32.8152174 24.9147826,33.0586957 C25.1558696,33.3019565 25.2973913,33.6367391 25.2973913,33.9802174 C25.2973913,34.3236957 25.156087,34.6606522 24.9147826,34.9041304 C24.6713043,35.1454348 24.3345652,35.2845652 23.9930435,35.2845652 Z M23.991087,25.123913 C23.6476087,25.123913 23.3128261,24.9845652 23.0693478,24.741087 C22.8282609,24.4976087 22.6867391,24.1606522 22.6867391,23.8195652 C22.6867391,23.476087 22.8280435,23.138913 23.0693478,22.8956522 C23.3128261,22.6543478 23.6476087,22.5152174 23.991087,22.5152174 C24.3367391,22.5152174 24.6715217,22.6543478 24.915,22.8956522 C25.156087,23.138913 25.2976087,23.476087 25.2976087,23.8195652 C25.2976087,24.1606522 25.1563043,24.4976087 24.915,24.741087 C24.6713043,24.9845652 24.3345652,25.123913 23.991087,25.123913 Z M49.1756522,40.3671739 C48.8321739,40.3671739 48.4952174,40.2280435 48.2517391,39.9845652 C48.0106522,39.7434783 47.8713043,39.4063043 47.8713043,39.0628261 C47.8713043,38.7195652 48.0106522,38.3847826 48.2517391,38.1413043 C48.4952174,37.8978261 48.8321739,37.7584783 49.1756522,37.7584783 C49.5191304,37.7584783 49.853913,37.8978261 50.0973913,38.1413043 C50.3408696,38.3847826 50.48,38.7195652 50.48,39.0628261 C50.48,39.4063043 50.3408696,39.7434783 50.0973913,39.9845652 C49.853913,40.2280435 49.5191304,40.3671739 49.1756522,40.3671739 Z M49.1756522,30.2041304 C48.8321739,30.2041304 48.4952174,30.065 48.2517391,29.8215217 C48.0106522,29.5804348 47.8713043,29.2432609 47.8713043,28.8997826 C47.8713043,28.5565217 48.0106522,28.2193478 48.2517391,27.9782609 C48.4952174,27.7347826 48.8321739,27.5954348 49.1756522,27.5954348 C49.5191304,27.5954348 49.853913,27.7347826 50.0973913,27.9782609 C50.3408696,28.2193478 50.48,28.5565217 50.48,28.8997826 C50.48,29.2432609 50.3408696,29.5804348 50.0973913,29.8215217 C49.853913,30.065 49.5169565,30.2041304 49.1756522,30.2041304 Z M32.3867391,40.3671739 C32.0432609,40.3671739 31.7063043,40.2280435 31.465,39.9845652 C31.2215217,39.7434783 31.0823913,39.4063043 31.0823913,39.0628261 C31.0823913,38.7195652 31.2215217,38.3847826 31.465,38.1413043 C31.7063043,37.8978261 32.0432609,37.7584783 32.3867391,37.7584783 C32.73,37.7584783 33.065,37.8978261 33.3082609,38.1413043 C33.5519565,38.3847826 33.691087,38.7195652 33.691087,39.0628261 C33.691087,39.4063043 33.5519565,39.7434783 33.3082609,39.9845652 C33.0671739,40.2280435 32.73,40.3671739 32.3867391,40.3671739 Z M32.3867391,30.2041304 C32.0432609,30.2041304 31.7063043,30.065 31.465,29.8215217 C31.2215217,29.5780435 31.0823913,29.2432609 31.0823913,28.8997826 C31.0823913,28.5565217 31.2215217,28.2193478 31.465,27.9782609 C31.7063043,27.7347826 32.0432609,27.5954348 32.3867391,27.5954348 C32.73,27.5954348 33.065,27.7347826 33.3082609,27.9782609 C33.5519565,28.2217391 33.691087,28.5565217 33.691087,28.8997826 C33.691087,29.2432609 33.5519565,29.5780435 33.3082609,29.8215217 C33.065,30.065 32.73,30.2041304 32.3867391,30.2041304 Z M40.7802174,35.2845652 C40.4367391,35.2845652 40.1017391,35.1454348 39.8584783,34.9041304 C39.615,34.6606522 39.4758696,34.3236957 39.4758696,33.9802174 C39.4758696,33.6367391 39.615,33.3019565 39.8584783,33.0586957 C40.1017391,32.8152174 40.4367391,32.6758696 40.7802174,32.6758696 C41.1236957,32.6758696 41.4604348,32.8152174 41.7017391,33.0586957 C41.9452174,33.3019565 42.0845652,33.6367391 42.0845652,33.9802174 C42.0845652,34.3236957 41.9452174,34.6606522 41.7017391,34.9041304 C41.4604348,35.1454348 41.1236957,35.2845652 40.7802174,35.2845652 Z M40.7802174,25.123913 C40.4367391,25.123913 40.0995652,24.9845652 39.8584783,24.741087 C39.615,24.4976087 39.4758696,24.1606522 39.4758696,23.8195652 C39.4758696,23.476087 39.615,23.138913 39.8584783,22.8956522 C40.0995652,22.6543478 40.4367391,22.5152174 40.7802174,22.5152174 C41.1236957,22.5152174 41.4604348,22.6543478 41.7017391,22.8956522 C41.9452174,23.138913 42.0845652,23.476087 42.0845652,23.8195652 C42.0845652,24.1606522 41.9452174,24.4976087 41.7017391,24.741087 C41.4604348,24.9845652 41.1236957,25.123913 40.7802174,25.123913 Z" id="Combined-Shape" fill="#FFFFFF"></path>
                    <path d="M23.8271739,6.39782609 C24.1154348,4.50913043 25.4452174,3.01413043 27.136087,2.6773913 C28.7184783,2.36217391 30.225,3.17108696 31.2695652,4.89586957 L31.2726087,4.89413043 C31.3780435,5.06956522 31.5258696,5.2226087 31.7128261,5.33586957 C32.3293478,5.70869565 33.131087,5.51195652 33.5041304,4.89565217 C34.5486957,3.17086957 36.056087,2.36195652 37.6371739,2.6773913 C39.3282609,3.01413043 40.6580435,4.50913043 40.9463043,6.39782609 C41.5021739,10.0393478 38.3128261,14.1867391 32.3869565,17.5754348 C26.461087,14.1867391 23.2717391,10.0393478 23.8271739,6.39782609 L23.8271739,6.39782609 Z" id="Path" fill="#FF6169"></path>
                </g>
            </g>
        </g>
    </g>
</svg>