<svg id="main_logo" data-name="main logo" xmlns="http://www.w3.org/2000/svg" xmlns:xlink="http://www.w3.org/1999/xlink" viewBox="0 0 304.67 232.93">
  <defs>
    <style>
      .cls-1 {
        fill: #002d54;
      }

      .cls-1, .cls-10, .cls-14, .cls-15, .cls-16, .cls-17, .cls-6, .cls-7, .cls-8, .cls-9 {
        stroke: #e4ac3b;
      }

      .cls-1, .cls-14, .cls-15 {
        stroke-width: 1.66px;
      }

      .cls-2 {
        fill: #0062a3;
      }

      .cls-3 {
        fill: url(#GRAD_485_k_485_485_k);
      }

      .cls-4 {
        fill: url(#GRAD_485_k_485_485_k-2);
      }

      .cls-5 {
        fill: url(#GRAD_286_k_286_286_k);
      }

      .cls-6, .cls-9 {
        stroke-width: 1.15px;
      }

      .cls-6 {
        fill: url(#GRAD_485_k_485_485_k-3);
      }

      .cls-10, .cls-7, .cls-8 {
        stroke-width: 3.27px;
      }

      .cls-7 {
        fill: url(#GRAD_485_k_485_485_k-4);
      }

      .cls-8 {
        fill: url(#GRAD_485_k_485_485_k-5);
      }

      .cls-9 {
        fill: url(#GRAD_485_k_485_485_k-6);
      }

      .cls-10, .cls-15, .cls-17 {
        fill: none;
      }

      .cls-11 {
        fill: #282525;
        stroke: #282525;
        stroke-linecap: round;
        stroke-linejoin: round;
        stroke-width: 0.91px;
      }

      .cls-12 {
        fill: #fff;
      }

      .cls-13 {
        fill: url(#GRAD_30_131_white_30_131);
      }

      .cls-14 {
        fill: url(#GRAD_485_k_485_485_k-7);
      }

      .cls-16, .cls-17 {
        stroke-width: 1.68px;
      }

      .cls-16 {
        fill: url(#GRAD_485_k_485_485_k-8);
      }
    </style>
    <linearGradient id="GRAD_485_k_485_485_k" data-name="GRAD 485+k/485/485+k" x1="-262.18" y1="248.4" x2="-40.28" y2="248.4" gradientTransform="matrix(1.53, 0.26, 0, 1.23, 384.12, -197.04)" gradientUnits="userSpaceOnUse">
      <stop offset="0" stop-color="#c62131"/>
      <stop offset="0.1" stop-color="#cf2233"/>
      <stop offset="0.34" stop-color="#df2537"/>
      <stop offset="0.52" stop-color="#e52638"/>
      <stop offset="0.79" stop-color="#d52334"/>
      <stop offset="1" stop-color="#c62131"/>
    </linearGradient>
    <linearGradient id="GRAD_485_k_485_485_k-2" x1="-262.18" y1="320.49" x2="-40.28" y2="320.49" xlink:href="#GRAD_485_k_485_485_k"/>
    <linearGradient id="GRAD_286_k_286_286_k" data-name="GRAD 286+k/286/286+k" x1="-262.18" y1="251.18" x2="-40.28" y2="251.18" gradientTransform="matrix(1.53, 0.26, 0, 1.23, 384.12, -197.04)" gradientUnits="userSpaceOnUse">
      <stop offset="0" stop-color="#002d54"/>
      <stop offset="0.02" stop-color="#003560"/>
      <stop offset="0.08" stop-color="#004578"/>
      <stop offset="0.15" stop-color="#00528b"/>
      <stop offset="0.22" stop-color="#005b99"/>
      <stop offset="0.32" stop-color="#0060a1"/>
      <stop offset="0.5" stop-color="#0062a3"/>
      <stop offset="0.66" stop-color="#0060a0"/>
      <stop offset="0.76" stop-color="#005b98"/>
      <stop offset="0.85" stop-color="#00518a"/>
      <stop offset="0.92" stop-color="#004375"/>
      <stop offset="0.98" stop-color="#00325b"/>
      <stop offset="1" stop-color="#002d54"/>
    </linearGradient>
    <linearGradient id="GRAD_485_k_485_485_k-3" x1="-262.18" y1="251.16" x2="-40.28" y2="251.16" xlink:href="#GRAD_485_k_485_485_k"/>
    <linearGradient id="GRAD_485_k_485_485_k-4" x1="-262.18" y1="245.64" x2="-40.28" y2="245.64" xlink:href="#GRAD_485_k_485_485_k"/>
    <linearGradient id="GRAD_485_k_485_485_k-5" x1="-262.18" y1="323.27" x2="-40.28" y2="323.27" xlink:href="#GRAD_485_k_485_485_k"/>
    <linearGradient id="GRAD_485_k_485_485_k-6" x1="-262.18" y1="318.12" x2="-40.28" y2="318.12" xlink:href="#GRAD_485_k_485_485_k"/>
    <linearGradient id="GRAD_30_131_white_30_131" data-name="GRAD 30%131/white/30%131" x1="257.62" y1="278.33" x2="269.4" y2="278.33" gradientTransform="matrix(1.11, 0.08, 0, 1.33, -28.36, -118.58)" gradientUnits="userSpaceOnUse">
      <stop offset="0" stop-color="#f6dfb7"/>
      <stop offset="0.07" stop-color="#f9ead0"/>
      <stop offset="0.15" stop-color="#fcf3e5"/>
      <stop offset="0.24" stop-color="#fefaf4"/>
      <stop offset="0.34" stop-color="#fffefc"/>
      <stop offset="0.5" stop-color="#fff"/>
      <stop offset="0.7" stop-color="#fffefd"/>
      <stop offset="0.79" stop-color="#fefbf5"/>
      <stop offset="0.87" stop-color="#fcf5e8"/>
      <stop offset="0.93" stop-color="#faedd6"/>
      <stop offset="0.99" stop-color="#f7e2be"/>
      <stop offset="1" stop-color="#f6dfb7"/>
    </linearGradient>
    <linearGradient id="GRAD_485_k_485_485_k-7" x1="208.61" y1="-148.17" x2="417.4" y2="-148.17" gradientTransform="translate(-2.17 347.83)" xlink:href="#GRAD_485_k_485_485_k"/>
    <linearGradient id="GRAD_485_k_485_485_k-8" x1="721.82" y1="364.23" x2="903.99" y2="364.23" gradientTransform="matrix(1.15, -0.01, 0, 1.06, -619.01, -16.51)" xlink:href="#GRAD_485_k_485_485_k"/>
  </defs>
  <title>DixieCrystals_Color</title>
  <g>
    <g>
      <path class="cls-1" d="M402.3,332.41c8.84-1.89,14.14-8.29,14.28-10.6,0-11.32-7.28-15.28-30.28-30.17L219.1,205l17.12,16.92-3.6,1.76c-4.9.79-5.88-.44-10.79,0.59-8.84,1.89-14.34,8.41-14.48,10.72,0,11.32,7.28,15.27,30.28,30.17l167.2,86.65-17.05-16.71h0C392.68,334.3,397.4,333.44,402.3,332.41Z" transform="translate(-161.56 -162.28)"/>
      <g>
        <polygon class="cls-2" points="303.04 19.47 303.04 11.36 1.64 107.27 1.64 115.37 303.04 19.47"/>
        <polygon class="cls-2" points="1.64 211.21 1.64 219.32 303.04 123.42 303.04 115.31 1.64 211.21"/>
        <polygon class="cls-3" points="303.04 19.47 1.64 115.37 1.64 122.18 303.04 26.28 303.04 19.47"/>
        <polygon class="cls-4" points="1.64 204.33 1.64 205.36 1.64 211.21 303.04 115.31 303.04 109.46 303.04 108.44 1.64 204.33"/>
        <polygon class="cls-2" points="1.64 122.25 1.64 128.79 1.64 198.31 1.64 204.33 303.04 108.44 303.04 102.41 303.04 32.89 303.04 26.35 1.64 122.25"/>
        <polygon class="cls-5" points="303.04 26.28 1.64 122.18 1.64 122.25 303.04 26.35 303.04 26.28"/>
        <line class="cls-6" x1="1.64" y1="122.18" x2="303.04" y2="26.28"/>
        <line class="cls-7" x1="303.04" y1="19.47" x2="1.64" y2="115.37"/>
        <line class="cls-8" x1="1.64" y1="211.21" x2="303.04" y2="115.31"/>
        <polyline class="cls-9" points="303.04 108.44 1.64 204.33 1.64 205.36"/>
      </g>
      <polygon class="cls-10" points="1.64 107.27 1.64 115.37 1.64 122.18 1.64 122.25 1.64 128.79 1.64 198.31 1.64 204.33 1.64 205.36 1.64 211.21 1.64 219.32 303.04 123.42 303.04 115.31 303.04 109.46 303.04 108.44 303.04 102.41 303.04 32.89 303.04 26.35 303.04 26.28 303.04 19.47 303.04 11.36 1.64 107.27"/>
      <g>
        <g>
          <g>
            <path class="cls-11" d="M197,285.73a43.22,43.22,0,0,1,1.84,3.95c1.89,5.06,2.86,12.17,2.85,20.09,0,13.49-2.8,27.13-7,34a13.37,13.37,0,0,1-8,6.13L181,351.71a2.37,2.37,0,0,1-2,0l1.09,1.61a1.8,1.8,0,0,0,1,.8l0.69-.22,0.63-.1,4.78-1.51c4.9-1.54,8.19-4.95,10.55-11.15,3.35-8.68,5.26-20.29,5.28-32C203.06,297.82,201,289.84,197,285.73Z" transform="translate(-161.56 -162.28)"/>
            <path class="cls-11" d="M190.73,297.19c-0.63-2-1.44-2.64-2.82-2.2-1.73.55-2.48,2-2.48,4.59l0,34.79c0,1.54.17,1.9,0.92,1.67l0.47-.14,0-35.31c0-2.26.35-3.1,1.73-3.53A3.74,3.74,0,0,1,190.73,297.19Z" transform="translate(-161.56 -162.28)"/>
            <path class="cls-11" d="M209.63,338.67l3-.94a1.52,1.52,0,0,0,1.22-1.69,2.23,2.23,0,0,0-.34-1.11l-0.2-.37A2.65,2.65,0,0,1,213,333v-1.13l0.06-42.6a4.55,4.55,0,0,1,.19-1.54l0.39-1a3.32,3.32,0,0,0,.25-1.12,1.23,1.23,0,0,0-.05-0.42l0.34,0.33,0.49,0.63a1.45,1.45,0,0,1,.39.92,5.8,5.8,0,0,1-.39,1.43,7.21,7.21,0,0,0-.39,1.08,11.68,11.68,0,0,0-.1,2.3l0,37.8c0,2.27,0,2.44,0,3a8.1,8.1,0,0,0,.09,1.19c0,0.25.1,0.58,0.14,0.83s0.2,0.55.39,1.35a5.06,5.06,0,0,1,.29,1.48,1.89,1.89,0,0,1-1.32,2l-3.46,1.09c-1.26.4-1.6,0.16-2.58-1.79C208.26,339.1,208.46,339,209.63,338.67Z" transform="translate(-161.56 -162.28)"/>
            <path class="cls-11" d="M240,278.77a4,4,0,0,1-.54,1.82L238.7,282a12.25,12.25,0,0,0-.73,2.32c-0.25,1.12-.68,2.92-1.42,5.5l-1.71,6.12a17.3,17.3,0,0,0-.79,3.82,18.45,18.45,0,0,0,1.12,4.61c0.73,2.47,1.5,5.27,2.33,8.5L240.1,323l0.83,3.13,0.44,1.61a5,5,0,0,1,.19,1.42,2.14,2.14,0,0,1-1.61,2.08l-4.83,1.52-0.53.17a1,1,0,0,1-1.17-.59l-0.83-1.31a2.55,2.55,0,0,0,1.22,0l0.39-.13,4.19-1.32,0.54-.17a1.81,1.81,0,0,0,1.32-1.81,1.66,1.66,0,0,0-.29-1l-0.44-.82a7,7,0,0,1-.53-1.75c-0.68-3.1-1.45-6.34-2.38-9.61l-2.42-9c-0.39-1.45-.73-2.47-0.92-3.28a9,9,0,0,1-.48-2.2,11.08,11.08,0,0,1,.53-2.61c0.68-2.3,1.38-4.87,2.11-7.8,0.93-3.52,1.57-6,2-7.5a8.72,8.72,0,0,1,1.17-2.9,3.46,3.46,0,0,0,.54-1.91,2.5,2.5,0,0,0,0-.51A2.66,2.66,0,0,1,240,278.77Z" transform="translate(-161.56 -162.28)"/>
            <path class="cls-11" d="M227.93,282.48l0.34,2,0.73,2.64,0.15,0.48-0.24,1.12a0.81,0.81,0,0,1-.34.54c-0.2.06-.54-0.61-0.83-1.74a23.38,23.38,0,0,0-.68-2.4,5.76,5.76,0,0,1-.44-2.21l0.2-1c0-.26,0-0.45,0-0.71a6.28,6.28,0,0,0-.1-0.67A3.86,3.86,0,0,1,227.93,282.48Z" transform="translate(-161.56 -162.28)"/>
            <path class="cls-11" d="M228.13,316.2c-0.15.74-.49,2.33-1,4.75-1.32,6.86-1.47,7.69-1.47,9a10.63,10.63,0,0,0,.24,2,7.3,7.3,0,0,1,.39,2.05,1.89,1.89,0,0,1-1.56,2.06l-3.27,1c-0.83.26-1,.21-1.61-0.54a2.9,2.9,0,0,1-.73-1.07l0.29-.09a1,1,0,0,0,.44-0.05l0.39,0,0.44-.14,3-1,0.44-.14a1.33,1.33,0,0,0,.93-1.43,7.3,7.3,0,0,0-.29-1.47,5.46,5.46,0,0,1-.24-1.49,68.78,68.78,0,0,1,1.57-9.29c0.78-3.38,1.17-5.24,1.23-5.52a1.68,1.68,0,0,1,.49-1.2c0.14,0,.19.11,0.39,0.84a1.7,1.7,0,0,0,.1.49C228.23,315.56,228.18,315.93,228.13,316.2Z" transform="translate(-161.56 -162.28)"/>
            <path class="cls-11" d="M247.6,326.69l3-.94a1.51,1.51,0,0,0,1.22-1.69,2.23,2.23,0,0,0-.34-1.11l-0.2-.37A2.65,2.65,0,0,1,251,321v-1.13L251,277.28a4.81,4.81,0,0,1,.2-1.54l0.39-1a3.28,3.28,0,0,0,.25-1.12,1.18,1.18,0,0,0-.05-0.42l0.34,0.33,0.49,0.63a1.42,1.42,0,0,1,.39.92,5.8,5.8,0,0,1-.39,1.43,7.39,7.39,0,0,0-.39,1.08,11.25,11.25,0,0,0-.1,2.29l-0.05,37.81c0,2.26,0,2.44,0,3a8.61,8.61,0,0,0,.09,1.19c0.05,0.24.1,0.58,0.15,0.82s0.19,0.55.38,1.36a4.81,4.81,0,0,1,.29,1.48,1.88,1.88,0,0,1-1.31,2l-3.46,1.09c-1.27.4-1.61,0.16-2.58-1.8C246.24,327.12,246.44,327.06,247.6,326.69Z" transform="translate(-161.56 -162.28)"/>
            <path class="cls-11" d="M274.18,309.77a3.14,3.14,0,0,1,.78,2.1,5,5,0,0,1-.15,1.18l-0.88,4.72c-0.49,2.68-.74,3-2.05,3.43l-11.36,3.59a3.61,3.61,0,0,1-1.17.28,3.43,3.43,0,0,1-1.75-2.14c0.54,0.44.73,0.38,1.61,0.1l0.88-.27,11.26-3.56c1-.31,1.36-0.87,1.71-2.63l0.88-4.72a12.57,12.57,0,0,0,.1-1.43,5.6,5.6,0,0,0-.05-0.85Z" transform="translate(-161.56 -162.28)"/>
            <path class="cls-11" d="M269.4,282.72a3.76,3.76,0,0,1,.92,2.49v6c0,2.53-.3,3.58-1.07,3.82a0.81,0.81,0,0,1-.68-0.22l-0.88-.86-1.17-.15-1.22.38c-1,.31-1.07.43-1.07,2.43l0,12.89-0.29.1,0,0c-0.63.2-.78-0.1-0.78-1.76l0-12.72c0-1.83.39-2.56,1.56-2.93l1.41-.44,0.39-.12c0.58-.19.64-0.11,1.17,0.59a0.8,0.8,0,0,0,.78.54c0.49-.16.73-1.1,0.73-2.67v-5.4l0-.68v-0.79a7.06,7.06,0,0,0,0-.94A1.46,1.46,0,0,0,269.4,282.72Z" transform="translate(-161.56 -162.28)"/>
            <path class="cls-11" d="M274.48,267.27a7.62,7.62,0,0,1-.15,1.18l-0.94,6.48c-0.19,1.19-.64,1.94-1.22,2.12a0.87,0.87,0,0,1-1-.39c-0.73-.73-0.88-0.77-2-0.4l-3.51,1.11-0.58.19a1,1,0,0,0-.54.52,4.47,4.47,0,0,0-.29,2v0.35a1.21,1.21,0,0,1-.39.21c-0.58.18-.73-0.21-0.73-2,0-2,.29-2.53,1.76-3l4.29-1.35,0.44-.14a0.7,0.7,0,0,1,.68,0,1.25,1.25,0,0,1,.53.53,0.77,0.77,0,0,0,.73.38c0.49-.15.68-0.65,1-2.67l0.79-4.86a10.32,10.32,0,0,0,.15-1.44,1.93,1.93,0,0,0-.1-0.67A2.1,2.1,0,0,1,274.48,267.27Z" transform="translate(-161.56 -162.28)"/>
            <path class="cls-11" d="M304.55,252.83a3,3,0,0,1,.57,2,3.93,3.93,0,0,1-.12,1l-1.57,7.9c-0.46,2.31-.92,3.28-1.61,3.5-0.35.11-.81-0.16-1.32-1-2-3.3-2.41-3.67-4-3.18-3.23,1-5,8.07-5,19.91q0,10.19,1.71,16.13c-2-1.64-3-7-3-15.94,0-13.18,2.16-21.05,6-22.27,1.55-.49,2.65.29,4,2.55,0.46,0.78.69,1,1,.91s0.69-.83,1.1-2.71l1.21-5.53a12.59,12.59,0,0,0,.41-3,4.69,4.69,0,0,0-.11-1.2Z" transform="translate(-161.56 -162.28)"/>
            <path class="cls-11" d="M306.27,302.5a4.71,4.71,0,0,1-.12,1.06L305,310.93a8.67,8.67,0,0,1-.75,2.4c-1,2.06-3.8,4.18-6.57,5.06-5,1.56-9.1-1-11.51-7.27,3.91,5,6.9,6.36,11,5.07a12.75,12.75,0,0,0,4.55-2.67c1.15-1,1.5-1.71,1.9-3.89L305,302.9l0.06-1,0.06-.95V300.7a2.73,2.73,0,0,0-.12-1A3.4,3.4,0,0,1,306.27,302.5Z" transform="translate(-161.56 -162.28)"/>
            <path class="cls-11" d="M328.33,251.23a18.86,18.86,0,0,1,.53,4.88c0,5-1.43,10.29-3.63,13.42l-1.36,1.91a1.72,1.72,0,0,0-.24.77,1.37,1.37,0,0,0,.15.57,37,37,0,0,1,1.5,5.1c0.39,1.88.82,4.09,1.25,6.74,1.41,7.92,2.18,11.59,2.62,12.32l0.73,1.34a1.89,1.89,0,0,1,.29,1A1.74,1.74,0,0,1,329,301l-2.88.91-0.44.14-0.68.13a0.94,0.94,0,0,1-.83-0.17l0.73,1.16c0.53,1,.78,1.06,1.95.69l3.32-1a1.94,1.94,0,0,0,1.56-2.23,4.46,4.46,0,0,0-.48-2,25.39,25.39,0,0,1-1.9-5.59c-0.48-2.2-1.64-7.92-2.32-11.71-0.63-3.29-1.06-5.58-1.4-6.7a8.5,8.5,0,0,1-.38-2,1.64,1.64,0,0,1,.49-1.2c2.19-2.78,4-8.82,4-13.35C329.69,255,329.26,252.77,328.33,251.23Z" transform="translate(-161.56 -162.28)"/>
            <path class="cls-11" d="M317.24,278.41l-0.34-1.2c-0.1-.32-0.19-0.55-0.34-0.5-0.3.09-.49,0.94-0.49,1.89v0.87l0,19.68v1.31a2.61,2.61,0,0,0,.29,1.56l0.24,0.36a2.21,2.21,0,0,1,.34,1.11,1.57,1.57,0,0,1-1.27,1.71l-3,1c-1.27.4-1.41,0.45-2,.2,1,1.94,1.36,2.18,2.68,1.77l3.46-1.09a1.93,1.93,0,0,0,1.42-2,3.72,3.72,0,0,0-.29-1.48l-0.39-1.35a7,7,0,0,1-.24-2c-0.05-.51,0-1.12,0-3.12Z" transform="translate(-161.56 -162.28)"/>
            <path class="cls-11" d="M320.92,259.84a3.6,3.6,0,0,0,0-.63c0-1-.34-1.28-1.12-1l-1.71.54-0.78.25a1.68,1.68,0,0,0-.78.68,4.32,4.32,0,0,0-.44,2.31,6.33,6.33,0,0,0,0,1.29,1.22,1.22,0,0,0,.14.65,0.6,0.6,0,0,0,.44-0.05l0.49-.15v-1.22c0-1.22.15-1.53,1.08-1.82Z" transform="translate(-161.56 -162.28)"/>
            <path class="cls-11" d="M353.35,240.55l0.24,0.36a2.16,2.16,0,0,1,.63,1.54,6.69,6.69,0,0,1-.4,1.78,31.86,31.86,0,0,0-1.37,5l-2,10.11c-1.18,6.12-4.56,20.08-7.45,30.65a11.92,11.92,0,0,0-.59,3.06,8.75,8.75,0,0,0,.43,2.21,6,6,0,0,1,.29,1.74c0,1.22-.63,1.94-2.1,2.4l-3.85,1.21a2.52,2.52,0,0,1-1,.24,2.23,2.23,0,0,1-.87-0.68,3.71,3.71,0,0,1-.87-1.38l0-.16,0.1,0.05a1.91,1.91,0,0,0,1.66,0l4.19-1.32a2,2,0,0,0,1.51-1.78,7.64,7.64,0,0,0-.34-1.29,6.75,6.75,0,0,1-.19-1.42c0-1.22.29-2.53,2.06-8.57,0.88-3,2-7.51,3.43-13.62,2.6-11.18,3-13.22,4.9-23.58a17.65,17.65,0,0,1,1.08-4.09,4.39,4.39,0,0,0,.54-1.73c0-.17,0-0.33,0-0.6l-0.05-.16Z" transform="translate(-161.56 -162.28)"/>
            <path class="cls-11" d="M340.33,244.57l0.29,0.34,0.54,0.79a2.16,2.16,0,0,1,.39,1.1c0.09,0.41.19,1,.34,1.81,0.09,0.49.14,0.91,0.24,1.23a32.24,32.24,0,0,0,1.12,3.83,2.27,2.27,0,0,1,.14.56,3.69,3.69,0,0,1-.54,2c-0.24.08-.63-1-1.31-3.42L340.42,249a8.2,8.2,0,0,1-.48-2.37,5.35,5.35,0,0,1,.09-0.73l0.2-.85c0-.09,0-0.19,0-0.36v-0.09h0Z" transform="translate(-161.56 -162.28)"/>
            <path class="cls-11" d="M369.75,256.62c2.38,2.82,3.65,7.29,3.64,12.78,0,11.15-5.29,22.22-11.48,24.17a6.33,6.33,0,0,1-3.26.25c-1.17-.24-1.66-0.87-2.92-3.08l-0.1-.23,0.14,0.13a6.66,6.66,0,0,0,6,.89c5.9-1.86,10.54-11.77,10.56-22.66a32.06,32.06,0,0,0-.72-6.91A16.92,16.92,0,0,0,370,257.4l-0.34-.67-0.2-.37Z" transform="translate(-161.56 -162.28)"/>
            <path class="cls-11" d="M371.09,237a2.11,2.11,0,0,1,.29,1.3,4.26,4.26,0,0,1,0,.8l-1,6.84c-0.25,1.73-.69,2.74-1.27,2.93-0.34.11-.63-0.15-1.17-1.11-1.07-1.93-1.89-2.54-3.06-2.17s-2,1.76-2,3.51a4.33,4.33,0,0,0,0,.68v0.17s0-.07,0-0.07a2.74,2.74,0,0,1-1-2.38,4.13,4.13,0,0,1,2.59-3.78,2.61,2.61,0,0,1,3.12.84l0.68,1.18a0.47,0.47,0,0,0,.58.34,0.39,0.39,0,0,0,.29-0.27c0.2-.23.2-0.32,0.39-1.69l0.84-5.4c0-.54.1-0.9,0.1-1.34a7.64,7.64,0,0,0-.09-1.19l-0.05-.16Z" transform="translate(-161.56 -162.28)"/>
            <path class="cls-11" d="M392.29,230.17a2.17,2.17,0,0,1,.44,1.43v5.57c0,1-.35,1.94-0.88,2.11a0.93,0.93,0,0,1-.88-0.42,1.54,1.54,0,0,0-1.22-.57l-1.36.34-0.49.16c-1,.32-1.12.61-1.12,3.57l0,32.75c0,2,0,2.52,0,3.14,0.05,0.42.05,0.86,0.1,1.19a4.5,4.5,0,0,0,.19.81c0,0.16.2,0.63,0.39,1.36a4.82,4.82,0,0,1,.29,1.48,1.92,1.92,0,0,1-1.41,2l-3.51,1.11c-1.31.42-1.66,0.18-2.68-1.77,0.58,0.25.73,0.21,2-.2l3.07-1a1.57,1.57,0,0,0,1.27-1.71,2.28,2.28,0,0,0-.39-1.1l-0.24-.36a3.33,3.33,0,0,1-.24-1.58l0-1.29,0-36.06c0-3,.3-4,1.07-4.35l1.37-.6,0.39-.12a1.24,1.24,0,0,1,1.66.35l0.53,0.61a0.45,0.45,0,0,0,.39.23c0.44-.14.59-0.79,0.59-2.19v-4.35a7,7,0,0,0-.15-1.7Z" transform="translate(-161.56 -162.28)"/>
            <path class="cls-11" d="M378.24,242a2.16,2.16,0,0,0-1,.83,1.56,1.56,0,0,1-.74.67c-0.34.11-.78-0.36-1.31-1.41a0.4,0.4,0,0,0,.29,0,0.93,0.93,0,0,0,.49-0.41l0.59-1.23a1.7,1.7,0,0,1,1-.92c0.73-.23.88,0.07,0.88,1.55,0,0.26,0,.53,0,0.78A1.38,1.38,0,0,0,378.24,242Z" transform="translate(-161.56 -162.28)"/>
            <path class="cls-11" d="M408.09,223.62a4,4,0,0,1,.05.68,5.66,5.66,0,0,1-.4,1.6,8,8,0,0,0-.34,2.2,8.84,8.84,0,0,0,.15,1.43l4.92,39,0.14,0.91,0.34,1.37,0.58,1.12a2.15,2.15,0,0,1,.24.88,1.92,1.92,0,0,1-1.36,1.82l-3.22,1c-0.93.29-1.17,0.37-1.7,0a3.4,3.4,0,0,0,1,1.94c0.44,0.29.54,0.26,1.51,0l3.46-1.09a2.55,2.55,0,0,0,1.66-2.52,5,5,0,0,0-.44-2,19.35,19.35,0,0,1-.87-2.34c0-.24-0.2-0.9-0.34-1.9a13.65,13.65,0,0,1-.19-1.42l-4.25-34.44c-0.14-.91-0.19-1.51-0.24-1.75a12.41,12.41,0,0,1-.19-1.86,4.54,4.54,0,0,1,.2-1.28,8.94,8.94,0,0,0,.24-1.3,1.85,1.85,0,0,0-.09-0.58l-0.64-1Z" transform="translate(-161.56 -162.28)"/>
            <path class="cls-11" d="M403.47,253.81v-1c0-.69-0.29-0.86-0.93-0.66-1.32.42-1.7,1.06-2,3.59l-2,17.44c-0.09.82-.15,1.35-0.15,1.53a3.1,3.1,0,0,0,.24,1.23,6.57,6.57,0,0,1,.39.66,2.1,2.1,0,0,1,.29,1,1.46,1.46,0,0,1-1.12,1.66l-0.29.09-3.17,1a2.36,2.36,0,0,1-1.81,0l0.83,1.31c0.43,0.73.92,0.84,2,.48l3.07-1a2.33,2.33,0,0,0,1.76-2.56,3.64,3.64,0,0,0-.24-1.23L400,276.16a5.85,5.85,0,0,1-.24-1.75,7.82,7.82,0,0,1,0-1.06l0.15-1,1.82-15.73c0.24-2.08.39-2.39,1.22-2.65Z" transform="translate(-161.56 -162.28)"/>
            <path class="cls-11" d="M425.2,258.89c-0.54.17-.73-0.12-0.73-1.34l0-34.84a5.61,5.61,0,0,1,.25-1.64l0.44-1a4.33,4.33,0,0,0,.25-1.21v-0.43l0.29,0.34,0.43,0.64a1.43,1.43,0,0,1,.39.83,5.31,5.31,0,0,1-.39,1.52,4.72,4.72,0,0,0-.39,1.08,13,13,0,0,0-.1,2.56l0,33.27A1.24,1.24,0,0,1,425.2,258.89Z" transform="translate(-161.56 -162.28)"/>
            <path class="cls-11" d="M435.23,261.38a4,4,0,0,1-.05.71c0,0.09,0,.28-0.09.64l-0.84,5.05c-0.3,1.66-.84,2.44-1.86,2.76l-10.52,3.32-0.44.14a1.24,1.24,0,0,1-1.56-.55L419,272.06a2,2,0,0,0,1.66.09l0.19-.06,0.58-.27,10-3.16,0.39-.12c0.83-.26,1.17-0.89,1.52-2.57l0.59-3.58a16.74,16.74,0,0,0,.3-3.14A2.25,2.25,0,0,1,435.23,261.38Z" transform="translate(-161.56 -162.28)"/>
            <path class="cls-11" d="M452.52,230.49c2.38,2.82,3.65,7.3,3.64,12.79,0,11.15-5.29,22.22-11.48,24.17a6.39,6.39,0,0,1-3.27.25c-1.17-.24-1.66-0.87-2.92-3.08l-0.1-.23,0.14,0.13a6.68,6.68,0,0,0,6,.89c5.9-1.86,10.54-11.77,10.55-22.66a32.24,32.24,0,0,0-.72-6.91,17,17,0,0,0-1.56-4.56l-0.34-.68-0.19-.37Z" transform="translate(-161.56 -162.28)"/>
          </g>
          <path class="cls-11" d="M453.86,212.1a2.12,2.12,0,0,1,.29,1.3,4.14,4.14,0,0,1,0,.8l-1,6.84c-0.25,1.73-.69,2.74-1.28,2.93-0.34.11-.63-0.15-1.17-1.11-1.07-1.93-1.89-2.54-3.07-2.17s-2,1.76-2,3.51a4.53,4.53,0,0,0,0,.68c0,0.09,0,.09,0,0.18s0-.07,0-0.07a2.74,2.74,0,0,1-1-2.38,4.14,4.14,0,0,1,2.59-3.78,2.62,2.62,0,0,1,3.12.85l0.68,1.18a0.47,0.47,0,0,0,.58.34,0.41,0.41,0,0,0,.29-0.27c0.19-.23.2-0.32,0.39-1.69l0.83-5.4c0.05-.54.1-0.9,0.1-1.34a7.11,7.11,0,0,0-.1-1.19l0-.16Z" transform="translate(-161.56 -162.28)"/>
        </g>
        <g>
          <path class="cls-12" d="M194,285.55c-1.9-2.18-4-2.76-7.08-1.78l-1.5.47-7.26,2.29-0.4.12a1.51,1.51,0,0,0-.46.66,2.38,2.38,0,0,0-.23,1,1.94,1.94,0,0,0,.28,1l0.46,0.78a5.55,5.55,0,0,1,.29,2.59l0.05,2.76-0.06,45v2.78a8.47,8.47,0,0,1-.35,2.78l-0.46,1a4,4,0,0,0-.29,1.33c0,0.93.29,1.25,1.09,1l7.26-2.29c3.23-1,4.38-1.48,5.7-2.73a18.21,18.21,0,0,0,4.73-7.46c2.54-7.08,4-16.9,4-26.78C199.83,298.84,197.71,289.94,194,285.55Zm-7.61,52.72c-2.42.77-2.94,0.21-2.93-3.6l0-35.31,0.06-1.46c0.06-3.31.64-4.52,2.6-5.14,5.13-1.62,8.05,5.59,8,20C194.21,328.2,191.6,336.63,186.42,338.27Z" transform="translate(-161.56 -162.28)"/>
          <path class="cls-12" d="M211.65,282.13c0.29-.09.63,0.41,0.63,1a2.1,2.1,0,0,1-.29,1l-0.39.91c-0.24.51-.3,1.05-0.3,4.71l0,38.07v2.35a4.39,4.39,0,0,0,.29,2.17l0.39,0.57a1.67,1.67,0,0,1,.25,1,1.51,1.51,0,0,1-.59,1.32l-0.34.11-4.44,1.4c-0.68.21-.93-0.06-0.92-0.84a3.24,3.24,0,0,1,.24-1.12l0.39-.82a7.24,7.24,0,0,0,.29-2.36v-2.35l0-38.07,0-2.33a4.77,4.77,0,0,0-.24-2.19l-0.39-.66a1.61,1.61,0,0,1-.25-0.88,2,2,0,0,1,.2-0.84,1.21,1.21,0,0,1,.39-0.56l0.34-.11,4.44-1.4Z" transform="translate(-161.56 -162.28)"/>
          <path class="cls-12" d="M224.48,278.09c0.63-.11.92,0.06,0.92,0.75a3.58,3.58,0,0,1-.2,1.19,5.91,5.91,0,0,0-.39,1.87,28.07,28.07,0,0,0,1.16,5l1.31,4.29c0.43,1.34.73,1.95,0.92,1.88s0.69-1.35,1.22-3.35c1.72-6.81,2.1-8.76,2.11-9.81a3.26,3.26,0,0,0-.29-1.48,5.53,5.53,0,0,1-.24-1.32,1.46,1.46,0,0,1,1-1.45l4.19-1.32c1.07-.34,1.46,0,1.46.93a3.84,3.84,0,0,1-.39,1.43c-0.34.8-.54,1.3-0.59,1.4a27.9,27.9,0,0,0-.88,3.33c-0.35,1.5-.93,3.95-1.86,7.29-1.08,4.17-1.86,7.12-2.4,8.85a11,11,0,0,0-.54,2.44,8.55,8.55,0,0,0,.54,2.36c0.44,1.17.92,2.84,1.46,4.85,1.41,5.21,3.15,11.81,3.73,14.41a9.32,9.32,0,0,0,1,3,3.43,3.43,0,0,1,.34,1.11c0,0.87-.34,1.24-1.37,1.56l-5,1.57c-0.73.23-.92,0-0.92-0.75a5.13,5.13,0,0,1,.34-1.5,5.1,5.1,0,0,0,.29-1.48,20.11,20.11,0,0,0-.43-2.91l-1-4.48L229,313.05c-0.63-2.76-1.12-4.17-1.41-4.08s-0.78,1.64-1.57,5.2l-1.32,5.9a52.68,52.68,0,0,0-1.28,7.28,4.06,4.06,0,0,0,.29,1.48,5,5,0,0,1,.34,1.29,1.46,1.46,0,0,1-1.17,1.59l-4.49,1.42c-0.82.26-1,.15-1-0.73a4.79,4.79,0,0,1,.25-1.3l0.59-1.4a19.28,19.28,0,0,0,.93-3.78c0.29-1.75,1.13-5.49,2.4-11,1-4.59,1.86-7.81,2.35-9.53a14.58,14.58,0,0,0,.73-3.37,9.16,9.16,0,0,0-.73-2.91c-0.58-1.38-1.41-3.82-2.52-7.3-1.11-3.65-1.85-6-2.14-7.16a10.06,10.06,0,0,0-.68-1.88,4.12,4.12,0,0,1-.58-1.64c0-.87.15-1,1.22-1.34l4.83-1.52Z" transform="translate(-161.56 -162.28)"/>
          <path class="cls-12" d="M249.63,270.15c0.29-.09.63,0.41,0.63,1a2,2,0,0,1-.3,1l-0.39.91c-0.24.51-.3,1.05-0.3,4.71l-0.05,38.06v2.35a4.34,4.34,0,0,0,.29,2.17L249.9,321a1.62,1.62,0,0,1,.24,1,1.5,1.5,0,0,1-.58,1.32l-0.34.1-4.43,1.4c-0.68.22-.93-0.05-0.93-0.84a3.37,3.37,0,0,1,.25-1.12l0.39-.82a7.28,7.28,0,0,0,.29-2.36V317.3l0.05-38.07,0-2.34a4.71,4.71,0,0,0-.24-2.19l-0.39-.66a1.61,1.61,0,0,1-.24-0.88,2,2,0,0,1,.2-0.85,1.29,1.29,0,0,1,.39-0.56l0.34-.11,4.44-1.4Z" transform="translate(-161.56 -162.28)"/>
          <path class="cls-12" d="M256.93,273a5.06,5.06,0,0,0-.24-2.19l-0.39-.57a1.6,1.6,0,0,1-.24-0.88,1.34,1.34,0,0,1,.93-1.51l14.24-4.49c0.93-.29,1.07-0.16,1.07.71a3.2,3.2,0,0,1-.1.9l-1,5.88a2.82,2.82,0,0,1-.93,1.86,0.79,0.79,0,0,1-.78-0.37,3.13,3.13,0,0,0-.49-0.54,1,1,0,0,0-1,0l-4.39,1.38-0.59.19a1.84,1.84,0,0,0-1.32,1.46,6.73,6.73,0,0,0-.2,1.37c0,0.26-.05.89-0.05,2,0,0.35,0,.7,0,1,0,3.31.29,3.74,2.14,3.16a0.78,0.78,0,0,0,.39-0.21,4.55,4.55,0,0,0,1.42-.62,3.45,3.45,0,0,0,.68-0.91c0.44-.83.54-1,0.73-1,0.49-.15.73,0.64,0.72,2.3v6.36c0,1.31-.2,1.89-0.69,2a0.24,0.24,0,0,1-.34-0.07,1.22,1.22,0,0,1-.49-0.46,1.45,1.45,0,0,0-.92-0.4l-1.36.43L263,290c-1.17.37-1.51,1.35-1.52,4l0,14.89c0,2.44.44,2.92,2,2.4l5.51-1.74,0.54-.17a2.53,2.53,0,0,0,1.27-.66l0.93-1.25a1.07,1.07,0,0,1,.44-0.31c0.39-.12.64,0.23,0.63,0.84a8.8,8.8,0,0,1-.15,1.27l-0.83,5.05a4.52,4.52,0,0,1-.49,1.63,0.75,0.75,0,0,1-.49.5l-0.49.15L256.92,321c-0.63.2-.92-0.05-0.92-0.84a3.21,3.21,0,0,1,.24-1.12l0.39-.82a7.23,7.23,0,0,0,.29-2.35v-2.35L257,275.32Z" transform="translate(-161.56 -162.28)"/>
          <path class="cls-12" d="M297.1,313c-8.58,2.71-14.56-8.88-14.53-28.14,0-18.84,5.69-33.9,13.69-36.43,3.69-1.16,6.16-.19,6.16,2.38a9.9,9.9,0,0,1-.12,1.27l-1.1,6.52c-0.23,1.31-.69,2.38-1.15,2.53s-0.46-.06-1-1.43-1.72-2-3.1-1.59c-4.73,1.49-7.74,11.19-7.75,25.19s3.6,21.81,9.3,20A1.66,1.66,0,0,0,298,303c2-.82,2.13-1.08,4-4.55a2.41,2.41,0,0,1,.81-1.08c0.46-.14.81,0.47,0.8,1.49a12.55,12.55,0,0,1-.17,1.7l-1.22,7C301.77,310.3,300,312.08,297.1,313Z" transform="translate(-161.56 -162.28)"/>
          <path class="cls-12" d="M327.74,296a6.47,6.47,0,0,1-1.5-3c-0.34-1.37-.68-2.83-1-4.48l-1.45-7.81c-0.73-4.21-1.36-6.36-2.18-7.76a9.38,9.38,0,0,0-.73-1.16,0.77,0.77,0,0,1-.14-0.39c0-.26.29-0.61,1.36-1.48,3-2.43,5.08-8,5.08-13.71,0-3.57-.87-6.69-2.28-8s-1.65-1.31-4.63-.37L310,251.11l-0.34.11a1.21,1.21,0,0,0-.39.56,1.91,1.91,0,0,0-.2.84,1.63,1.63,0,0,0,.24.88l0.39,0.66a4.78,4.78,0,0,1,.24,2.19l0,2.34,0,38.06v2.35a7.22,7.22,0,0,1-.29,2.36l-0.39.82a3.38,3.38,0,0,0-.24,1.12c0,0.78.24,1.05,0.93,0.84l4.58-1.45,0.34-.11a0.66,0.66,0,0,0,.39-0.47,1.7,1.7,0,0,0,.2-0.84,2.23,2.23,0,0,0-.24-1l-0.39-.58a4.72,4.72,0,0,1-.24-2.19l0-2.33,0-18.21c0-2.53.29-3.49,1.17-3.77a1.48,1.48,0,0,1,1.31.72,24.76,24.76,0,0,1,1.46,5.2l0.58,2.86,2.76,14.8c0.09,0.4.19,0.9,0.34,1.46a4.32,4.32,0,0,0,.39,1.19c0.25,0.53.49,0.54,1.27,0.29l3.56-1.12a1.45,1.45,0,0,0,1-1.44A1.67,1.67,0,0,0,327.74,296Zm-10.68-30.5c-2,.64-2.53.28-2.53-2.08v-2.79c0-1.74.1-2.38,0.49-3,0.44-.83.58-0.88,1.9-1.3l0.92-.29,1.71-.54c1.56-.41,2.48.69,2.48,3.14A6.66,6.66,0,0,1,317.06,265.5Z" transform="translate(-161.56 -162.28)"/>
          <path class="cls-12" d="M340.45,269.87A24.84,24.84,0,0,1,338,264.2l-2.28-6.94c-1.07-3.32-1.75-5.63-2-6.84a12.1,12.1,0,0,0-.82-2.7l-0.58-1.12a2.31,2.31,0,0,1-.39-1.27,1.67,1.67,0,0,1,.2-0.85,1.84,1.84,0,0,0,.24-0.34c0.1,0,.19-0.15.29-0.18l0.68-.22,4.24-1.34c0.92-.29,1.37-0.08,1.37.7a7.9,7.9,0,0,1-.34,1.41,5.88,5.88,0,0,0-.25,1.39,31.72,31.72,0,0,0,1.6,6.55l1.65,5.23c0.49,1.5.82,2,1.12,1.91,0.49-.15.78-1.12,1.47-4.9l1.08-6a32.16,32.16,0,0,0,.59-4.37,3.84,3.84,0,0,0-.34-1.55,3.49,3.49,0,0,1-.44-1.43,1.67,1.67,0,0,1,1.37-1.74l4.19-1.32c0.93-.29,1.36,0,1.36.79a4.15,4.15,0,0,1-.34,1.33l-0.54,1.3a14.51,14.51,0,0,0-.64,3.07c-0.34,2.81-1.08,7-2.26,12.64-1.57,7.72-2.79,13.16-3.67,16.57L341,287.2l-0.55,2.09a6.42,6.42,0,0,0-.29,1.48,4.6,4.6,0,0,0,.34,1.38,3.82,3.82,0,0,1,.34,1.2,1.41,1.41,0,0,1-1.07,1.47L334,296.63c-0.93.29-1.26,0.14-1.27-.73a3.53,3.53,0,0,1,.84-2,25.45,25.45,0,0,0,2.05-5.35c2.2-7,3.43-11.09,4.85-17.11l0.3-1.14C340.64,270.07,340.49,269.94,340.45,269.87Z" transform="translate(-161.56 -162.28)"/>
          <path class="cls-12" d="M356.27,276.89c0.44-.14.73,0.29,1,1.35,0.49,2.29,1.94,3.22,3.84,2.62,2.73-.86,4.68-5.05,4.69-10a15.05,15.05,0,0,0-.68-4.66c-0.77-2.46-1.36-3.23-5.35-7.11-3.21-3.08-4.43-6-4.42-10.71,0-7.32,3.28-13.31,8.06-14.82,3.46-1.09,5.85-.37,5.85,1.81,0,0.26,0,.54-0.05.8l-0.69,4.74c-0.15,1.09-.49,1.81-0.93,2s-0.54-.1-0.78-0.71a2.62,2.62,0,0,0-.49-0.89,2.28,2.28,0,0,0-2.48-.43c-2,.65-3.42,2.82-3.42,5.61a10,10,0,0,0,.34,2.42c0.54,1.57,1.16,2.42,4.28,5.44,3.8,3.68,5.64,8.75,5.63,15.37,0,9.23-3.82,17.66-8.7,19.2a7.58,7.58,0,0,1-6.53-.9,2.08,2.08,0,0,1-1-2,13.85,13.85,0,0,1,.15-1.44l0.74-5.37C355.49,277.75,355.78,277,356.27,276.89Z" transform="translate(-161.56 -162.28)"/>
          <path class="cls-12" d="M379.42,239.37c0-2.09-.44-2.65-1.95-2.17s-1.81.83-2.58,2.47a3.08,3.08,0,0,1-.68,1c-0.44.14-.68-0.66-0.68-2.31V233c0-1.48.35-2.11,1.42-2.45l13.7-4.33c1-.31,1.31.2,1.31,1.59v4.79c0,1.57-.24,2.51-0.68,2.65a0.81,0.81,0,0,1-.69-0.39c-0.73-.81-1.06-0.88-2.24-0.51-2,.63-2.39,1.45-2.4,5.11l0,33.89v2.35a4.45,4.45,0,0,0,.29,2.17l0.39,0.58a2.23,2.23,0,0,1,.24,1,2.19,2.19,0,0,1-.2.84,0.85,0.85,0,0,1-.39.47l-0.34.1-4.54,1.43c-0.69.21-.92-0.06-0.92-0.84a3.25,3.25,0,0,1,.25-1.12l0.39-.82a7.13,7.13,0,0,0,.29-2.36v-2.35l0-34v-1.48Z" transform="translate(-161.56 -162.28)"/>
          <path class="cls-12" d="M411.83,269.72c-0.34-.68-0.53-1-0.53-1A12.65,12.65,0,0,1,411,267c-0.05-.42-0.09-0.67-0.14-1l-4.73-39.26a9.14,9.14,0,0,1-.1-0.93,5.18,5.18,0,0,1-.1-1.11,5.44,5.44,0,0,1,.15-1.17,8.21,8.21,0,0,0,.39-1.69c0-.87-0.39-1.1-1.37-0.79l-6.63,2.09a1.71,1.71,0,0,0-1.37,1.91,8.94,8.94,0,0,0,.29,1.48,3,3,0,0,1,.24,1.23c0,0.35,0,1-.1,1.69l-4.78,41.39-0.15,1.35a21.26,21.26,0,0,1-.34,2.11c-0.09.29-.29,0.88-0.63,1.68a4,4,0,0,0-.34,1.33c0,1,.29,1.13,1.41.77l3.56-1.12c1.17-.37,1.56-0.75,1.56-1.62a2.15,2.15,0,0,0-.29-1,2.59,2.59,0,0,1-.44-1.34c0-.35.05-0.8,0.1-1.34a7.31,7.31,0,0,0,.1-0.9l2-17.17c0.34-2.72.83-3.57,2.39-4.06l0.29-.09a2.92,2.92,0,0,1,1.46-.11c0.54,0.27.58,0.51,1,4.21l1.69,14.35,0.1,0.93c0.09,0.67.14,1.09,0.14,1.26a2.41,2.41,0,0,1-.15.92l-0.39.91a3.29,3.29,0,0,0-.15.92c0,1,.24,1.14,1.32.8l3.7-1.17a1.66,1.66,0,0,0,1.46-1.68A2.14,2.14,0,0,0,411.83,269.72Zm-10-27.07c-1,.32-1.41.1-1.41-0.78a4.78,4.78,0,0,1,0-.71l0.1-.64,0.64-5.34c0.1-.9.29-1.31,0.54-1.39s0.39,0.23.49,0.63l0.1,0.84,0.53,4.36,0.05,0.68c0,0.42.1,0.67,0.1,0.75A1.49,1.49,0,0,1,401.87,242.65Z" transform="translate(-161.56 -162.28)"/>
          <path class="cls-12" d="M429.68,259a3.06,3.06,0,0,0,1.8-1.35,3.83,3.83,0,0,1,.88-0.89c0.44-.14.68,0.39,0.68,1.27,0,0.35-.05.8-0.1,1.33l-0.88,4.81c-0.25,1.38-.44,1.71-1.12,1.92l-12.62,4c-0.63.2-.93-0.06-0.92-0.84a3.27,3.27,0,0,1,.24-1.12l0.39-.82a7.18,7.18,0,0,0,.29-2.36v-2.35l0-38.07,0-2.34a4.64,4.64,0,0,0-.24-2.19l-0.39-.66a1.6,1.6,0,0,1-.24-0.88,1.33,1.33,0,0,1,.92-1.51l4.54-1.43c0.64-.2.93,0.06,0.92,0.93a2.46,2.46,0,0,1-.24,1l-0.39.91a5.78,5.78,0,0,0-.29,2.35V223l0,34.76c0,2.61.34,3.2,1.51,2.83l0.54-.17Z" transform="translate(-161.56 -162.28)"/>
          <path class="cls-12" d="M439,250.77c0.44-.14.73,0.29,1,1.35,0.49,2.28,1.95,3.22,3.85,2.62,2.73-.86,4.69-5,4.69-10a15.11,15.11,0,0,0-.67-4.66c-0.78-2.45-1.36-3.23-5.36-7.11-3.21-3.08-4.42-6-4.42-10.71,0-7.32,3.28-13.32,8.06-14.82,3.46-1.09,5.85-.36,5.85,1.81,0,0.26,0,.54,0,0.8l-0.69,4.75c-0.15,1.09-.49,1.81-0.93,1.94s-0.54-.09-0.78-0.71a2.86,2.86,0,0,0-.49-0.89,2.29,2.29,0,0,0-2.48-.43c-2,.65-3.42,2.82-3.42,5.61a9.86,9.86,0,0,0,.34,2.42c0.53,1.58,1.16,2.42,4.28,5.44,3.8,3.68,5.64,8.75,5.63,15.37,0,9.23-3.83,17.66-8.7,19.2a7.59,7.59,0,0,1-6.53-.9,2.09,2.09,0,0,1-1-2,14.4,14.4,0,0,1,.15-1.44l0.74-5.37C438.27,251.63,438.56,250.92,439,250.77Z" transform="translate(-161.56 -162.28)"/>
        </g>
        <path class="cls-13" d="M270.7,271.2l-0.13-.17h0A2,2,0,0,1,270.7,271.2Z" transform="translate(-161.56 -162.28)"/>
      </g>
      <path class="cls-14" d="M413.75,202.4c-18.51,10.26-58.52,16.3-108.13,17.73-16.57.48-98.29,1.4-98.36,15.13V196.91c0.06-13.73,81.78-14.66,98.36-15.13,49.61-1.43,89.62-7.47,108.13-17.73C413.75,164,408.72,179.12,413.75,202.4Z" transform="translate(-161.56 -162.28)"/>
      <path class="cls-15" d="M207.26,200.87c0.06-13.73,81.78-14.66,98.36-15.13,49.61-1.43,89.62-7.47,108.13-17.72" transform="translate(-161.56 -162.28)"/>
      <path class="cls-15" d="M207.26,231.25c0.06-13.73,81.78-14.66,98.36-15.14,49.61-1.43,89.62-7.47,108.13-17.73" transform="translate(-161.56 -162.28)"/>
      <path class="cls-16" d="M210,354.29c18.51-10.46,58.52-16.62,108.13-18.08,16.58-.48,98.3-1.43,98.36-15.44v39.12c-0.06,14-81.78,15-98.36,15.44C268.48,376.79,228.47,383,210,393.42,210,393.42,215,378,210,354.29Z" transform="translate(-161.56 -162.28)"/>
      <path class="cls-17" d="M210,390c18.51-10.46,58.52-16.62,108.13-18.08,16.58-.49,98.3-1.43,98.36-15.44" transform="translate(-161.56 -162.28)"/>
      <path class="cls-17" d="M210,357.66c18.51-10.46,58.52-16.63,108.13-18.08,16.58-.49,98.3-1.43,98.36-15.44" transform="translate(-161.56 -162.28)"/>
      <g>
        <path class="cls-12" d="M235.38,199.76l3-.38c2.25-.29,3.29-0.07,3.29,1.44s-1,2-3.18,2.3l-3.1.4v-3.76Zm-4.75,13.85,5.46-.7v-0.44a0.66,0.66,0,0,1-.71-0.83v-4.77l3.38-.43c2.11-.27,3.62-0.59,4.8-1.59a6,6,0,0,0,1.87-4.48c0-3.19-1.95-5-5.65-4.53L230.63,197v0.44c0.58,0.08.69,0.23,0.69,0.83v13.88a0.85,0.85,0,0,1-.69,1v0.44Z" transform="translate(-161.56 -162.28)"/>
        <path class="cls-12" d="M257.37,206.71c2.17-.17,2.75-1.33,2.75-3.44v-5.88a0.72,0.72,0,0,0-.71-0.89v-0.44l5-.4v0.44a0.82,0.82,0,0,0-.69,1v6.67c0,3.89-2.17,6-6.32,6.35s-6.23-1.46-6.23-5.51V198.1a0.72,0.72,0,0,0-.71-0.89v-0.44l5-.4v0.44a0.83,0.83,0,0,0-.69,1v5.82C254.7,205.85,255.36,206.87,257.37,206.71Z" transform="translate(-161.56 -162.28)"/>
        <path class="cls-12" d="M274,198.21l2.58-.12c1.89-.09,2.77.09,2.77,1.2s-0.91,1.4-2.69,1.49l-2.66.13v-2.69Zm4.26-3.17-8.51.41v0.44a0.73,0.73,0,0,1,.69.92v10.88a0.78,0.78,0,0,1-.69.95v0.44l5-.24v-0.44a0.72,0.72,0,0,1-.71-0.88v-3.67l2.36-.11L278,206.8a2.22,2.22,0,0,1,.36.93,0.54,0.54,0,0,1-.44.5v0.44l5.16-.25V208c-0.74-.15-1.13-0.8-1.68-1.79l-1.51-2.71a4.32,4.32,0,0,0,3.08-4.32C283,196.51,281.38,194.88,278.25,195Z" transform="translate(-161.56 -162.28)"/>
        <path class="cls-12" d="M292.38,199.86l3.82-.12c0.52,0,.66-0.15.8-0.82h0.41v4.55H297c-0.14-.66-0.27-0.81-0.8-0.8l-3.82.12v2l6.62-.21c0.52,0,.66-0.15.8-0.82h0.38v5h-0.38c-0.14-.66-0.27-0.78-0.8-0.77l-10.87.34v-0.44a0.78,0.78,0,0,0,.71-0.94V196.06a0.76,0.76,0,0,0-.71-0.93v-0.44l10.87-.35c0.52,0,.66-0.15.8-0.82h0.38v5h-0.38c-0.14-.66-0.27-0.81-0.8-0.8l-6.62.21v1.93Z" transform="translate(-161.56 -162.28)"/>
        <path class="cls-12" d="M328.52,197c0-.89-2.11-1.8-4.39-1.69-3.08.15-5.11,2-5.11,4.7s1.84,4.24,5,4.09a7.17,7.17,0,0,0,4.17-1.37,0.71,0.71,0,0,0,.44-0.62,1.75,1.75,0,0,0-.08-0.47l0.33-.24,2.75,5-0.36.21a0.92,0.92,0,0,0-.52-0.39c-0.47,0-2.44,2-6.67,2.18-6,.29-9.28-3.26-9.28-8.16s3.32-8.73,8.92-9c3.54-.17,5.63,1.15,6.37,1.12a1,1,0,0,0,.69-0.54l0.33,0.14-2.28,5.42-0.36-.14A0.59,0.59,0,0,0,328.52,197Z" transform="translate(-161.56 -162.28)"/>
        <path class="cls-12" d="M340.48,200.8l1.87-5.87,2,5.5Zm5.25-9-6.26.6v0.44c0.3,0,.38.15,0.38,0.5a3.75,3.75,0,0,1-.22,1l-2.91,9.26c-0.38,1.17-.66,2-1.29,2.4v0.44l4.39-.42v-0.44a0.64,0.64,0,0,1-.58-0.7,2.52,2.52,0,0,1,.11-0.55l0.38-1.21,5.44-.52,0.41,1.13a2.38,2.38,0,0,1,.14.62,0.68,0.68,0,0,1-.52.71v0.44l4.7-.45v-0.44a1.08,1.08,0,0,1-.69-0.85l-3.68-10a3,3,0,0,1-.22-1,0.43,0.43,0,0,1,.41-0.48v-0.44Z" transform="translate(-161.56 -162.28)"/>
        <path class="cls-12" d="M359.6,190.9a0.77,0.77,0,0,0-.55.67,1.48,1.48,0,0,0,.19.67l4.83,5.26v-6.23a0.66,0.66,0,0,0-.71-0.83V190l4.2-.54v0.47a0.85,0.85,0,0,0-.69,1v10.88c0,0.6.11,0.74,0.69,0.83v0.44l-5,.64v-0.44a0.81,0.81,0,0,0,.58-0.67,1.49,1.49,0,0,0-.19-0.67l-6-6.48v7.62a0.66,0.66,0,0,0,.71.83v0.44l-4.2.54v-0.44a0.85,0.85,0,0,0,.69-1V192.53c0-.6-0.11-0.78-0.69-0.86v-0.44l6.09-.78v0.44Z" transform="translate(-161.56 -162.28)"/>
        <path class="cls-12" d="M376.79,193.12l3.82-.74a0.87,0.87,0,0,0,.8-0.94l0.41-.08v4.55l-0.41.08c-0.14-.64-0.27-0.77-0.8-0.67l-3.82.74v2l6.62-1.28a0.87,0.87,0,0,0,.8-0.94l0.38-.07v5l-0.38.07c-0.14-.64-0.27-0.74-0.8-0.64l-10.87,2.1v-0.44a0.94,0.94,0,0,0,.71-1.06V189.88c0-.6-0.14-0.76-0.71-0.81v-0.44l10.87-2.1a0.87,0.87,0,0,0,.8-0.94l0.38-.07v5l-0.38.07c-0.14-.64-0.27-0.77-0.8-0.67l-6.62,1.28v1.93Z" transform="translate(-161.56 -162.28)"/>
      </g>
      <g>
        <path class="cls-12" d="M247.25,358.66c0-.9-2.5-1.41-5.19-0.88-2.28.45-3.57,1.54-3.57,2.54,0,1.32,1.59.94,4.67,0.53,4.45-.59,6.59.38,6.59,3.8S247,371,242.31,372a16.3,16.3,0,0,1-7.47,0,1.15,1.15,0,0,0-.55.62l-0.36-.12,2-5.56L236.3,367a0.67,0.67,0,0,0-.08.31c0,1.16,2.66,2.06,6.09,1.38,2.31-.45,3.57-1.54,3.57-2.74,0-1.87-1.76-1.49-4.45-1.09-4.45.68-6.67-.43-6.67-3.49s2.66-5.81,7.06-6.68c3.32-.65,5.6.28,6.45,0.11a0.75,0.75,0,0,0,.66-0.55l0.36,0.12-1.76,4.86-0.36-.12C247.2,358.9,247.25,358.76,247.25,358.66Z" transform="translate(-161.56 -162.28)"/>
        <path class="cls-12" d="M259.81,367.32v0.45l-5,.73v-0.45a0.88,0.88,0,0,0,.69-1V355.92c0-.61-0.11-0.79-0.69-0.87V354.6l5-.73v0.45a0.94,0.94,0,0,0-.71,1.07v11.09A0.66,0.66,0,0,0,259.81,367.32Z" transform="translate(-161.56 -162.28)"/>
        <path class="cls-12" d="M269.73,353a0.77,0.77,0,0,0-.55.68,1.56,1.56,0,0,0,.19.69l4.83,5.45v-6.35a0.68,0.68,0,0,0-.71-0.85v-0.48l4.2-.48v0.48a0.85,0.85,0,0,0-.69,1v11.1c0,0.61.11,0.76,0.69,0.86v0.45l-5,.57v-0.45a0.81,0.81,0,0,0,.58-0.68,1.56,1.56,0,0,0-.19-0.69l-6-6.71v7.77a0.68,0.68,0,0,0,.71.85v0.45l-4.2.48v-0.45a0.85,0.85,0,0,0,.69-1v-11.1c0-.61-0.11-0.79-0.69-0.89v-0.45l6.09-.69V353Z" transform="translate(-161.56 -162.28)"/>
        <path class="cls-12" d="M293.74,355.36a0.72,0.72,0,0,0,.05-0.23c0-.77-1.65-1.45-3.57-1.29-2.58.21-4.25,1.83-4.25,4.05s1.54,3.49,4.2,3.27a6.29,6.29,0,0,0,3.35-1.27,0.65,0.65,0,0,0,.36-0.51,1.21,1.21,0,0,0-.08-0.41l0.33-.19,2.33,4.16-0.27.22a0.79,0.79,0,0,0-.49-0.31,11.77,11.77,0,0,1-5.54,2c-5.08.41-7.82-2.49-7.82-6.65a7.74,7.74,0,0,1,7.52-7.87c3-.24,4.72.84,5.33,0.79a0.83,0.83,0,0,0,.58-0.47l0.3,0.1-2,4.68Z" transform="translate(-161.56 -162.28)"/>
        <path class="cls-12" d="M305.15,355.2L309,355c0.52,0,.66-0.16.8-0.85l0.41,0v4.64l-0.41,0c-0.14-.67-0.27-0.83-0.8-0.8l-3.82.19v2l6.62-.32c0.52,0,.66-0.16.8-0.85l0.38,0v5.06l-0.38,0c-0.14-.67-0.28-0.79-0.8-0.77l-10.87.53v-0.45a0.81,0.81,0,0,0,.71-1V351.37a0.75,0.75,0,0,0-.71-0.93V350l10.87-.53c0.52,0,.66-0.16.8-0.85l0.38,0v5.1l-0.38,0c-0.14-.67-0.28-0.83-0.8-0.8l-6.62.32v2Z" transform="translate(-161.56 -162.28)"/>
        <path class="cls-12" d="M333.77,363.34a0.79,0.79,0,0,0,.71-1v-10l-1.34.56a1.16,1.16,0,0,0-.8,1.06H332v-5.19h0.38c0.11,0.54.19,0.74,0.49,0.73a0.76,0.76,0,0,0,.36-0.08l1.29-.62v-0.64a0.74,0.74,0,0,0-.71-0.91v-0.45l5.46-.18v0.45a0.78,0.78,0,0,0-.69,1v14.16a0.72,0.72,0,0,0,.69.91v0.45l-5.46.18v-0.45Z" transform="translate(-161.56 -162.28)"/>
        <path class="cls-12" d="M355.46,351.62c0,1.55-1.15,2.48-3.13,2.57s-3-.85-3-2.24,1-2.44,2.94-2.53S355.46,350.24,355.46,351.62Zm-10,11.29,0.36,0.21a1,1,0,0,1,.63-0.51c0.58,0,2.55,1.07,5.22.94,5.16-.25,8.43-4.18,8.43-9.63,0-5.06-3-8.27-7.55-8.05-4.34.21-6.92,2.69-6.92,6.37a5.23,5.23,0,0,0,5.71,5.33,7.71,7.71,0,0,0,5.05-2.44,4.87,4.87,0,0,1-4.83,5.17,5.47,5.47,0,0,1-3-.66c-0.47-.2-0.66-0.32-0.66-0.68a2.29,2.29,0,0,1,.08-0.55l-0.33-.21Z" transform="translate(-161.56 -162.28)"/>
        <path class="cls-12" d="M367.26,361.67a0.84,0.84,0,0,0,.71-1v-10l-1.34.62a1.23,1.23,0,0,0-.8,1.1l-0.38,0v-5.19l0.38,0c0.11,0.54.19,0.73,0.49,0.7a0.79,0.79,0,0,0,.36-0.09l1.29-.69v-0.64a0.7,0.7,0,0,0-.71-0.88v-0.45l5.46-.44v0.45a0.82,0.82,0,0,0-.69,1v14.16a0.69,0.69,0,0,0,.69.88v0.45l-5.46.44v-0.45Z" transform="translate(-161.56 -162.28)"/>
        <path class="cls-12" d="M380.64,360.44A2.34,2.34,0,0,0,382,359l5.63-12.28-8.43,1.1c-0.52.07-.66,0.25-0.8,0.94l-0.41.05v-5.39l0.41-.05c0.14,0.66.27,0.8,0.8,0.73l11.5-1.5c0.52-.07.66-0.25,0.8-0.94l0.38-.05v4.13l-5.52,12.85a1.81,1.81,0,0,0-.17.44,0.55,0.55,0,0,0,.71.55v0.45l-6.31.82v-0.45Z" transform="translate(-161.56 -162.28)"/>
      </g>
    </g>
    <path class="cls-2" d="M419.15,309.08a3,3,0,1,1,3,3.12A3,3,0,0,1,419.15,309.08Zm3,3.75a3.74,3.74,0,1,0-3.8-3.75A3.73,3.73,0,0,0,422.2,312.83Zm-0.79-3.45h0.75l1.14,1.87H424l-1.23-1.9a1.12,1.12,0,0,0,1.12-1.19c0-.85-0.5-1.23-1.52-1.23h-1.64v4.31h0.65v-1.87Zm0-.55v-1.34h0.89c0.46,0,.94.1,0.94,0.63s-0.5.7-1,.7h-0.78Z" transform="translate(-161.56 -162.28)"/>
  </g>
</svg>
