<?xml version="1.0" encoding="UTF-8" standalone="no"?>
<svg width="34px" height="26px" viewBox="0 0 34 26" version="1.1" xmlns="http://www.w3.org/2000/svg" xmlns:xlink="http://www.w3.org/1999/xlink">
    <!-- Generator: Sketch 3.8.3 (29802) - http://www.bohemiancoding.com/sketch -->
    <title>envelope-icon</title>
    <desc>Created with Sketch.</desc>
    <defs></defs>
    <g id="Symbols" stroke="none" stroke-width="1" fill="none" fill-rule="evenodd">
        <g id="Footer" transform="translate(-118.000000, -37.000000)" fill="#FFFFFF">
            <g id="Newsletter-signup">
                <g id="envelope-icon" transform="translate(118.000000, 37.000000)">
                    <path d="M33.658,3.658 L32.342,2.342 L19.878,14.807 C18.291,16.394 15.709,16.394 14.122,14.807 L1.658,2.342 L0.342,3.658 L9.649,12.964 L0.342,22.271 L1.658,23.586 L10.964,14.28 L12.807,16.122 C13.927,17.242 15.416,17.859 17,17.859 C18.584,17.859 20.073,17.242 21.193,16.122 L23.036,14.28 L32.342,23.586 L33.658,22.271 L24.351,12.964 L33.658,3.658" id="Fill-3"></path>
                    <path d="M31,26 L3,26 C1.346,26 0,24.654 0,23 L0,3 C0,1.346 1.346,0 3,0 L31,0 C32.654,0 34,1.346 34,3 L34,23 C34,24.654 32.654,26 31,26 L31,26 Z M3,2 C2.449,2 2,2.449 2,3 L2,23 C2,23.551 2.449,24 3,24 L31,24 C31.551,24 32,23.551 32,23 L32,3 C32,2.449 31.551,2 31,2 L3,2 L3,2 Z"></path>
                </g>
            </g>
        </g>
    </g>
</svg>