<svg id="PDP_elements" data-name="PDP elements" xmlns="http://www.w3.org/2000/svg" viewBox="0 0 353.37 248.78">
  <defs>
    <style>
      .cls-1, .cls-3 {
        fill: #005596;
      }

      .cls-2 {
        fill: none;
      }

      .cls-3 {
        fill-rule: evenodd;
      }

      .cls-4 {
        fill: #e52638;
      }

      .cls-5 {
        fill: #fff;
      }
    </style>
  </defs>
  <title>Imperial_Brand_Logo</title>
  <path class="cls-1" d="M222,210.06c2.17,1.65,3.82,2.2,5.7,1.54,1.7-.59,2.14-1.75,1.79-2.73s-1-1.33-2.36-1.41l-3.13-.16a3.68,3.68,0,0,1-3.49-2.3c-0.79-2.24.68-4.49,3.39-5.44,1.34-.47,1.88-0.33,2.73-0.63a2.25,2.25,0,0,0,1.25-.91l1.6,4.56a4.73,4.73,0,0,0-4.68-1c-1.22.43-2,1.22-1.63,2.24,0.25,0.71.88,1,2.46,1l2.19,0a4,4,0,0,1,4.18,2.79c0.88,2.51-.53,4.92-3.39,5.92-1.38.48-2.86,0.48-3.55,0.72a2.8,2.8,0,0,0-1.23,1.1Z" transform="translate(-137.53 -185.45)"/>
  <path class="cls-1" d="M239.9,197a2.54,2.54,0,0,0-1.57-1.63l4.81-1.29a2.54,2.54,0,0,0-.54,2.2l2.65,9.86a2.54,2.54,0,0,0,1.57,1.63L242,209.05a2.54,2.54,0,0,0,.54-2.2Z" transform="translate(-137.53 -185.45)"/>
  <path class="cls-1" d="M254.18,193.46a2.54,2.54,0,0,0-1.45-1.75l4.91-.93a2,2,0,0,0,0,.52,2,2,0,0,0,.41.8l5.34,7.14h0l-1.11-5.86c-0.34-1.77-.74-2.53-2.05-3.09l5.1-1a2.55,2.55,0,0,0-.7,2.16l2.09,11a1.3,1.3,0,0,0,.48.93l-3.63.69a0.64,0.64,0,0,0,0-.38,3.08,3.08,0,0,0-.5-0.78l-6-8h0l1.26,6.62c0.34,1.77.74,2.53,2.05,3.09l-5.1,1a2.54,2.54,0,0,0,.7-2.16Z" transform="translate(-137.53 -185.45)"/>
  <path class="cls-1" d="M280.56,187a29,29,0,0,1,3,.17,1.9,1.9,0,0,0,1.21-.62l0.63,5.85s0,0,0,0a0.08,0.08,0,0,1,0,0c-1.41-2.24-2.73-3.31-4.25-3.15s-3.15,1.41-2.7,5.55c0.38,3.5,2.12,4.41,4,4.21a5.09,5.09,0,0,0,4-3.15h0.07c0.33,3.26-1,5.49-4.42,5.86-2.69.29-5.78-1.11-6.38-6.69C275.07,190.11,277.34,187.37,280.56,187Z" transform="translate(-137.53 -185.45)"/>
  <path class="cls-1" d="M296,188.08a2.54,2.54,0,0,0-1.16-1.95l9.7-.32a3,3,0,0,0,1.4-.35l0.16,4.75c-1.26-1.76-2.57-2.31-5-2.23-1.69.05-2.3,0.5-2.26,1.65l0.07,2c0.43,0,1,0,1.48,0,1.59-.05,2.74-0.28,3.48-1.37l0.15,4.53c-0.81-1-2-1.16-3.56-1.11-0.49,0-1.05.05-1.48,0.11l0.09,2.72c0,1.17.57,1.58,2.65,1.51a5.06,5.06,0,0,0,5-3.14l0.18,5.47a3.07,3.07,0,0,0-2-.38l-9.57.32a2.55,2.55,0,0,0,1-2Z" transform="translate(-137.53 -185.45)"/>
  <path class="cls-1" d="M330.89,188.8a3.38,3.38,0,0,0,1,.28c1.07,0.1,2.47-.58,2.57-1.72a0.91,0.91,0,0,0-.36-0.83l3.16,0.29a1.26,1.26,0,0,0-.5,1l-1,11a2.91,2.91,0,0,0,.83,2.52l-4.89-.45a2.18,2.18,0,0,0,1.25-1.9l0.7-7.65-2.31-.21a1.15,1.15,0,0,0-.68.13Z" transform="translate(-137.53 -185.45)"/>
  <path class="cls-1" d="M350.73,199a2.47,2.47,0,0,1,3-2c1.46,0.24,2.42,1.17,2.17,2.67a2.29,2.29,0,0,1-2.92,1.88C351.41,201.36,350.51,200.36,350.73,199Zm-2.89-.42c-0.36,2.18.4,4.41,4.8,5.14,3.92,0.65,5.76-1.41,6.14-3.65a3.57,3.57,0,0,0-1.74-3.64,3.34,3.34,0,0,0,2.27-2.76c0.38-2.29-1.15-4-4.22-4.55s-5.09.65-5.47,2.93a3.35,3.35,0,0,0,1.25,3.34A3.72,3.72,0,0,0,347.84,198.62Zm4.35-5.86a1.94,1.94,0,0,1,2.48-1.46c1.29,0.22,2.19.82,2,2.14a2,2,0,0,1-2.58,1.48A1.93,1.93,0,0,1,352.19,192.76Z" transform="translate(-137.53 -185.45)"/>
  <path class="cls-1" d="M373.52,202.7l-3.85-1,5.26-4.88h0Zm-7,.79a1.39,1.39,0,0,1,1,0l5.35,1.33-0.2.81a2.54,2.54,0,0,1-1.32,1.74l4.33,1.08a2.55,2.55,0,0,1-.35-2.16l0.2-.82,0.9,0.22a0.73,0.73,0,0,1,.58.42l0.84-3.38a1.75,1.75,0,0,1-1.79.63l1.93-7.75a1.42,1.42,0,0,1,.8-1l-4-1a0.59,0.59,0,0,1,0,.2,0.54,0.54,0,0,1-.21.31l-7.56,7.12Z" transform="translate(-137.53 -185.45)"/>
  <path class="cls-1" d="M389.48,197.36a2.05,2.05,0,0,0,1.07.86c1.08,0.37,1.86.13,3.75,0.77,3.23,1.1,3.7,3.12,3.15,4.75a3.29,3.29,0,0,1-2.84,2.3,3.61,3.61,0,0,1,1.14,4c-1,2.85-3.84,3.76-6.52,2.85-1.71-.58-2.34-1.44-3.38-1.79a2,2,0,0,0-1.64.09l1.82-5.36c1,3.25,2,4.34,3.31,4.8,1.71,0.58,3.22.12,3.77-1.49s-0.46-2.6-2.26-3.21a2.35,2.35,0,0,0-1.49-.14l0.87-2.56a2.91,2.91,0,0,0,1.24.75c1.24,0.42,2.83.42,3.27-.88,0.25-.74-0.08-1.69-1.51-2.18a5.88,5.88,0,0,0-5.36,1.23Z" transform="translate(-137.53 -185.45)"/>
  <path class="cls-1" d="M222,210.06c2.17,1.65,3.82,2.2,5.7,1.54,1.7-.59,2.14-1.75,1.79-2.73s-1-1.33-2.36-1.41l-3.13-.16a3.68,3.68,0,0,1-3.49-2.3c-0.79-2.24.68-4.49,3.39-5.44,1.34-.47,1.88-0.33,2.73-0.63a2.25,2.25,0,0,0,1.25-.91l1.6,4.56a4.73,4.73,0,0,0-4.68-1c-1.22.43-2,1.22-1.63,2.24,0.25,0.71.88,1,2.46,1l2.19,0a4,4,0,0,1,4.18,2.79c0.88,2.51-.53,4.92-3.39,5.92-1.38.48-2.86,0.48-3.55,0.72a2.8,2.8,0,0,0-1.23,1.1Z" transform="translate(-137.53 -185.45)"/>
  <path class="cls-1" d="M239.9,197a2.54,2.54,0,0,0-1.57-1.63l4.81-1.29a2.54,2.54,0,0,0-.54,2.2l2.65,9.86a2.54,2.54,0,0,0,1.57,1.63L242,209.05a2.54,2.54,0,0,0,.54-2.2Z" transform="translate(-137.53 -185.45)"/>
  <path class="cls-1" d="M254.18,193.46a2.54,2.54,0,0,0-1.45-1.75l4.91-.93a2,2,0,0,0,0,.52,2,2,0,0,0,.41.8l5.34,7.14h0l-1.11-5.86c-0.34-1.77-.74-2.53-2.05-3.09l5.1-1a2.55,2.55,0,0,0-.7,2.16l2.09,11a1.3,1.3,0,0,0,.48.93l-3.63.69a0.64,0.64,0,0,0,0-.38,3.08,3.08,0,0,0-.5-0.78l-6-8h0l1.26,6.62c0.34,1.77.74,2.53,2.05,3.09l-5.1,1a2.54,2.54,0,0,0,.7-2.16Z" transform="translate(-137.53 -185.45)"/>
  <path class="cls-1" d="M280.56,187a29,29,0,0,1,3,.17,1.9,1.9,0,0,0,1.21-.62l0.63,5.85s0,0,0,0a0.08,0.08,0,0,1,0,0c-1.41-2.24-2.73-3.31-4.25-3.15s-3.15,1.41-2.7,5.55c0.38,3.5,2.12,4.41,4,4.21a5.09,5.09,0,0,0,4-3.15h0.07c0.33,3.26-1,5.49-4.42,5.86-2.69.29-5.78-1.11-6.38-6.69C275.07,190.11,277.34,187.37,280.56,187Z" transform="translate(-137.53 -185.45)"/>
  <path class="cls-1" d="M296,188.08a2.54,2.54,0,0,0-1.16-1.95l9.7-.32a3,3,0,0,0,1.4-.35l0.16,4.75c-1.26-1.76-2.57-2.31-5-2.23-1.69.05-2.3,0.5-2.26,1.65l0.07,2c0.43,0,1,0,1.48,0,1.59-.05,2.74-0.28,3.48-1.37l0.15,4.53c-0.81-1-2-1.16-3.56-1.11-0.49,0-1.05.05-1.48,0.11l0.09,2.72c0,1.17.57,1.58,2.65,1.51a5.06,5.06,0,0,0,5-3.14l0.18,5.47a3.07,3.07,0,0,0-2-.38l-9.57.32a2.55,2.55,0,0,0,1-2Z" transform="translate(-137.53 -185.45)"/>
  <path class="cls-1" d="M330.89,188.8a3.38,3.38,0,0,0,1,.28c1.07,0.1,2.47-.58,2.57-1.72a0.91,0.91,0,0,0-.36-0.83l3.16,0.29a1.26,1.26,0,0,0-.5,1l-1,11a2.91,2.91,0,0,0,.83,2.52l-4.89-.45a2.18,2.18,0,0,0,1.25-1.9l0.7-7.65-2.31-.21a1.15,1.15,0,0,0-.68.13Z" transform="translate(-137.53 -185.45)"/>
  <path class="cls-1" d="M350.73,199a2.47,2.47,0,0,1,3-2c1.46,0.24,2.42,1.17,2.17,2.67a2.29,2.29,0,0,1-2.92,1.88C351.41,201.36,350.51,200.36,350.73,199Zm-2.89-.42c-0.36,2.18.4,4.41,4.8,5.14,3.92,0.65,5.76-1.41,6.14-3.65a3.57,3.57,0,0,0-1.74-3.64,3.34,3.34,0,0,0,2.27-2.76c0.38-2.29-1.15-4-4.22-4.55s-5.09.65-5.47,2.93a3.35,3.35,0,0,0,1.25,3.34A3.72,3.72,0,0,0,347.84,198.62Zm4.35-5.86a1.94,1.94,0,0,1,2.48-1.46c1.29,0.22,2.19.82,2,2.14a2,2,0,0,1-2.58,1.48A1.93,1.93,0,0,1,352.19,192.76Z" transform="translate(-137.53 -185.45)"/>
  <path class="cls-1" d="M373.52,202.7l-3.85-1,5.26-4.88h0Zm-7,.79a1.39,1.39,0,0,1,1,0l5.35,1.33-0.2.81a2.54,2.54,0,0,1-1.32,1.74l4.33,1.08a2.55,2.55,0,0,1-.35-2.16l0.2-.82,0.9,0.22a0.73,0.73,0,0,1,.58.42l0.84-3.38a1.75,1.75,0,0,1-1.79.63l1.93-7.75a1.42,1.42,0,0,1,.8-1l-4-1a0.59,0.59,0,0,1,0,.2,0.54,0.54,0,0,1-.21.31l-7.56,7.12Z" transform="translate(-137.53 -185.45)"/>
  <path class="cls-1" d="M389.48,197.36a2.05,2.05,0,0,0,1.07.86c1.08,0.37,1.86.13,3.75,0.77,3.23,1.1,3.7,3.12,3.15,4.75a3.29,3.29,0,0,1-2.84,2.3,3.61,3.61,0,0,1,1.14,4c-1,2.85-3.84,3.76-6.52,2.85-1.71-.58-2.34-1.44-3.38-1.79a2,2,0,0,0-1.64.09l1.82-5.36c1,3.25,2,4.34,3.31,4.8,1.71,0.58,3.22.12,3.77-1.49s-0.46-2.6-2.26-3.21a2.35,2.35,0,0,0-1.49-.14l0.87-2.56a2.91,2.91,0,0,0,1.24.75c1.24,0.42,2.83.42,3.27-.88,0.25-.74-0.08-1.69-1.51-2.18a5.88,5.88,0,0,0-5.36,1.23Z" transform="translate(-137.53 -185.45)"/>
  <path class="cls-2" d="M484.21,340.24a6.39,6.39,0,1,0,6.69,6.38A6.54,6.54,0,0,0,484.21,340.24Z" transform="translate(-137.53 -185.45)"/>
  <g>
    <path class="cls-3" d="M481.61,350H483v-2.63h1.69a0.73,0.73,0,0,1,.86.67c0,0.48,0,1,0,1.34a1.64,1.64,0,0,0,.19.62h1.54v-0.25a0.5,0.5,0,0,1-.26-0.55c0-.34,0-1.21-0.07-1.49a1.25,1.25,0,0,0-.78-0.92,1.63,1.63,0,0,0,1-1.05,2.12,2.12,0,0,0-.07-1.34,1.61,1.61,0,0,0-1.61-1.06h-3.87V350Zm1.43-5.52H485a0.71,0.71,0,0,1,.87.75,0.89,0.89,0,0,1-.85,1h-2v-1.75Z" transform="translate(-137.53 -185.45)"/>
    <path class="cls-3" d="M477.53,346.63a6.69,6.69,0,1,1,6.68,6.38A6.54,6.54,0,0,1,477.53,346.63Zm1,0a5.74,5.74,0,1,1,5.73,5.47A5.61,5.61,0,0,1,478.48,346.63Z" transform="translate(-137.53 -185.45)"/>
  </g>
  <g>
    <g>
      <path class="cls-2" d="M270.58,313.21c4.17-.26,6.34-2.93,6.4-16.58s-2.24-16.36-6.4-16.21c-3.84.25-6.43,2.76-6.48,10,0,5.44,0,10.6,0,16C264.15,311.11,266,313.36,270.58,313.21Z" transform="translate(-137.53 -185.45)"/>
      <path class="cls-4" d="M474.34,352.11c-48.85-12.43-106.79-19.63-168.92-19.63q-21,0-41.33,1.09v0.19a35.68,35.68,0,0,0,.3,4.39C323,335.73,396.69,337.67,474.34,352.11Z" transform="translate(-137.53 -185.45)"/>
      <path class="cls-4" d="M247.92,334.58c-39.93,2.95-77.24,8.9-110.39,17.27,0,0,43.27-9,110.12-12.87a36.54,36.54,0,0,0,.27-4.19v-0.2Z" transform="translate(-137.53 -185.45)"/>
    </g>
    <path class="cls-1" d="M313.11,288.27c0.14-6.78,1.93-10.07,6.39-10h0c3.86,0.14,5.65,3.49,5.79,10.27h0C321.17,288.38,317.23,288.31,313.11,288.27Zm-16.77,8c0.17,21,7.24,30,23.66,30.51h0c12.35,0.07,21.18-6.78,21.46-20.85h0c-5.19,3.68-12.4,6.09-17,6h0c-6-.2-10.58-3-11.18-11.09h0c8.32,0.08,16.26.28,24.57,0.64h0a10.34,10.34,0,0,1,3,.59h0c-0.27-29.72-8.09-37-21.47-37.46h0C305.73,264.52,296.55,273.83,296.34,296.23Z" transform="translate(-137.53 -185.45)"/>
    <path class="cls-3" d="M342.63,253.5h1.43v-2.64h1.69a0.73,0.73,0,0,1,.86.67c0,0.48,0,1,0,1.35a1.69,1.69,0,0,0,.19.62h1.54v-0.25a0.5,0.5,0,0,1-.27-0.55c0-.34,0-1.22-0.06-1.49a1.26,1.26,0,0,0-.78-0.92,1.63,1.63,0,0,0,1-1.05,2.11,2.11,0,0,0-.07-1.34,1.62,1.62,0,0,0-1.61-1.06h-3.88v6.67Zm1.43-5.53H346a0.71,0.71,0,0,1,.87.76,0.89,0.89,0,0,1-.85,1h-2V248Z" transform="translate(-137.53 -185.45)"/>
    <path class="cls-3" d="M338.53,250.17a6.71,6.71,0,1,1,6.69,6.4A6.55,6.55,0,0,1,338.53,250.17Zm1,0a5.75,5.75,0,1,1,5.74,5.49A5.62,5.62,0,0,1,339.49,250.17Z" transform="translate(-137.53 -185.45)"/>
    <path class="cls-1" d="M162.66,280.86c0-8.56,1.18-13.89,4.4-20.77-9.26,2.14-18.1,4.38-27.36,6.94,3.22,5,4.37,9.72,4.39,18.12v37.67c0,8.38-1.17,13.56-4.39,20.16,9.25-2,18.1-3.67,27.36-5.3-3.22-5.38-4.37-10.14-4.4-18.59V280.86Zm-16.42-14c4.87-1.27,9.66-2.46,14.59-3.63Zm-0.77,54.89V284c0-7.12-.84-11.71-3-16.16l1.2-.32,0.43,0.89c2.06,4.32,2.88,8.76,2.9,15.84V322c0,6.88-.81,11.64-2.79,16.8l-1.75.36C144.63,333.72,145.44,328.8,145.47,321.71Z" transform="translate(-137.53 -185.45)"/>
    <path class="cls-1" d="M223,329.78c8-.85,15.73-1.55,23.76-2.15-3-4.1-4.36-7.16-4.39-14.53V285.23c-0.1-11.61-5.23-17.09-14.87-16.07-5.17.67-10,3.83-13.58,8.07-3.61-4.68-8.6-5-14.18-4.18-7.39,1.25-11.79,4.73-14.18,10.46l-0.2,0v-8c-6.46,3.13-12.62,6.16-19.07,9.41a16.18,16.18,0,0,1,4.39,11.29v25.06a30.81,30.81,0,0,1-4.39,16.52c8-1.43,15.7-2.67,23.76-3.86-1.81-3.12-3.17-7.86-3.2-14.91V299c0.06-4.26,2.16-7.58,5.79-8.23s5.75,2.13,5.79,6.41v21c0,5.48-1.21,11.73-3.2,15,7.64-1.08,14.94-2,22.56-2.85-1.81-3.2-3.16-8-3.2-15.12V295c0-4.32,2.15-7.59,5.8-8.1s5.75,2.4,5.79,6.73v21.26C226.13,320.35,224.95,326.6,223,329.78Zm3.35-58.61,0.38,0A21.07,21.07,0,0,0,216.33,278a2,2,0,0,1-1.39.74,1.27,1.27,0,0,1-.75-0.22,3.19,3.19,0,0,0,.38-0.37C217.86,274.27,222.12,271.71,226.31,271.17Zm-39.62,12.36c2-4.82,5.6-7.46,11.87-8.51h0c-5.16,1.33-8.36,4-10.25,8.54a2.61,2.61,0,0,1-1.84,1.42,1.41,1.41,0,0,1-.86-0.14A3.11,3.11,0,0,0,186.69,283.53ZM172,320.27v-25.1A19.28,19.28,0,0,0,169.11,285c4.23-2.11,8.31-4.1,12.54-6.15v0.57l-11.35,5.54,0.5,0.79a18.55,18.55,0,0,1,2.79,9.81v25.11a35.3,35.3,0,0,1-2.48,13.15l-1.74.29A35.91,35.91,0,0,0,172,320.27Zm27.75-3V296.24c0-3.13-1-5.58-2.74-7.14a5.42,5.42,0,0,1,1.84,1c1.59,1.38,2.45,3.64,2.48,6.54V317.7a41.17,41.17,0,0,1-1.69,11.73l-1.71.22A42.33,42.33,0,0,0,199.78,317.31Zm25-31.95-0.11-.08a5.76,5.76,0,0,1,2,1.14c1.62,1.49,2.48,3.83,2.49,6.76v21.28a42,42,0,0,1-1.69,11.75l-1.71.16A42.5,42.5,0,0,0,227.53,314V292.74A9.72,9.72,0,0,0,224.75,285.36Z" transform="translate(-137.53 -185.45)"/>
    <path class="cls-1" d="M275.67,265.17c-5.26.28-10.27,2.44-12.87,7.64h-0.2V265.9c-6.46,2.46-12.62,4.86-19.07,7.46a19.48,19.48,0,0,1,4.39,12.31v49.1a36.54,36.54,0,0,1-.27,4.19,26,26,0,0,1-4.13,11.76c8.46-.66,16.51-1.17,25-1.58a23.1,23.1,0,0,1-4.09-11,35.68,35.68,0,0,1-.3-4.39v-8.93a16.38,16.38,0,0,0,9.88,2.45c13.47-.75,20.81-10,21-30.56C294.79,274.33,287.64,264.81,275.67,265.17Zm0.87,15c2.33,2.37,3.34,7.24,3.37,16.28,0,9.21-1,13.79-3.4,16.35a6.51,6.51,0,0,1-4.66,1.94h-0.33a7,7,0,0,0,3.19-1.87c2.59-2.73,3.61-7.35,3.64-16.94,0-9.39-1.08-14.28-3.63-16.87-0.05-.05-0.12-0.09-0.17-0.14A5.35,5.35,0,0,1,276.55,280.21Zm-12.45,26.13c0-5.35,0-10.51,0-16,0.06-7.22,2.64-9.73,6.48-10,4.16-.15,6.34,2.67,6.4,16.21s-2.23,16.33-6.4,16.58C266,313.36,264.15,311.11,264.09,306.34Zm-0.2-33c2.35-4.68,7.06-5.79,10.1-6a11.87,11.87,0,0,0-8.45,6.14,2.13,2.13,0,0,1-1.69,1.07,1.4,1.4,0,0,1-.82-0.24A2.73,2.73,0,0,0,263.89,273.29ZM249.29,334V284.9a22.69,22.69,0,0,0-2.91-11c4.23-1.68,8.28-3.25,12.55-4.87v0.51l-11.35,4.39,0.48,0.84a22.05,22.05,0,0,1,2.8,10.61V334.5a32.29,32.29,0,0,1-2.49,12.81l-1.74.12A32.84,32.84,0,0,0,249.29,334Z" transform="translate(-137.53 -185.45)"/>
    <g>
      <path class="cls-5" d="M306.22,319.83c-4.67-4.71-6.88-12.22-6.93-23.64s2.43-19.27,7.28-24.43a17.31,17.31,0,0,1,9.87-5.05,16.94,16.94,0,0,0-11.68,5.07c-4.69,5-7,12.82-7,23.85,0,11.19,2.24,18.55,6.68,23a16,16,0,0,0,3.3,2.44A17.33,17.33,0,0,1,306.22,319.83Z" transform="translate(-137.53 -185.45)"/>
      <path class="cls-5" d="M323.39,277.11c1.8,1.81,3.14,5.08,3.28,10.84a2.29,2.29,0,0,1-1.39,2.25l1.35,0a1.57,1.57,0,0,0,1.13-.43,1.76,1.76,0,0,0,.48-1.21C328.08,282.22,326.47,278.46,323.39,277.11Z" transform="translate(-137.53 -185.45)"/>
      <path class="cls-5" d="M326.81,313.56A31.32,31.32,0,0,0,337,311c0.08-.3.17-0.59,0.24-0.89A38.5,38.5,0,0,1,326.81,313.56Z" transform="translate(-137.53 -185.45)"/>
    </g>
    <path class="cls-1" d="M376.41,269.53c-2.13-.26-4.07-1.7-6.19-1.93-5-.43-7,1.89-10,8.84l-0.2,0v-9.73c-6.45,1.49-12.61,3-19.07,4.69a22.56,22.56,0,0,1,4.39,13c0,8.9,0,17.28,0,25.93,0,7.41-2,12.53-4.39,15.85,8.44,0.38,16.5.86,25,1.51-2.41-3.61-4.36-9-4.39-16.35v-19c0.07-7.19,3.24-9.62,6.59-9.37,4.65,0.47,7.14,3.87,10.68,8.46V269.19A10.46,10.46,0,0,1,376.41,269.53Zm-15,7.52c3-7.07,4.53-7.68,7.53-7.43-2.12.57-3.66,2.57-5.9,7.79a1.65,1.65,0,0,1-1.63.85,1.73,1.73,0,0,1-.79-0.31A2.14,2.14,0,0,0,361.42,277Zm-14.68,32.83c0-8.64,0-17,0-25.92a25.43,25.43,0,0,0-2.91-11.46c4.25-1.08,8.29-2.07,12.54-3.07v0.39L345,272.58l0.5,0.95a24.81,24.81,0,0,1,2.82,11.09v25.91a32.39,32.39,0,0,1-2.52,12.9l-1.72-.1A32.79,32.79,0,0,0,346.73,309.88Zm27-27a13,13,0,0,1,1.35.92v0.33C374.7,283.63,374.24,283.22,373.78,282.83Z" transform="translate(-137.53 -185.45)"/>
    <path class="cls-1" d="M377.81,328.66c8.45,0.77,16.51,1.64,25,2.67-2.41-3.7-4.36-9.12-4.4-16.46,0-14.6,0-28.81,0-43.94-7,.93-13.61,1.94-20.56,3.11,2.4,2.68,4.35,7.4,4.39,17v22C382.16,320.46,380.21,325.46,377.81,328.66Zm3-53.21c4.7-.77,9.18-1.44,13.88-2.09v0.25L382,275.5l0.5,1c1.8,3.76,2.64,8.52,2.67,15v22a30.61,30.61,0,0,1-2.52,12.73l-1.71-.18a31.17,31.17,0,0,0,2.66-13.26v-22C383.55,284.18,382.66,279.28,380.83,275.46Z" transform="translate(-137.53 -185.45)"/>
    <path class="cls-1" d="M390.29,249.2c-6-.78-10.11,1.6-10.19,8,0.08,6.43,4.2,9.69,10.19,10.51s10.09-1.44,10.18-7.78C400.38,253.6,396.27,250.1,390.29,249.2Zm-8.81,7.75a5.86,5.86,0,0,1,1.58-4.46,6.76,6.76,0,0,1,5-1.31,6.26,6.26,0,0,0-3.19,1.42,6.64,6.64,0,0,0-1.86,5.07,8.13,8.13,0,0,0,1.78,5.38l0,0c0.1,0.11.22,0.19,0.33,0.3A6.47,6.47,0,0,1,381.48,256.95Z" transform="translate(-137.53 -185.45)"/>
    <path class="cls-1" d="M444.7,326.85V294.6c-0.15-11.19-7.42-17.07-19.17-19.3-5.87-1-9.31-.39-14.18-1.14a21.16,21.16,0,0,1-4.49-1.28v24.46c7.06-8.73,12.81-9.93,17.67-9.16a4.84,4.84,0,0,1,4.3,4.95c-0.55,8.92-26.41,2.75-27,22.74,0.12,10.53,5.45,17.08,15.08,18.55,5.27,0.71,10.4-.11,13.67-3.17,0.63,2,2.58,4.37,4.19,4.67,4.59,0.75,9,1.5,13.58,2.33A20.46,20.46,0,0,1,444.7,326.85Zm-36.47-36.73c0-4.86,0-9.52,0-14.43,0.54,0.13,1.06.26,1.58,0.36v12.81C409.27,289.25,408.75,289.66,408.23,290.12Zm-5,25.49C403.4,305.28,411.6,303,419.16,301c5.77-1.52,10.92-2.74,11-8a7.82,7.82,0,0,0-1.87-5.15c-0.09-.11-0.2-0.19-0.3-0.29a7.21,7.21,0,0,1,2.08,1.64,7.08,7.08,0,0,1,1.67,4.61c-0.1,4.22-3.83,5.41-9.92,7l-0.46.12c-7.3,1.91-16.39,4.3-16.58,15.42,0,5.06,1.38,9.12,4,12.07,0.31,0.34.67,0.61,1,.91a12.76,12.76,0,0,1-2.79-2.22Q403.3,322.92,403.24,315.61Zm19.1,6.22a5.41,5.41,0,0,1-4.3-5.57c0.16-5.24,7.18-6,10.28-8.87l0.2,0v8.31C428.48,320.63,425.88,322.33,422.34,321.83Zm9.13-5.47c0,2.83-.79,4.83-2.35,6.11a6.44,6.44,0,0,1-4.85,1.19,6.65,6.65,0,0,0,3-1.33c1.22-1,2.62-2.89,2.65-6.76v-8.3a2.85,2.85,0,0,0-.35-1.28l0.21,0a2.22,2.22,0,0,1,1.7,2.05v8.28Zm0.42,14a2.84,2.84,0,0,0-.22-0.49,1.87,1.87,0,0,1,.47.1,2.23,2.23,0,0,1,1.35,1.41,6,6,0,0,0,.87,1.65l-0.6-.1A5.63,5.63,0,0,1,431.89,330.35Z" transform="translate(-137.53 -185.45)"/>
    <path class="cls-1" d="M447.49,338.09c8.44,1.51,16.51,3.1,25,4.88a31.38,31.38,0,0,1-4.39-16.52V264.18c-7-.09-13.61,0-20.57.21,2.39,2.88,4.34,7.66,4.39,17V323.2C451.85,330.39,449.9,335.15,447.49,338.09Zm3-71.84c4.69-.13,9.18-0.18,13.88-0.16v0.09l-12.8.12,0.57,1.2c1.79,3.83,2.64,8.52,2.66,14.75v41.69a27.88,27.88,0,0,1-2.53,12.26l-1.7-.32a28.86,28.86,0,0,0,2.67-12.77V281.37C453.24,275,452.34,270.17,450.52,266.25Z" transform="translate(-137.53 -185.45)"/>
    <path class="cls-1" d="M212.91,364.38c0.09-4.61,3.85-6.6,7.49-7,8.12-.69,14.9,8.05,18.87,14.3,0-9.95,0-19.61,0-29.9a5.56,5.56,0,0,1-4,2c-3.86.31-9.46-.76-17.06,0.05-13.78,1.67-24.25,10.26-24.46,26.1,0.6,22.12,29.76,18,30.34,28.19-0.06,5.17-3.32,8.3-8.29,9-6.69.76-15.78-3.13-21.17-14V423a10.59,10.59,0,0,1,5.2-2.1c3-.45,9.57.6,17.47-0.43,14.79-2.17,25.73-10.57,26-27C242.66,369.12,213.53,376.6,212.91,364.38Zm16.29-7.08a25.38,25.38,0,0,1,6.4,5v0.94A33.19,33.19,0,0,0,229.2,357.29ZM195.12,369c0.05-6.46,1.9-11.61,5.68-15.78,3.72-4,8.77-6.44,15.12-7.39A25.28,25.28,0,0,0,202.6,353c-3.93,4.33-5.86,9.67-5.91,16.33,0.12,7.32,3.69,11.49,8.35,14.34C199.59,380.94,195.26,376.93,195.12,369Zm27.22,36.19a11,11,0,0,0,3.13-7.93c-0.06-2.87-1.65-4.85-4.06-6.43,3.29,1.64,5.56,3.64,5.64,6.88a10.09,10.09,0,0,1-2.89,7.32,12.14,12.14,0,0,1-7.14,3.34h-0.23A12.4,12.4,0,0,0,222.34,405.17ZM196,401c0.51,0.55,1,1.07,1.57,1.56v15.73c-0.54.13-1.06,0.27-1.57,0.43V401Z" transform="translate(-137.53 -185.45)"/>
    <path class="cls-1" d="M290,400V360.29c-6.55.13-12.82,0.33-19.37,0.63,1.81,3.2,3.17,7.94,3.19,14.59v18.57c0,3.87-2.14,6.59-5.79,6.84s-5.75-2.37-5.79-6.24V361.34c-7,.38-13.61.84-20.56,1.41,3,3.93,4.36,6.9,4.38,13.78v25.28c0.11,10.22,5.24,14.64,14.88,14.09,5-.37,9.61-2.46,14.28-5.52,0,1.84,1.53,3.49,5,3.4,4.79-.18,9.38-0.32,14.18-0.4C291.35,409.58,290,406.79,290,400Zm-17.59.33a9.34,9.34,0,0,0,2.79-6.92V374.83a35.41,35.41,0,0,0-2-12.28l1.32,0,0.3,0.85a35.75,35.75,0,0,1,1.9,12v18.55a8.43,8.43,0,0,1-2.53,6.3,7.74,7.74,0,0,1-4.94,2h-0.37A8.42,8.42,0,0,0,272.4,400.3Zm-25,.73V375.76c0-5.4-.83-8.56-2.48-11.57l1.14-.08,0.53,1c1.69,3.07,2.36,6.21,2.38,11.18V401.5c0,5,1.33,8.48,4,10.67a8.7,8.7,0,0,1-1.85-1.1C248.66,409.05,247.46,405.82,247.43,401Zm29.15,8.67a1.91,1.91,0,0,0-.15-0.71,1.85,1.85,0,0,1,.92.12,1.21,1.21,0,0,1,.81,1.12,1.89,1.89,0,0,0,.16.76,2.52,2.52,0,0,1-1.33-.45A1,1,0,0,1,276.58,409.7Z" transform="translate(-137.53 -185.45)"/>
    <path class="cls-1" d="M329.42,360.46a7.91,7.91,0,0,0-2.39,5h-0.21c-2.77-4.61-6.41-6.36-11.87-6.45-16.21.07-22.33,12.19-22.46,27.89,0.14,22.72,7.31,27.31,19.27,27.52,3.44,0,8.09-.85,11.08-4.6H323c0,1.19,0,2.32,0,3.5-0.06,6.67-2.77,9.79-11.38,9.79-4.35-.09-10.58-2.61-15.38-7.64v18.19a5.87,5.87,0,0,1,3.5-1.21c2.42,0,7.65,1.59,17.57,1.81,15,0.1,22-7.75,22.16-25.55V373.22c0-5.91,1.78-9.58,4.4-12.2C339,360.79,334.3,360.62,329.42,360.46Zm-12.58,41.34c-4.15-.12-6.33-2.45-6.39-14.53,0.05-11.36,2.23-14.8,7.09-14.8,3.84,0.1,5.77,2.38,5.79,6.75v14.33C323.28,399.92,320.68,401.82,316.83,401.81Zm6.71-.3a7.77,7.77,0,0,1-5.36,1.67,7.88,7.88,0,0,0,3.51-1.65c2-1.79,3-4.44,3-8.49V378.72c0-3-.85-5.29-2.51-6.94a6.55,6.55,0,0,1,1.77,1.14c1.53,1.47,2.29,3.57,2.31,6.4v14.32C326.25,397.45,325.41,399.87,323.55,401.51Zm4.86-36.57a5.29,5.29,0,0,1,1.09-2.65l1.77,0.06,0,0.06a6.15,6.15,0,0,0-1.26,3.13,1.66,1.66,0,0,1-1.81,1.41,1.81,1.81,0,0,1-.82-0.23A2.21,2.21,0,0,0,328.41,364.94Zm-34.55,21.32c0.05-9.48,2.42-16.59,7-21A17.25,17.25,0,0,1,312,360.83a17.37,17.37,0,0,0-9.23,4.37c-4.8,4.58-7.26,11.85-7.32,21.61,0.06,11.89,2,18.94,6.43,22.87,0.12,0.1.25,0.19,0.37,0.28a11.45,11.45,0,0,1-2.23-1.48C295.87,404.81,293.9,398,293.85,386.26Zm27.07,35.63c2.36-2,3.45-4.83,3.48-9.1v-3.5a2,2,0,0,0-.17-0.8h0.11a1.57,1.57,0,0,1,1.64,1.42v3.49c0,4-1,6.61-3.17,8.45-1.82,1.48-4.24,2.26-7.65,2.46A12.07,12.07,0,0,0,320.93,421.88Zm-23.27,7.93V420q0.78,0.53,1.57,1v8.71l-0.6,0Z" transform="translate(-137.53 -185.45)"/>
    <path class="cls-1" d="M385.82,408.09v-30.3c-0.14-10.61-7.42-15.53-19.16-16.53-5.89-.43-9.33.48-14.18,0.23a20.81,20.81,0,0,1-4.49-.79v22.53c7.06-8.5,12.81-10.15,17.67-9.81,2.43,0.21,4.26,1.58,4.3,4.27-0.53,8.36-26.43,4.63-27,22.76,0.11,9.54,5.45,15.09,15.08,16,5.27,0.39,10.41-.59,13.67-3.55,0.63,1.81,2.57,3.87,4.19,4.08,4.6,0.47,9,1,13.58,1.55A17.26,17.26,0,0,1,385.82,408.09Zm-36.46-31.72V363c0.53,0.08,1.05.14,1.58,0.19l0,0.46v11.39C350.41,375.49,349.89,375.91,349.36,376.37Zm-5,23.63c0.17-9.38,8.36-12.05,15.92-14.43,5.77-1.8,10.94-3.32,11-8.24a6.49,6.49,0,0,0-1.82-4.61,6.25,6.25,0,0,1,1.76,1.21,5.61,5.61,0,0,1,1.62,4.08c-0.08,4-3.89,5.38-10.09,7.31l-0.33.1c-7.29,2.29-16.36,5.13-16.54,15.21,0,4.62,1.39,8.26,4.05,10.81,0.12,0.11.27,0.2,0.4,0.31a11.66,11.66,0,0,1-2.22-1.57C345.67,407.8,344.4,404.42,344.37,400Zm19.09,4.66a4.7,4.7,0,0,1-4.29-4.84c0.14-4.8,7.17-5.95,10.28-8.81l0.2,0v7.69C369.6,403.22,367,404.91,363.46,404.66Zm9.14-5.61a7.08,7.08,0,0,1-2.34,5.73,7.3,7.3,0,0,1-5.08,1.37,7.42,7.42,0,0,0,3.19-1.41c1.22-1,2.63-2.81,2.65-6.38v-7.69a2.36,2.36,0,0,0-.25-1H371a1.8,1.8,0,0,1,1.63,1.67v7.68Zm0.41,12.8a2.36,2.36,0,0,0-.13-0.26,2,2,0,0,1,.46.07,1.88,1.88,0,0,1,1.28,1.16,5.18,5.18,0,0,0,.8,1.37l-0.52-.06A4.82,4.82,0,0,1,373,411.86Z" transform="translate(-137.53 -185.45)"/>
    <path class="cls-1" d="M422.07,368.65c-2.13-.33-4.07-1.76-6.19-2.08-5-.65-7,1.37-10,7.54l-0.2,0v-8.86c-6.46,1-12.61,2.07-19.06,3.22a20.21,20.21,0,0,1,4.39,12V404c0,6.74-2,11.25-4.39,14.09,8.43,1,16.5,2.13,25,3.47a27.56,27.56,0,0,1-4.39-15.45V388.73c0.06-6.58,3.23-8.6,6.6-8.19,4.64,0.71,7.13,4,10.67,8.44V368.46A10.89,10.89,0,0,1,422.07,368.65Zm-15,6.1c2.79-5.84,4.25-6.76,7.36-6.41-2.16.53-3.62,2.44-5.71,6.8a1.6,1.6,0,0,1-1.59.62,2.06,2.06,0,0,1-.78-0.29A1.91,1.91,0,0,0,407.07,374.75Zm-14.68,29V380.18a22.15,22.15,0,0,0-2.92-10.56c4.25-.74,8.32-1.42,12.55-2.1v0.27l-11.46,1.9,0.58,1A21.64,21.64,0,0,1,394,380.91V404.5a25.58,25.58,0,0,1-2.51,11.56l-1.72-.23A26.19,26.19,0,0,0,392.39,403.77ZM419.71,381c0.37,0.23.73,0.49,1.09,0.77V382C420.44,381.63,420.08,381.3,419.71,381Z" transform="translate(-137.53 -185.45)"/>
    <path class="cls-1" d="M345.89,229c-0.37-4.74-2.66-6.55-4.51-7.23-3.18-1.18-7.25.19-9.62,2.25a6.57,6.57,0,0,0-3.61-3.27c-3.35-1.13-7.41.93-11,2.75h0c-0.85,0-1.75.06-2.7,0.15a4.77,4.77,0,0,0-2.46-3,0.61,0.61,0,0,1-.26-0.5,0.58,0.58,0,0,1,.33-0.51,4.16,4.16,0,0,0,.11-8.19,4.53,4.53,0,0,0-8.78,0,4.16,4.16,0,0,0-.27,8.11,0.64,0.64,0,0,1,.41.6,0.67,0.67,0,0,1-.18.47,5,5,0,0,0-2.6,3c-1-.11-2-0.17-2.93-0.17h0c-3.59-1.82-7.65-3.88-11-2.75a6.57,6.57,0,0,0-3.61,3.27c-2.37-2.07-6.43-3.43-9.62-2.25-1.86.69-4.15,2.5-4.51,7.23-0.42,5.42,4.54,6.85,7.37,7.6a22.84,22.84,0,0,0,1.86,2.95c0.28,0.38.93,1.13,1.74,2.08,1.32,1.53,3.05,3.54,3.89,4.78h-2.66a1.29,1.29,0,0,0-1.28,1.28v1.52c0,2,3.94,6.31,5,6.31h45.44c1.09,0,5-4.28,5-6.39v-1.44a1.29,1.29,0,0,0-1.28-1.28H331c0.83-1.23,2.55-3.22,3.86-4.75,0.83-1,1.49-1.73,1.77-2.11a22.48,22.48,0,0,0,1.87-2.95C341.35,235.81,346.31,234.38,345.89,229Zm-13,20.25-0.24.66H282.49l-0.09-.65,0.32-.06h49.92Zm5.41-22a4.33,4.33,0,0,0-3.52-1.69,5.62,5.62,0,0,0-1,.09,4.37,4.37,0,0,1,4.39-1.57,6.13,6.13,0,0,1,4.24,5,3.71,3.71,0,0,1-2,3.93c-0.22.12-.44,0.23-0.68,0.33A7.18,7.18,0,0,0,338.3,227.19Zm-3.59,10.33c-0.92,1.24-2,2.44-3,3.62a31.52,31.52,0,0,0-3.14,3.93C327.84,240.11,330.7,238.59,334.71,237.52Zm-48.34,7.55a31.64,31.64,0,0,0-3.15-3.93c-1-1.17-2.1-2.38-3-3.61C284.22,238.59,287.07,240.11,286.37,245.06Zm-11.19-11.8c-0.24-.11-0.46-0.22-0.68-0.33a3.71,3.71,0,0,1-2-3.93,6.14,6.14,0,0,1,4.24-5,4.1,4.1,0,0,1,1-.12,4.64,4.64,0,0,1,3.42,1.68,4.53,4.53,0,0,0-4.52,1.61A7.17,7.17,0,0,0,275.19,233.26Zm3.6-4.37c0.81-1,2.1-.63,2.93-0.2-0.14,3.62,3.06,4.77,5.75,5.66a29.69,29.69,0,0,0,5.58,9.43c0.43,0.51.79,0.93,1.06,1.23a13.21,13.21,0,0,0-.06,1.36h-5.09c1.84-8.91-4-10.39-9.25-11.71l-1.42-.37A5,5,0,0,1,278.78,228.9Zm8.93-1.17a7.26,7.26,0,0,0-.79,3.69c-1.88-.75-2.91-1.84-2.14-4.22,0.66-2,1.54-3.26,2.7-3.76s2.86-.19,4.77.63A7,7,0,0,0,287.72,227.72ZM300.36,229l0,0.3a18.51,18.51,0,0,0,1.19,4.9l-0.4.18a11.2,11.2,0,0,0-3.68,2.27c-1.31-2.11-3.36-2.85-5.7-3.71l-0.49-.18a3.56,3.56,0,0,1-.46-0.21,3.94,3.94,0,0,0-.56-0.24c-0.29-1.67-.09-2.82.62-3.61,1.2-1.34,4.06-1.8,8.75-1.39l0.6,0.06A8.53,8.53,0,0,0,300.36,229Zm14.5-1.65,0.24,0h0.15c4.67-.4,7.54.05,8.74,1.39,0.71,0.79.91,1.94,0.62,3.61a3.72,3.72,0,0,0-.55.24,3.55,3.55,0,0,1-.46.21l-0.49.18c-2.35.85-4.4,1.6-5.71,3.71a10.9,10.9,0,0,0-3.5-2.18l-0.46-.21a17.69,17.69,0,0,0,1.3-5.3l0-.38A7.09,7.09,0,0,0,314.86,227.33ZM328,231.41a7.27,7.27,0,0,0-.79-3.69,7,7,0,0,0-4.55-3.67c1.91-.82,3.48-1.18,4.77-0.63s2,1.73,2.7,3.76C330.9,229.57,329.87,230.65,328,231.41Zm-14.23,12.3a6.31,6.31,0,0,0-.3-1.95,5.58,5.58,0,0,1,3.66,4.61h-3.94A6.32,6.32,0,0,0,313.77,243.71ZM324,235.55a28.48,28.48,0,0,1-4,6.16,13.59,13.59,0,0,0-.82-1.8C320.07,237.6,322,236.4,324,235.55Zm-28.37,4.37a13.37,13.37,0,0,0-.81,1.8,28.44,28.44,0,0,1-4-6.16C292.94,236.4,294.84,237.6,295.68,239.92Zm6.06,6.46h-3.94a5.59,5.59,0,0,1,3.66-4.61,6.21,6.21,0,0,0-.31,1.95A6.27,6.27,0,0,0,301.74,246.37ZM305.5,242a5.49,5.49,0,0,1,1.64,1.23l0.32,0.35,0.32-.35a5.46,5.46,0,0,1,1.64-1.23,2.56,2.56,0,0,1,.64,1.7,2.6,2.6,0,1,1-5.2,0A2.56,2.56,0,0,1,305.5,242Zm3-3.65-0.28.11v0.3a2.06,2.06,0,0,1-.77,1,3,3,0,0,1-.8-1v-0.3l-0.28-.11a9,9,0,0,0-5.58-.28,10.88,10.88,0,0,1,5.53-1.8l0.3,0,0.08-.29c0.18-.65.4-0.65,0.74-0.65s0.55,0,.74.65l0.08,0.29,0.3,0a10.87,10.87,0,0,1,5.53,1.81A9.08,9.08,0,0,0,308.52,238.36Zm2.67-6.6c0,1-1.6,1.92-3.48,2s-3.47-.93-3.5-2v-8.06h7v8ZM326,246.38l-5.08,0a13.89,13.89,0,0,0-.07-1.39c0.27-.3.63-0.72,1.06-1.23a29.63,29.63,0,0,0,5.58-9.43c2.69-.89,5.89-2,5.75-5.66,0.83-.42,2.12-0.82,2.93.2a5,5,0,0,1,.5,5.4l-1.42.37C330,236,324.13,237.46,326,246.38Zm-16.63-30.26a1.84,1.84,0,0,1-3.25.11l-0.35-.5-0.35.49a1.44,1.44,0,0,1-1.16.63,1.46,1.46,0,0,1-1.46-1.46A1.44,1.44,0,0,1,304.1,214l0.11,0a7.3,7.3,0,0,1,1-.28l0.28-.06,0-.29c0.23-1.44,1.15-2.49,2.17-2.49s1.94,1,2.18,2.45l0,0.29,0.29,0.06a6.75,6.75,0,0,1,1.16.33l0.11,0a1.43,1.43,0,0,1,1.3,1.42,1.46,1.46,0,0,1-1.46,1.46,1.43,1.43,0,0,1-1.22-.73l-0.36-.59Z" transform="translate(-137.53 -185.45)"/>
  </g>
</svg>
