<svg id="Capa_1" data-name="Capa 1" xmlns="http://www.w3.org/2000/svg" viewBox="0 0 402.04 402">
  <defs>
    <style>
      .cls-1 {
        fill: #fff;
      }
    </style>
  </defs>
  <title>rss-symbol</title>
  <g>
    <path class="cls-1" d="M54.82,292.38q-22.84,0-38.83,16T0,347.2Q0,370,16,386t38.83,16q22.84,0,38.83-16t16-38.83q0-22.84-16-38.83T54.82,292.38Z" transform="translate(0 -0.02)"/>
    <path class="cls-1" d="M181,221a252.44,252.44,0,0,0-73.95-51.82,256,256,0,0,0-87.37-23H18.27A16.63,16.63,0,0,0,6,151.06a16.82,16.82,0,0,0-6,13.42V203a17.56,17.56,0,0,0,4.71,12.28A17.34,17.34,0,0,0,16.56,221q65.38,6.28,111.77,52.68T181,385.45A17.85,17.85,0,0,0,199,402h38.54A16.81,16.81,0,0,0,251,396a17.31,17.31,0,0,0,4.86-13.71,256.12,256.12,0,0,0-23-87.36A252.46,252.46,0,0,0,181,221Z" transform="translate(0 -0.02)"/>
    <path class="cls-1" d="M367.73,239.7a400.27,400.27,0,0,0-83.94-121.48A400.24,400.24,0,0,0,162.31,34.28,396.2,396.2,0,0,0,19.13,0H18.27A17.09,17.09,0,0,0,5.71,5.16,16.88,16.88,0,0,0,0,18.29V59.12A17.49,17.49,0,0,0,5,71.54a17.08,17.08,0,0,0,12.13,5.57,323.48,323.48,0,0,1,116.63,29.13q55.25,25.41,95.93,66.09t66.09,95.93a319.16,319.16,0,0,1,28.84,116.63A17.11,17.11,0,0,0,330.18,397a17.86,17.86,0,0,0,12.71,5h40.82a16.87,16.87,0,0,0,13.13-5.71A16.52,16.52,0,0,0,402,382.89,396.16,396.16,0,0,0,367.73,239.7Z" transform="translate(0 -0.02)"/>
  </g>
</svg>
