<?xml version="1.0" encoding="UTF-8" standalone="no"?>
<svg width="67px" height="58px" viewBox="0 0 67 58" version="1.1" xmlns="http://www.w3.org/2000/svg" xmlns:xlink="http://www.w3.org/1999/xlink">
    <!-- Generator: Sketch 3.8.3 (29802) - http://www.bohemiancoding.com/sketch -->
    <title>Shape</title>
    <desc>Created with Sketch.</desc>
    <defs></defs>
    <g id="Contests-&amp;-Coupons" stroke="none" stroke-width="1" fill="none" fill-rule="evenodd">
        <g id="Desktop---Coupons-logged-out" transform="translate(-688.000000, -228.000000)" fill="#FF7F40">
            <path d="M711.523557,259.259106 L701.33336,259.259106 C695.992715,259.259106 691.450098,263.587944 691.511484,268.865235 C691.536039,271.078293 692.334066,273.108956 693.635465,274.71403 L692.763773,276.112391 C692.125352,277.145962 692.284957,278.483524 693.144371,279.3347 C694.175668,280.356111 695.857664,280.356111 696.888961,279.3347 L698.386797,277.851222 C699.540868,278.191692 700.78088,278.313289 702.070001,278.191692 C706.207466,277.790424 709.6574,274.689711 710.49226,270.652705 C710.786916,269.230025 710.737807,267.855984 710.430873,266.56706 L712.297029,266.56706 C713.40199,266.56706 714.482397,266.202271 715.366366,265.533489 L751.510869,237.906748 C750.982943,236.885337 750.246303,236.034161 749.386889,235.37754 C746.69815,233.371196 742.941282,233.60223 740.375317,235.742329 L724.034171,249.434103 L715.366366,242.80709 C714.494674,242.138309 713.414268,241.773519 712.297029,241.773519 L710.430873,241.773519 C710.737807,240.496755 710.786916,239.122714 710.49226,237.687875 C709.6574,233.650868 706.207466,230.550156 702.070001,230.148887 C696.373313,229.589543 691.572871,233.979179 691.511484,239.487504 C691.450098,244.776955 695.992715,249.093633 701.33336,249.093633 L711.523557,249.093633 C712.026928,249.093633 712.518022,249.276028 712.910897,249.592179 L718.374315,254.17637 L712.910897,258.76056 C712.518022,259.088871 712.026928,259.259106 711.523557,259.259106 L711.523557,259.259106 Z M701.100091,273.060317 C698.693731,273.060317 696.753911,271.126932 696.753911,268.755799 C696.753911,266.372506 698.706008,264.45128 701.100091,264.45128 C703.50645,264.45128 705.446271,266.384665 705.446271,268.755799 C705.446271,271.139091 703.494173,273.060317 701.100091,273.060317 L701.100091,273.060317 Z M701.100091,243.913619 C698.693731,243.913619 696.753911,241.980234 696.753911,239.6091 C696.753911,237.237967 698.693731,235.292422 701.100091,235.292422 C703.50645,235.292422 705.446271,237.225808 705.446271,239.596941 C705.446271,241.968074 703.494173,243.913619 701.100091,243.913619 L701.100091,243.913619 Z M733.156239,256.511024 L751.498592,270.433831 C751.04433,271.333646 750.418186,272.099704 749.693822,272.707687 C747.017361,274.957224 743.039501,274.835627 740.350763,272.59825 L726.833406,261.338408 L733.156239,256.511024 L733.156239,256.511024 Z" id="Shape" transform="translate(721.510869, 255.100759) rotate(-14.000000) translate(-721.510869, -255.100759) "></path>
        </g>
    </g>
</svg>