<?xml version="1.0" encoding="UTF-8" standalone="no"?>
<svg width="45px" height="45px" viewBox="0 0 45 45" version="1.1" xmlns="http://www.w3.org/2000/svg" xmlns:xlink="http://www.w3.org/1999/xlink">
    <!-- Generator: Sketch 3.8.3 (29802) - http://www.bohemiancoding.com/sketch -->
    <title>scl-fb-active</title>
    <desc>Created with Sketch.</desc>
    <defs></defs>
    <g id="Symbols" stroke="none" stroke-width="1" fill="none" fill-rule="evenodd">
        <g id="scl-fb-active">
            <rect id="Rectangle-355" fill="#1C3262" x="0" y="0" width="45" height="45" rx="22.5"></rect>
            <path d="M16.5,18.6483854 L19.129214,18.6483854 L19.129214,16.1734117 C19.129214,15.0810284 19.1574775,13.3972797 19.9757065,12.3541769 C20.8384504,11.250158 22.0219854,10.5 24.058372,10.5 C27.3758028,10.5 28.7727273,10.9578975 28.7727273,10.9578975 L28.1148938,14.732643 C28.1148938,14.732643 27.0196824,14.4246402 25.9972495,14.4246402 C24.9741101,14.4246402 24.058372,14.7798701 24.058372,15.7702703 L24.058372,18.6483854 L28.2519719,18.6483854 L27.9594445,22.3348368 L24.058372,22.3348368 L24.058372,35.1402246 L19.129214,35.1402246 L19.129214,22.3348368 L16.5,22.3348368 L16.5,18.6483854" id="Fill-3" fill="#FFFFFF"></path>
        </g>
    </g>
</svg>