<?xml version="1.0" encoding="UTF-8" standalone="no"?>
<svg width="45px" height="45px" viewBox="0 0 45 45" version="1.1" xmlns="http://www.w3.org/2000/svg" xmlns:xlink="http://www.w3.org/1999/xlink">
    <!-- Generator: Sketch 3.8.3 (29802) - http://www.bohemiancoding.com/sketch -->
    <title>scl-ig</title>
    <desc>Created with Sketch.</desc>
    <defs>
        <rect id="path-1" x="0" y="0" width="45" height="45" rx="22.5"></rect>
    </defs>
    <g id="Symbols" stroke="none" stroke-width="1" fill="none" fill-rule="evenodd">
        <g id="scl-ig">
            <mask id="mask-2" fill="white">
                <use xlink:href="#path-1"></use>
            </mask>
            <use id="Mask" fill="#A73C8E" xlink:href="#path-1"></use>
            <path d="M22.5,11.4359464 C26.1035357,11.4359464 26.5303393,11.4497143 27.9535714,11.5146429 C29.2693929,11.5746964 29.9839286,11.7945 30.4595357,11.9793214 C31.0457191,12.1956707 31.5759633,12.5406424 32.0112857,12.988875 C32.4595183,13.4241974 32.80449,13.9544416 33.0208393,14.540625 C33.2056607,15.0161786 33.4255179,15.7307679 33.4855179,17.0465893 C33.5504464,18.4697143 33.5642143,18.8965179 33.5642143,22.5001607 C33.5642143,26.1038036 33.5504464,26.5305 33.4855179,27.9537321 C33.4254643,29.2695536 33.2056071,29.9840893 33.0208393,30.4596964 C32.566815,31.6366832 31.6365225,32.5669757 30.4595357,33.021 C29.9839821,33.2058214 29.2693929,33.4256786 27.9535714,33.4856786 C26.5307143,33.5506071 26.1039107,33.564375 22.5,33.564375 C18.8960893,33.564375 18.4694464,33.5506071 17.0464286,33.4856786 C15.7306071,33.425625 15.0160714,33.2057679 14.5404643,33.021 C13.95428,32.8046524 13.4240355,32.4596804 12.9887143,32.0114464 C12.5404831,31.5761229 12.1955116,31.045879 11.9791607,30.4596964 C11.7943393,29.9841429 11.5744821,29.2695536 11.5144821,27.9537321 C11.4495536,26.5306607 11.4357857,26.1038036 11.4357857,22.5001607 C11.4357857,18.8965179 11.4495536,18.4698214 11.5144821,17.0465893 C11.5745357,15.7307679 11.7943393,15.0162321 11.9791607,14.540625 C12.1955341,13.9544124 12.5405435,13.4241484 12.9888214,12.9888214 C13.424145,12.5405903 13.9543888,12.1956188 14.5405714,11.9792679 C15.016125,11.7944464 15.7307143,11.5745893 17.0465357,11.5145893 C18.4696607,11.4496607 18.8964643,11.4358929 22.5001071,11.4358929 L22.5,11.4359464 Z M22.5001071,9.00423214 C18.8348571,9.00423214 18.3751071,9.01976786 16.9358571,9.08544643 C15.4993393,9.15101786 14.5183393,9.379125 13.6599107,9.71276786 C12.7594071,10.051641 11.9436601,10.5828637 11.2695536,11.2693929 C10.5828697,11.9434571 10.0514986,12.7592073 9.7125,13.65975 C9.379125,14.5182321 9.15101786,15.4992321 9.08571429,16.93575 C9.01976786,18.375 9.00423214,18.83475 9.00423214,22.5 C9.00423214,26.16525 9.01976786,26.625 9.08571429,28.06425 C9.15128571,29.5007679 9.37939286,30.4817679 9.71303571,31.3401964 C10.0519104,32.2406993 10.5831329,33.056446 11.2696607,33.7305536 C11.943765,34.4170854 12.7595127,34.9483086 13.6600179,35.2871786 C14.5185,35.6208214 15.4995,35.8489286 16.9359643,35.9145 C18.3754286,35.9801786 18.8350179,35.9957143 22.5002143,35.9957143 C26.1654107,35.9957143 26.6252143,35.9801786 28.0644643,35.9145 C29.5009821,35.8489286 30.4819821,35.6208214 31.3404107,35.2871786 C33.1532005,34.5860608 34.5862751,33.1529862 35.2873929,31.3401964 C35.6210357,30.4817143 35.8491429,29.5007143 35.9147143,28.06425 C35.9803929,26.6247857 35.9959286,26.1651964 35.9959286,22.5 C35.9959286,18.8348036 35.9803929,18.375 35.9147143,16.93575 C35.8491429,15.4992321 35.6210357,14.5182321 35.2873929,13.6598036 C34.9485228,12.7592984 34.4172996,11.9435507 33.7307679,11.2694464 C33.0566476,10.5827804 32.2408412,10.051445 31.34025,9.7125 C30.4817679,9.379125 29.5007679,9.15101786 28.06425,9.08571429 C26.625,9.01976786 26.16525,9.00423214 22.5,9.00423214 L22.5,9.00423214 L22.5001071,9.00423214 Z" id="Shape" fill="#FFFFFF" mask="url(#mask-2)"></path>
            <path d="M22.5,15.5697321 C18.6725188,15.5697321 15.5697321,18.6725188 15.5697321,22.5 C15.5697321,26.3274812 18.6725188,29.4302679 22.5,29.4302679 C26.3274812,29.4302679 29.4302679,26.3274812 29.4302679,22.5 C29.4302679,18.6725188 26.3274812,15.5697321 22.5,15.5697321 L22.5,15.5697321 Z M22.5,26.9985536 C20.0155244,26.998524 18.0014803,24.9844398 18.0015,22.4999643 C18.0015197,20.0154887 20.0155959,18.0014366 22.5000714,18.0014464 C24.984547,18.0014563 26.9986071,20.0155244 26.9986071,22.5 C26.9985776,24.9844912 24.9844912,26.9985536 22.5,26.9985536 Z M29.7040714,16.9153929 C30.5984769,16.9153929 31.3235357,16.190334 31.3235357,15.2959286 C31.3235357,14.4015231 30.5984769,13.6764643 29.7040714,13.6764643 C28.809666,13.6764643 28.0846071,14.4015231 28.0846071,15.2959286 C28.0846071,16.190334 28.809666,16.9153929 29.7040714,16.9153929 Z" id="Combined-Shape" fill="#FFFFFF" mask="url(#mask-2)"></path>
        </g>
    </g>
</svg>