<?xml version="1.0" encoding="UTF-8" standalone="no"?>
<svg width="19px" height="12px" viewBox="0 0 19 12" version="1.1" xmlns="http://www.w3.org/2000/svg" xmlns:xlink="http://www.w3.org/1999/xlink">
    <!-- Generator: Sketch 3.8.3 (29802) - http://www.bohemiancoding.com/sketch -->
    <title>scl-action-icon-email</title>
    <desc>Created with Sketch.</desc>
    <defs></defs>
    <g id="Recipe" stroke="none" stroke-width="1" fill="none" fill-rule="evenodd">
        <g id="Desktop---Recipe" transform="translate(-1170.000000, -1387.000000)" fill="#4A4A4A">
            <g id="Group-5" transform="translate(942.000000, 1313.000000)">
                <g id="Button" transform="translate(215.000000, 60.000000)">
                    <path d="M31.2201385,17.192 C30.6464143,17.4913793 23.599104,21.1766207 23.2477936,21.3597241 C22.8962764,21.5432414 22.6500695,21.5670345 22.3103453,21.5670345 C21.9704143,21.5670345 21.7244143,21.5432414 21.3726902,21.3597241 C21.0213798,21.1766207 13.9744833,17.4913793 13.4003453,17.192 C12.9964833,16.9813793 13.0000005,17.2284138 13.0000005,17.4191724 L13.0000005,25.007931 C13.0000005,25.4413793 13.5776557,26 14.0260005,26 L30.5946902,26 C31.043035,26 31.6206902,25.4413793 31.6206902,25.007931 L31.6206902,17.4191724 C31.6206902,17.2284138 31.6244143,16.9813793 31.2201385,17.192 M13.6142764,15.1230345 C14.1193109,15.3944828 21.1124143,19.1508966 21.3726902,19.2907586 C21.6331729,19.4306207 21.9704143,19.498069 22.3103453,19.498069 C22.6500695,19.498069 22.9873109,19.4306207 23.2477936,19.2907586 C23.5080695,19.1508966 30.5011729,15.3944828 31.0062074,15.1230345 C31.5114488,14.8517931 31.9897936,14 31.0612419,14 L13.559035,14 C12.6313109,14 13.109035,14.8517931 13.6142764,15.1230345" id="scl-action-icon-email"></path>
                </g>
            </g>
        </g>
    </g>
</svg>