<?xml version="1.0" encoding="UTF-8" standalone="no"?>
<svg width="30px" height="19px" viewBox="0 0 30 19" version="1.1" xmlns="http://www.w3.org/2000/svg" xmlns:xlink="http://www.w3.org/1999/xlink">
    <!-- Generator: Sketch 3.8.3 (29802) - http://www.bohemiancoding.com/sketch -->
    <title>scl-action-icon-gl</title>
    <desc>Created with Sketch.</desc>
    <defs></defs>
    <g id="Login-&amp;-Account" stroke="none" stroke-width="1" fill="none" fill-rule="evenodd">
        <g id="Login-01" transform="translate(-586.000000, -525.000000)" fill="#FFFFFF">
            <g id="Sign-in-1" transform="translate(469.000000, 141.000000)">
                <g id="Google-sign-in-Copy" transform="translate(40.000000, 369.000000)">
                    <path d="M77.0056957,24.772911 C76.8242001,19.9981077 81.0065865,15.5859761 85.7858632,15.5284599 C88.2219938,15.3207625 90.5916613,16.266904 92.4350555,17.8099358 C91.679037,18.6410449 90.9099176,19.4632071 90.0874359,20.232646 C88.4651595,19.2465627 86.5108869,18.4950177 84.6141304,19.1625252 C81.5549076,20.0335761 79.7025664,23.6455934 80.8343574,26.6386726 C81.771552,29.7643586 85.5736923,31.479939 88.553351,30.1666524 C90.0963829,29.6141774 91.1131415,28.1906514 91.5598507,26.6607205 C89.7912275,26.6255717 88.0229239,26.6476196 86.2546202,26.5990503 C86.2501468,25.5468234 86.2456733,24.4987504 86.2501468,23.4465235 C89.1988106,23.4423695 92.1522675,23.4334226 95.1054049,23.4599439 C95.2869004,26.0373088 94.9066544,28.7961692 93.2310158,30.8651547 C90.936439,33.8186116 86.6965364,34.685189 83.2481206,33.5268767 C79.587534,32.324149 76.9261316,28.637041 77.0056957,24.772911 Z M100.852871,20.794068 L103.483598,20.794068 C103.488072,21.6737464 103.496699,22.5578982 103.501172,23.437896 C104.380851,23.4465235 105.265322,23.450997 106.145,23.4554704 L106.145,26.0903515 C105.265322,26.094825 104.380851,26.0992985 103.501172,26.1037719 C103.492225,26.9879237 103.488072,27.8679216 103.483598,28.7520734 C102.6036,28.7475999 101.723922,28.7520734 100.848397,28.7520734 C100.83977,27.8679216 100.83977,26.9879237 100.830823,26.1082454 C99.9511448,26.0992985 99.0666734,26.094825 98.1869951,26.0903515 L98.1869951,23.4554704 C99.0666734,23.450997 99.9466713,23.4465235 100.830823,23.437896 C100.835297,22.5578982 100.844244,21.6737464 100.852871,20.794068 Z" id="scl-action-icon-gl"></path>
                </g>
            </g>
        </g>
    </g>
</svg>