<?xml version="1.0" encoding="UTF-8" standalone="no"?>
<svg width="22px" height="16px" viewBox="0 0 22 16" version="1.1" xmlns="http://www.w3.org/2000/svg" xmlns:xlink="http://www.w3.org/1999/xlink">
    <!-- Generator: Sketch 3.8.3 (29802) - http://www.bohemiancoding.com/sketch -->
    <title>scl-action-icon-tw</title>
    <desc>Created with Sketch.</desc>
    <defs></defs>
    <g id="Recipe" stroke="none" stroke-width="1" fill="none" fill-rule="evenodd">
        <g id="Desktop---Recipe" transform="translate(-973.000000, -1485.000000)" fill="#FFFFFF">
            <g id="Group-5" transform="translate(942.000000, 1313.000000)">
                <g id="Button" transform="translate(19.000000, 160.000000)">
                    <path d="M33.2512821,13.894449 C32.4691168,14.2154772 31.6285105,14.432595 30.7471726,14.5299426 C31.6485812,14.0300793 32.3398382,13.2392672 32.6639202,12.2964178 C31.8209527,12.7590922 30.8894382,13.0948865 29.8941698,13.2748154 C29.1013789,12.4900191 27.9667966,12 26.7123806,12 C24.3056729,12 22.3535066,13.8085863 22.3535066,16.0388296 C22.3535066,16.3560295 22.3906963,16.6633853 22.4662564,16.9587093 C18.8435031,16.7897183 15.6310177,15.1834837 13.478735,12.7383101 C13.1032957,13.3366147 12.8896023,14.0300793 12.8896023,14.770577 C12.8896023,16.1706317 13.6593709,17.4071643 14.8281915,18.1323489 C14.1150929,18.1121138 13.4415453,17.9289035 12.8524125,17.6281105 L12.8524125,17.6773311 C12.8524125,19.635767 14.3559407,21.2682527 16.3512,21.6379546 C15.985796,21.7325677 15.601502,21.7801477 15.2024501,21.7801477 C14.921461,21.7801477 14.6481459,21.7560842 14.3825048,21.7085042 C14.9373994,23.3130982 16.5460034,24.4812688 18.4550769,24.5124419 C16.9621744,25.5963905 15.0814359,26.2417282 13.0401322,26.2417282 C12.6883054,26.2417282 12.3406108,26.2236806 12,26.1859448 C13.9297345,27.3311457 16.2213311,28 18.6823476,28 C26.7041162,28 31.0877835,21.8463221 31.0877835,16.5080667 C31.0877835,16.332513 31.0842416,16.1575062 31.0759772,15.9852338 C31.9283897,15.4153678 32.669233,14.7038556 33.2512821,13.894449" id="scl-action-icon-tw"></path>
                </g>
            </g>
        </g>
    </g>
</svg>