<?xml version="1.0" encoding="UTF-8" standalone="no"?>
<svg width="18px" height="10px" viewBox="0 0 18 10" version="1.1" xmlns="http://www.w3.org/2000/svg" xmlns:xlink="http://www.w3.org/1999/xlink">
    <!-- Generator: Sketch 3.8.3 (29802) - http://www.bohemiancoding.com/sketch -->
    <title>btn-refine-arrow-on</title>
    <desc>Created with Sketch.</desc>
    <defs></defs>
    <g id="Search" stroke="none" stroke-width="1" fill="none" fill-rule="evenodd">
        <g id="Desktop---Search-Results-Recipe-Filters" transform="translate(-178.000000, -358.000000)" fill="#FFFFFF">
            <g id="Button" transform="translate(90.000000, 343.000000)">
                <path d="M99.1128379,11.4906712 C98.4981409,12.1231527 92.4917576,18.777554 92.4917576,18.777554 C92.1644094,19.1148982 92,19.5571388 92,20 C92,20.4428612 92.1644094,20.8851018 92.4917576,21.222446 C92.4917576,21.222446 98.4981409,27.8768473 99.1128379,28.5093288 C99.7269466,29.1418104 100.832813,29.1849483 101.488686,28.5093288 C102.144264,27.8346404 102.196323,26.8924353 101.488098,26.0644369 L95.9781775,20 L101.488098,13.9358735 C102.196323,13.1075647 102.144264,12.1656699 101.488686,11.4906712 C100.832813,10.8150517 99.7269466,10.8581896 99.1128379,11.4906712" id="btn-refine-arrow-on" transform="translate(97.000000, 20.000000) scale(1, -1) rotate(-90.000000) translate(-97.000000, -20.000000) "></path>
            </g>
        </g>
    </g>
</svg>