<?xml version="1.0" encoding="UTF-8" standalone="no"?>
<svg width="57px" height="57px" viewBox="0 0 57 57" version="1.1" xmlns="http://www.w3.org/2000/svg" xmlns:xlink="http://www.w3.org/1999/xlink">
    <!-- Generator: Sketch 3.8.3 (29802) - http://www.bohemiancoding.com/sketch -->
    <title>Coupon Icon Product Card</title>
    <desc>Created with Sketch.</desc>
    <defs></defs>
    <g id="Products" stroke="none" stroke-width="1" fill="none" fill-rule="evenodd">
        <g id="Desktop---Products-Overview" transform="translate(-663.000000, -1011.000000)">
            <g id="Group-3" transform="translate(91.000000, 902.000000)">
                <g id="Recipe---4UP" transform="translate(319.000000, 109.000000)">
                    <g id="Recipe---4UP-C">
                        <g id="Bitmap">
                            <g id="Coupon-Icon-Product-Card" transform="translate(252.000000, -1.000000)">
                                <path d="M0,0 L55.9930679,0 C57.6537506,0 59,1.34315145 59,3.00693214 L59,59 L0,0 Z" id="Rectangle-68" fill="#FF9D6D"></path>
                                <path d="M37.82985,17.5819474 L34.2632813,17.5819474 C32.3940555,17.5819474 30.8041393,19.1117046 30.8256247,20.9766333 C30.8342188,21.7587001 31.1135284,22.476311 31.5690179,23.0435243 L31.2639259,23.5376874 C31.0404782,23.9029384 31.0963401,24.3756162 31.3971351,24.6764112 C31.758089,25.0373651 32.3467877,25.0373651 32.7077417,24.6764112 L33.2319843,24.1521685 C33.635909,24.2724865 34.0699131,24.3154572 34.5211055,24.2724865 C35.9692184,24.1306832 37.1766953,23.0349302 37.4688961,21.6083027 C37.5720258,21.1055454 37.5548375,20.6199764 37.4474107,20.1644869 L38.1005655,20.1644869 C38.4873018,20.1644869 38.8654441,20.0355748 39.1748332,19.7992359 L51.8254094,10.0362911 C51.6406354,9.6753372 51.3828112,9.37454224 51.0820162,9.14250042 C50.1409577,8.43348375 48.8260541,8.51512809 47.9279663,9.27141255 L42.2085651,14.1099142 L39.1748332,11.7680107 C38.8697411,11.5316718 38.4915989,11.4027596 38.1005655,11.4027596 L37.4474107,11.4027596 C37.5548375,10.9515672 37.5720258,10.4659982 37.4688961,9.95894387 C37.1766953,8.53231638 35.9692184,7.43656334 34.5211055,7.29476 C32.5272647,7.09709475 30.84711,8.64833729 30.8256247,10.5949103 C30.8041393,12.4641361 32.3940555,13.9895962 34.2632813,13.9895962 L37.82985,13.9895962 C38.0060299,13.9895962 38.1779127,14.0540523 38.315419,14.1657761 L40.2276155,15.7857718 L38.315419,17.4057675 C38.1779127,17.5217884 38.0060299,17.5819474 37.82985,17.5819474 L37.82985,17.5819474 Z M34.1816369,22.4591227 C33.3394111,22.4591227 32.6604739,21.7758884 32.6604739,20.9379596 C32.6604739,20.0957338 33.3437081,19.4167966 34.1816369,19.4167966 C35.0238628,19.4167966 35.7028,20.1000308 35.7028,20.9379596 C35.7028,21.7801855 35.0195657,22.4591227 34.1816369,22.4591227 L34.1816369,22.4591227 Z M34.1816369,12.1590441 C33.3394111,12.1590441 32.6604739,11.4758098 32.6604739,10.637881 C32.6604739,9.79995225 33.3394111,9.11242093 34.1816369,9.11242093 C35.0238628,9.11242093 35.7028,9.79565518 35.7028,10.633584 C35.7028,11.4715128 35.0195657,12.1590441 34.1816369,12.1590441 L34.1816369,12.1590441 Z M45.4012887,16.6108094 L51.8211124,21.5309554 C51.6621207,21.8489386 51.4429701,22.1196541 51.189443,22.3345076 C50.2526815,23.1294657 48.8604306,23.086495 47.9193721,22.295834 L43.1882972,18.3167465 L45.4012887,16.6108094 L45.4012887,16.6108094 Z" id="Shape" fill="#FFFFFF" transform="translate(41.325409, 16.112439) rotate(-14.000000) translate(-41.325409, -16.112439) "></path>
                            </g>
                        </g>
                    </g>
                </g>
            </g>
        </g>
    </g>
</svg>