<?xml version="1.0" encoding="UTF-8" standalone="no"?>
<svg width="45px" height="45px" viewBox="0 0 45 45" version="1.1" xmlns="http://www.w3.org/2000/svg" xmlns:xlink="http://www.w3.org/1999/xlink">
    <!-- Generator: Sketch 3.8.3 (29802) - http://www.bohemiancoding.com/sketch -->
    <title>scl-tw-active</title>
    <desc>Created with Sketch.</desc>
    <defs></defs>
    <g id="Symbols" stroke="none" stroke-width="1" fill="none" fill-rule="evenodd">
        <g id="scl-tw-active">
            <rect id="Rectangle-355" fill="#2666B0" x="0" y="0" width="45" height="45" rx="22.5"></rect>
            <path d="M33.9782609,15.5929734 C33.1141304,15.947643 32.1854348,16.1875132 31.2117391,16.295062 C32.2076087,15.7428168 32.9713043,14.8691333 33.3293478,13.8274802 C32.3980435,14.3386395 31.368913,14.7096226 30.2693478,14.9084067 C29.3934783,14.0413696 28.14,13.5 26.7541304,13.5 C24.0952174,13.5 21.9384783,15.4981129 21.9384783,17.9620694 C21.9384783,18.3125095 21.9795652,18.6520739 22.0630435,18.9783458 C18.0606522,18.7916458 14.5115217,17.0170895 12.1336957,14.3156796 C11.718913,14.9766822 11.4828261,15.7428168 11.4828261,16.5609132 C11.4828261,18.1076833 12.3332609,19.4737956 13.6245652,20.2749742 C12.8367391,20.2526185 12.0926087,20.0502092 11.4417391,19.7178953 L11.4417391,19.7722739 C11.4417391,21.9359395 13.1028261,23.7394977 15.3071739,24.1479417 C14.9034783,24.2524695 14.478913,24.3050356 14.0380435,24.3050356 C13.7276087,24.3050356 13.4256522,24.2784504 13.1321739,24.2258844 C13.7452174,25.9986281 15.5223913,27.2892144 17.6315217,27.3236542 C15.9821739,28.5211927 13.9043478,29.2341571 11.6491304,29.2341571 C11.2604348,29.2341571 10.8763043,29.2142182 10.5,29.1725279 C12.6319565,30.4377376 15.1636957,31.1766829 17.8826087,31.1766829 C26.745,31.1766829 31.5880435,24.3781446 31.5880435,18.4804791 C31.5880435,18.2865286 31.5841304,18.0931824 31.575,17.9028571 C32.5167391,17.2732733 33.3352174,16.4871999 33.9782609,15.5929734" id="Fill-5" fill="#FFFFFF"></path>
        </g>
    </g>
</svg>