<?xml version="1.0" encoding="UTF-8" standalone="no"?>
<svg width="20px" height="18px" viewBox="0 0 20 18" version="1.1" xmlns="http://www.w3.org/2000/svg" xmlns:xlink="http://www.w3.org/1999/xlink">
    <!-- Generator: Sketch 3.8.3 (29802) - http://www.bohemiancoding.com/sketch -->
    <title>scl-action-icon-print</title>
    <desc>Created with Sketch.</desc>
    <defs></defs>
    <g id="Recipe" stroke="none" stroke-width="1" fill="none" fill-rule="evenodd">
        <g id="Desktop---Recipe" transform="translate(-1170.000000, -1435.000000)" fill="#4A4A4A">
            <g id="Group-5" transform="translate(942.000000, 1313.000000)">
                <g id="Button" transform="translate(215.000000, 110.000000)">
                    <path d="M17.2857143,27.8823529 L18.7142857,21 L27.2857143,21 L28.7142857,27.8823529 L17.2857143,27.8823529 Z M31.877551,18.4588235 L14.122449,18.4588235 C13.5612245,18.4588235 13,19.1470588 13,19.7294118 L13,23.4352941 C13,24.0176471 13.5612245,24.7058824 14.122449,24.7058824 L16.1453061,24.7058824 L15.244898,30 L30.755102,30 L29.8546939,24.7058824 L31.877551,24.7058824 C32.4387755,24.7058824 33,24.0176471 33,23.4352941 L33,19.7294118 C33,19.1470588 32.4387755,18.4588235 31.877551,18.4588235 L31.877551,18.4588235 Z M14.3265306,17.2941176 L31.6734694,17.2941176 C32.2559184,17.2941176 32.1602041,16.6503529 31.8704082,16.5455294 C31.5806122,16.4404941 28.3571429,15.1764706 27.7959184,15.1764706 L26.877551,15.1764706 L26.877551,12 L19.122449,12 L19.122449,15.1764706 L18.2040816,15.1764706 C17.6428571,15.1764706 14.4193878,16.4404941 14.1295918,16.5455294 C13.8397959,16.6503529 13.7440816,17.2941176 14.3265306,17.2941176 L14.3265306,17.2941176 Z" id="scl-action-icon-print"></path>
                </g>
            </g>
        </g>
    </g>
</svg>