<?xml version="1.0" encoding="UTF-8" standalone="no"?>
<svg width="18px" height="22px" viewBox="0 0 18 22" version="1.1" xmlns="http://www.w3.org/2000/svg" xmlns:xlink="http://www.w3.org/1999/xlink">
    <!-- Generator: Sketch 3.8.3 (29802) - http://www.bohemiancoding.com/sketch -->
    <title>scl-action-icon-pn</title>
    <desc>Created with Sketch.</desc>
    <defs></defs>
    <g id="Recipe" stroke="none" stroke-width="1" fill="none" fill-rule="evenodd">
        <g id="Desktop---Recipe" transform="translate(-972.000000, -1383.000000)" fill="#FFFFFF">
            <g id="Group-5" transform="translate(942.000000, 1313.000000)">
                <g id="Button" transform="translate(19.000000, 60.000000)">
                    <path d="M25.9345301,23.8701328 C24.7353251,25.2451918 23.1793787,25.9718874 21.4343656,25.9718874 C21.2695221,25.9718874 21.1031057,25.9652811 20.9329142,25.9520684 C19.9042153,25.8721634 19.3282069,25.4726381 18.6609682,25.0098809 C18.5017873,24.8997755 18.3388313,24.7865242 18.1632919,24.6735876 C17.592946,27.6187494 16.8838673,30.3619464 14.8387384,31.8464816 L14.6270214,32 L14.5902148,31.741095 C14.1202221,28.4052164 14.8500635,25.6852988 15.5556817,23.0547238 C15.8073512,22.1172551 16.0448642,21.2298057 16.2333017,20.3124705 C15.5865112,19.165487 15.6462827,17.351894 16.3805284,16.0627172 C16.8684525,15.2048389 17.5721832,14.7326441 18.3621107,14.7326441 C18.6376888,14.7326441 18.9236482,14.7905281 19.2121243,14.9047231 C20.8841533,15.5666138 20.279832,17.4670327 19.6956443,19.3048489 C19.2775584,20.6191927 18.8453161,21.9782077 19.3061858,22.7608997 C19.5090943,23.1053723 19.8749588,23.327156 20.4248565,23.437576 C20.6164399,23.4759556 20.8070795,23.4957745 20.9920566,23.4957745 C22.2724249,23.4957745 23.4115438,22.5293638 24.1168474,20.8447514 C25.0382722,18.6432728 25.0983583,15.3177756 23.5877124,13.7841648 C22.6137516,12.7960476 21.3506855,12.2738335 19.9341011,12.2738335 C18.1378103,12.2738335 16.2767147,13.1490141 15.0771952,14.5580484 C13.9937582,15.8308667 13.540124,17.4157551 13.7996581,19.020777 C13.8688672,19.450188 14.0717757,19.7849084 14.2680779,20.1086182 C14.657851,20.7519483 15.0614658,21.4166702 14.3322536,22.7049033 L14.2749988,22.8062002 L14.1611184,22.7810333 C11.9310124,22.2868174 10.8994822,20.6125863 11.0077001,17.6627057 C11.1259847,14.3740151 13.773862,10.5970858 18.4479929,10.0736133 C18.8836957,10.0245378 19.3231735,10 19.7547866,10 C24.1741022,10 27.4829264,12.4641586 27.9878382,16.1316117 C28.3823301,18.9996997 27.5955485,21.9646805 25.9345301,23.8701328" id="scl-action-icon-pn"></path>
                </g>
            </g>
        </g>
    </g>
</svg>