<?xml version="1.0" encoding="UTF-8" standalone="no"?>
<svg width="21px" height="21px" viewBox="0 0 21 21" version="1.1" xmlns="http://www.w3.org/2000/svg" xmlns:xlink="http://www.w3.org/1999/xlink">
    <!-- Generator: Sketch 3.8.3 (29802) - http://www.bohemiancoding.com/sketch -->
    <title>search-icon</title>
    <desc>Created with Sketch.</desc>
    <defs></defs>
    <g id="Symbols" stroke="none" stroke-width="1" fill="none" fill-rule="evenodd">
        <g id="Search---Default" transform="translate(-440.000000, -10.000000)" fill="#FFFFFF">
            <g id="Search-Default">
                <path d="M442.530625,18.222936 C442.530625,15.0787941 445.079326,12.5300933 448.222404,12.5300933 C451.367078,12.5300933 454.168575,15.3315907 454.168575,18.4757327 C454.168575,21.6198746 451.619875,24.1685754 448.475733,24.1685754 C445.332122,24.1685754 442.530625,21.367078 442.530625,18.222936 M460.5281,27.7667412 L455.50566,22.7443014 C456.262987,21.4999889 456.6992,20.0390315 456.6992,18.4757327 C456.6992,13.9349622 452.764238,10 448.222404,10 C443.681634,10 440,13.6816339 440,18.222936 C440,22.7642381 443.934962,26.6986687 448.475733,26.6986687 C449.985601,26.6986687 451.399774,26.2898345 452.615644,25.5795583 L457.665463,30.6293778 C458.159626,31.1235407 458.960813,31.1235407 459.454445,30.6293778 L460.707264,29.3773564 C461.201427,28.8829276 461.022263,28.2609042 460.5281,27.7667412" id="search-icon"></path>
            </g>
        </g>
    </g>
</svg>