<?xml version="1.0" encoding="UTF-8" standalone="no"?>
<svg width="123px" height="23px" viewBox="0 0 123 23" version="1.1" xmlns="http://www.w3.org/2000/svg" xmlns:xlink="http://www.w3.org/1999/xlink">
    <!-- Generator: Sketch 39 (31667) - http://www.bohemiancoding.com/sketch -->
    <title>star-rating-0</title>
    <desc>Created with Sketch.</desc>
    <defs></defs>
    <g id="Recipe" stroke="none" stroke-width="1" fill="none" fill-rule="evenodd">
        <g id="star-rating-0">
            <polygon id="Mask" fill="#FF9D6D" points="12.5616438 18.75 5.17809484 22.6127124 6.58822722 14.4313562 0.61481061 8.63728757 8.86986934 7.44364379 12.5616438 0 16.2534183 7.44364379 24.5084771 8.63728757 18.5350604 14.4313562 19.9451928 22.6127124"></polygon>
            <path d="M26.18,19 L28.898,6.22 L34.298,6.22 C34.7780024,6.22 35.2099981,6.31899901 35.594,6.517 C35.9780019,6.71500099 36.3019987,6.97899835 36.566,7.309 C36.8300013,7.63900165 37.0309993,8.01699787 37.169,8.443 C37.3070007,8.86900213 37.376,9.30399778 37.376,9.748 C37.376,10.2160023 37.2980008,10.6749978 37.142,11.125 C36.9859992,11.5750023 36.7730014,11.997998 36.503,12.394 C36.2329987,12.790002 35.9150018,13.1439984 35.549,13.456 C35.1829982,13.7680016 34.7840022,14.0139991 34.352,14.194 L36.08,19 L33.272,19 L31.76,14.716 L29.546,14.716 L28.646,19 L26.18,19 Z M32.876,12.538 C33.1160012,12.538 33.3529988,12.4690007 33.587,12.331 C33.8210012,12.1929993 34.0279991,12.0070012 34.208,11.773 C34.3880009,11.5389988 34.5349994,11.2690015 34.649,10.963 C34.7630006,10.6569985 34.82,10.3360017 34.82,10 C34.82,9.54399772 34.7090011,9.16300153 34.487,8.857 C34.2649989,8.55099847 33.9920016,8.398 33.668,8.398 L30.896,8.398 L30.014,12.538 L32.876,12.538 Z M41.174,19.18 C40.6459974,19.18 40.1750021,19.081001 39.761,18.883 C39.3469979,18.684999 38.9960014,18.4120017 38.708,18.064 C38.4199986,17.7159983 38.2010008,17.3050024 38.051,16.831 C37.9009993,16.3569976 37.826,15.8500027 37.826,15.31 C37.826,14.5299961 37.9669986,13.7830036 38.249,13.069 C38.5310014,12.3549964 38.9089976,11.7280027 39.383,11.188 C39.8570024,10.6479973 40.4059969,10.2160016 41.03,9.892 C41.6540031,9.56799838 42.3079966,9.406 42.992,9.406 C43.6400032,9.406 44.1919977,9.57399832 44.648,9.91 C45.1040023,10.2460017 45.4159992,10.6839973 45.584,11.224 L45.944,9.604 L48.356,9.604 L46.952,16.228 C46.9159998,16.3600007 46.898,16.4679996 46.898,16.552 C46.898,16.8040013 47.0419986,16.9359999 47.33,16.948 L46.898,19 C46.6819989,19.0360002 46.4930008,19.0659999 46.331,19.09 C46.1689992,19.1140001 46.0280006,19.126 45.908,19.126 C45.4879979,19.126 45.1550012,19.0360009 44.909,18.856 C44.6629988,18.6759991 44.54,18.4060018 44.54,18.046 C44.54,17.9019993 44.5759996,17.6740016 44.648,17.362 C44.1919977,17.962003 43.6550031,18.4149985 43.037,18.721 C42.4189969,19.0270015 41.7980031,19.18 41.174,19.18 L41.174,19.18 Z M42.254,17.128 C42.458001,17.128 42.6769988,17.0890004 42.911,17.011 C43.1450012,16.9329996 43.3699989,16.8220007 43.586,16.678 C43.8020011,16.5339993 44.005999,16.366001 44.198,16.174 C44.390001,15.981999 44.5519993,15.7720011 44.684,15.544 L45.152,13.294 C45.0799996,12.7659974 44.8700017,12.3280017 44.522,11.98 C44.1739983,11.6319983 43.7720023,11.458 43.316,11.458 C42.9319981,11.458 42.5600018,11.556999 42.2,11.755 C41.8399982,11.953001 41.5250014,12.2169984 41.255,12.547 C40.9849987,12.8770017 40.7690008,13.2489979 40.607,13.663 C40.4449992,14.0770021 40.364,14.4999978 40.364,14.932 C40.364,15.5560031 40.5319983,16.0779979 40.868,16.498 C41.2040017,16.9180021 41.6659971,17.128 42.254,17.128 L42.254,17.128 Z M51.596,19.162 C51.0199971,19.162 50.5490018,19.0330013 50.183,18.775 C49.8169982,18.5169987 49.634,18.0940029 49.634,17.506 C49.634,17.2659988 49.6579998,17.044001 49.706,16.84 L50.858,11.422 L49.688,11.422 L50.084,9.568 L51.236,9.568 L51.884,6.508 L54.296,6.508 L53.648,9.568 L55.538,9.568 L55.142,11.422 L53.27,11.422 L52.28,16.03 C52.2679999,16.0900003 52.259,16.1409998 52.253,16.183 C52.247,16.2250002 52.244,16.2699998 52.244,16.318 C52.244,16.5460011 52.3069994,16.7079995 52.433,16.804 C52.5590006,16.9000005 52.723999,16.948 52.928,16.948 C53.1680012,16.948 53.4049988,16.9090004 53.639,16.831 C53.8730012,16.7529996 54.0739992,16.6780004 54.242,16.606 L54.314,18.514 C53.9659983,18.6820008 53.5460025,18.8319993 53.054,18.964 C52.5619975,19.0960007 52.0760024,19.162 51.596,19.162 L51.596,19.162 Z M59.642,19.18 C59.041997,19.18 58.5050024,19.081001 58.031,18.883 C57.5569976,18.684999 57.1520017,18.4090018 56.816,18.055 C56.4799983,17.7009982 56.2250009,17.2810024 56.051,16.795 C55.8769991,16.3089976 55.79,15.7780029 55.79,15.202 C55.79,14.4219961 55.9429985,13.6810035 56.249,12.979 C56.5550015,12.2769965 56.9749973,11.6620026 57.509,11.134 C58.0430027,10.6059974 58.6729964,10.1860016 59.399,9.874 C60.1250036,9.56199844 60.9079958,9.406 61.748,9.406 C62.7680051,9.406 63.580997,9.63099775 64.187,10.081 C64.793003,10.5310023 65.096,11.1819957 65.096,12.034 C65.096,14.0620101 63.2840181,15.076 59.66,15.076 C59.4439989,15.076 59.2220011,15.076 58.994,15.076 C58.7659989,15.076 58.5260013,15.0640001 58.274,15.04 L58.274,15.274 C58.274,15.9100032 58.4179986,16.425998 58.706,16.822 C58.9940014,17.218002 59.4499969,17.416 60.074,17.416 C60.5540024,17.416 61.0069979,17.3020011 61.433,17.074 C61.8590021,16.8459989 62.1979987,16.528002 62.45,16.12 L64.358,16.714 C64.1179988,17.0740018 63.8240017,17.4069985 63.476,17.713 C63.1279983,18.0190015 62.7470021,18.2799989 62.333,18.496 C61.9189979,18.7120011 61.4840023,18.8799994 61.028,19 C60.5719977,19.1200006 60.1100023,19.18 59.642,19.18 L59.642,19.18 Z M61.388,11.152 C61.0399983,11.152 60.7160015,11.2149994 60.416,11.341 C60.1159985,11.4670006 59.8490012,11.6379989 59.615,11.854 C59.3809988,12.0700011 59.1740009,12.3219986 58.994,12.61 C58.8139991,12.8980014 58.6700005,13.2039984 58.562,13.528 C58.754001,13.5400001 58.9399991,13.546 59.12,13.546 L59.678,13.546 C60.2540029,13.546 60.742998,13.5160003 61.145,13.456 C61.547002,13.3959997 61.8709988,13.3060006 62.117,13.186 C62.3630012,13.0659994 62.5399995,12.9250008 62.648,12.763 C62.7560005,12.6009992 62.81,12.4120011 62.81,12.196 C62.81,11.8479983 62.6780013,11.5870009 62.414,11.413 C62.1499987,11.2389991 61.8080021,11.152 61.388,11.152 L61.388,11.152 Z M71.594,9.568 L74.006,9.568 L72.008,19 L69.596,19 L71.594,9.568 Z M72.386,5.86 L74.798,5.86 L74.294,8.254 L71.882,8.254 L72.386,5.86 Z M77.03,19.162 C76.4539971,19.162 75.9830018,19.0330013 75.617,18.775 C75.2509982,18.5169987 75.068,18.0940029 75.068,17.506 C75.068,17.2659988 75.0919998,17.044001 75.14,16.84 L76.292,11.422 L75.122,11.422 L75.518,9.568 L76.67,9.568 L77.318,6.508 L79.73,6.508 L79.082,9.568 L80.972,9.568 L80.576,11.422 L78.704,11.422 L77.714,16.03 C77.7019999,16.0900003 77.693,16.1409998 77.687,16.183 C77.681,16.2250002 77.678,16.2699998 77.678,16.318 C77.678,16.5460011 77.7409994,16.7079995 77.867,16.804 C77.9930006,16.9000005 78.157999,16.948 78.362,16.948 C78.6020012,16.948 78.8389988,16.9090004 79.073,16.831 C79.3070012,16.7529996 79.5079992,16.6780004 79.676,16.606 L79.748,18.514 C79.3999983,18.6820008 78.9800025,18.8319993 78.488,18.964 C77.9959975,19.0960007 77.5100024,19.162 77.03,19.162 L77.03,19.162 Z M87.128,11.908 L85.976,11.908 L86.372,10.072 L87.524,10.072 L87.65,9.496 C87.7580005,8.97999742 87.9439987,8.48800234 88.208,8.02 C88.4720013,7.55199766 88.801998,7.14700171 89.198,6.805 C89.594002,6.46299829 90.0439975,6.19000102 90.548,5.986 C91.0520025,5.78199898 91.5919971,5.68 92.168,5.68 C92.8160032,5.68 93.3919975,5.79099889 93.896,6.013 C94.4000025,6.23500111 94.8679978,6.51399832 95.3,6.85 L93.968,8.65 C93.7159987,8.37399862 93.4070018,8.15200084 93.041,7.984 C92.6749982,7.81599916 92.294002,7.732 91.898,7.732 C91.3939975,7.732 90.9890015,7.89999832 90.683,8.236 C90.3769985,8.57200168 90.1760005,8.96199778 90.08,9.406 L89.936,10.072 L94.796,10.072 L92.888,19 L90.476,19 L91.97,11.908 L89.54,11.908 L88.046,19 L85.634,19 L87.128,11.908 Z M97.046,9.568 L99.26,9.568 L98.828,11.584 C99.2840023,10.9359968 99.7939972,10.4230019 100.358,10.045 C100.922003,9.66699811 101.485997,9.478 102.05,9.478 C102.170001,9.478 102.26,9.48099997 102.32,9.487 C102.38,9.49300003 102.434,9.50199994 102.482,9.514 L102.032,11.656 C101.347997,11.6680001 100.703003,11.8089987 100.097,12.079 C99.490997,12.3490014 99.0140017,12.7539973 98.666,13.294 L97.46,19 L95.048,19 L97.046,9.568 Z M105.236,19.18 C104.479996,19.18 103.766003,19.0540013 103.094,18.802 C102.421997,18.5499987 101.882002,18.1900023 101.474,17.722 L102.68,16.21 C103.604005,17.0380041 104.557995,17.452 105.542,17.452 C106.046003,17.452 106.441999,17.3440011 106.73,17.128 C107.018001,16.9119989 107.162,16.6120019 107.162,16.228 C107.162,15.9639987 107.033001,15.7570008 106.775,15.607 C106.516999,15.4569993 106.100003,15.2980008 105.524,15.13 C105.043998,14.9859993 104.633002,14.8450007 104.291,14.707 C103.948998,14.5689993 103.667001,14.4160008 103.445,14.248 C103.222999,14.0799992 103.061001,13.8910011 102.959,13.681 C102.856999,13.470999 102.806,13.2280014 102.806,12.952 C102.806,12.4239974 102.919999,11.9410022 103.148,11.503 C103.376001,11.0649978 103.684998,10.6900016 104.075,10.378 C104.465002,10.0659984 104.917997,9.82300087 105.434,9.649 C105.950003,9.47499913 106.495997,9.388 107.072,9.388 C107.744003,9.388 108.349997,9.48999898 108.89,9.694 C109.430003,9.89800102 109.909998,10.2279977 110.33,10.684 L109.052,12.142 C108.667998,11.7819982 108.281002,11.5180008 107.891,11.35 C107.500998,11.1819992 107.102002,11.098 106.694,11.098 C106.273998,11.098 105.911002,11.199999 105.605,11.404 C105.298998,11.608001 105.146,11.9199979 105.146,12.34 C105.146,12.5920013 105.259999,12.7839993 105.488,12.916 C105.716001,13.0480007 106.099997,13.1919992 106.64,13.348 C107.648005,13.6240014 108.391998,13.9329983 108.872,14.275 C109.352002,14.6170017 109.592,15.087997 109.592,15.688 C109.592,16.2040026 109.484001,16.6749979 109.268,17.101 C109.051999,17.5270021 108.752002,17.8929985 108.368,18.199 C107.983998,18.5050015 107.525003,18.7449991 106.991,18.919 C106.456997,19.0930009 105.872003,19.18 105.236,19.18 L105.236,19.18 Z M113.372,19.162 C112.795997,19.162 112.325002,19.0330013 111.959,18.775 C111.592998,18.5169987 111.41,18.0940029 111.41,17.506 C111.41,17.2659988 111.434,17.044001 111.482,16.84 L112.634,11.422 L111.464,11.422 L111.86,9.568 L113.012,9.568 L113.66,6.508 L116.072,6.508 L115.424,9.568 L117.314,9.568 L116.918,11.422 L115.046,11.422 L114.056,16.03 C114.044,16.0900003 114.035,16.1409998 114.029,16.183 C114.023,16.2250002 114.02,16.2699998 114.02,16.318 C114.02,16.5460011 114.082999,16.7079995 114.209,16.804 C114.335001,16.9000005 114.499999,16.948 114.704,16.948 C114.944001,16.948 115.180999,16.9090004 115.415,16.831 C115.649001,16.7529996 115.849999,16.6780004 116.018,16.606 L116.09,18.514 C115.741998,18.6820008 115.322002,18.8319993 114.83,18.964 C114.337998,19.0960007 113.852002,19.162 113.372,19.162 L113.372,19.162 Z M118.556,14.194 L120.266,6.094 L122.678,6.094 L120.968,14.194 L118.556,14.194 Z M117.53,19 L118.106,16.282 L120.518,16.282 L119.942,19 L117.53,19 Z" id="Rate-it-first!" fill="#4990E2"></path>
        </g>
    </g>
</svg>