<?xml version="1.0" encoding="UTF-8" standalone="no"?>
<svg width="130px" height="23px" viewBox="0 0 130 23" version="1.1" xmlns="http://www.w3.org/2000/svg" xmlns:xlink="http://www.w3.org/1999/xlink">
    <!-- Generator: Sketch 39 (31667) - http://www.bohemiancoding.com/sketch -->
    <title>star-rating-1</title>
    <desc>Created with Sketch.</desc>
    <defs></defs>
    <g id="Recipe" stroke="none" stroke-width="1" fill="none" fill-rule="evenodd">
        <g id="star-rating-1">
            <polygon id="Star-1" fill="#FF9D6D" points="12.5616438 18.75 5.17809484 22.6127124 6.58822722 14.4313562 0.61481061 8.63728757 8.86986934 7.44364379 12.5616438 0 16.2534183 7.44364379 24.5084771 8.63728757 18.5350604 14.4313562 19.9451928 22.6127124"></polygon>
            <polygon id="Star-1" fill="#D8D8D8" points="39.5616438 18.75 32.1780948 22.6127124 33.5882272 14.4313562 27.6148106 8.63728757 35.8698693 7.44364379 39.5616438 0 43.2534183 7.44364379 51.5084771 8.63728757 45.5350604 14.4313562 46.9451928 22.6127124"></polygon>
            <polygon id="Star-1" fill="#D8D8D8" points="65.5616438 18.75 58.1780948 22.6127124 59.5882272 14.4313562 53.6148106 8.63728757 61.8698693 7.44364379 65.5616438 0 69.2534183 7.44364379 77.5084771 8.63728757 71.5350604 14.4313562 72.9451928 22.6127124"></polygon>
            <polygon id="Star-1" fill="#D8D8D8" points="91.5616438 18.75 84.1780948 22.6127124 85.5882272 14.4313562 79.6148106 8.63728757 87.8698693 7.44364379 91.5616438 0 95.2534183 7.44364379 103.508477 8.63728757 97.5350604 14.4313562 98.9451928 22.6127124"></polygon>
            <polygon id="Star-1" fill="#D8D8D8" points="117.561644 18.75 110.178095 22.6127124 111.588227 14.4313562 105.614811 8.63728757 113.869869 7.44364379 117.561644 0 121.253418 7.44364379 129.508477 8.63728757 123.53506 14.4313562 124.945193 22.6127124"></polygon>
        </g>
    </g>
</svg>