<svg id="Layer_3" data-name="Layer 3" xmlns="http://www.w3.org/2000/svg" viewBox="0 0 180 180">
  <defs>
    <style>
      .cls-1 {
        fill: #a6c3e0;
      }

      .cls-2 {
        fill: #dae8f7;
      }
    </style>
  </defs>
  <title>user-pic-default</title>
  <rect class="cls-1" width="180" height="180"/>
  <path class="cls-2" d="M5086.85,435.55c-19-6.94-26.52-12.93-27.92-24.09,10.9,1.18,18.91,2.94,18.91,2.94-4.08-6.28-3.34-20.55-3.34-20.55,5.08-25.59,3.86-42.45-.27-53.54a27.56,27.56,0,0,0-11.33-15.52,30.47,30.47,0,0,0-15.35-5.36,54.57,54.57,0,0,0-13.61,0,30.47,30.47,0,0,0-15.34,5.35,27.55,27.55,0,0,0-11.34,15.54c-4.12,11.1-5.34,28-.26,53.52,0,0,.73,14.27-3.34,20.55,0,0,8-1.76,18.9-2.94-1.41,11.17-8.88,17.15-27.92,24.09-21.43,7.81-35.36,15.77-35.36,21.2V475h162.93V456.75C5122.21,451.32,5108.28,443.36,5086.85,435.55Z" transform="translate(-4950.74 -295)"/>
</svg>
