<?xml version="1.0" encoding="UTF-8" standalone="no"?>
<svg width="159px" height="112px" viewBox="0 0 159 112" version="1.1" xmlns="http://www.w3.org/2000/svg" xmlns:xlink="http://www.w3.org/1999/xlink">
    <!-- Generator: Sketch 3.8.3 (29802) - http://www.bohemiancoding.com/sketch -->
    <title>Imperial_Brand_Logo2_White</title>
    <desc>Created with Sketch.</desc>
    <defs></defs>
    <g id="Home-Page" stroke="none" stroke-width="1" fill="none" fill-rule="evenodd">
        <g id="Desktop---Home" transform="translate(-644.000000, -3158.000000)" fill="#FFFFFF">
            <g id="Trusted-by-home-bakers" transform="translate(0.000000, 3116.000000)">
                <g id="Imperial_Brand_Logo2_White" transform="translate(643.000000, 42.000000)">
                    <path d="M38.6523944,11.0695582 C39.6304225,11.8117269 40.3740845,12.0591165 41.2214085,11.762249 C41.9876056,11.4968675 42.1859155,10.9751004 42.028169,10.5342972 C41.8704225,10.093494 41.5774648,9.93606426 40.964507,9.90008032 L39.5538028,9.82811245 C38.8650877,9.8427239 38.239016,9.43095502 37.9808451,8.7935743 C37.6247887,7.7860241 38.2873239,6.7739759 39.5087324,6.34666667 C40.1126761,6.13526104 40.3560563,6.19823293 40.7391549,6.06329317 C40.9695007,5.99755387 41.169086,5.85254753 41.3025352,5.6539759 L42.023662,7.70506024 C41.4540358,7.18503148 40.6472072,7.01297839 39.9143662,7.25526104 C39.364507,7.4486747 39.0129577,7.80401606 39.1797183,8.26281124 C39.2923944,8.58216867 39.576338,8.71261044 40.2884507,8.71261044 L41.275493,8.71261044 C42.1212665,8.6358587 42.9060239,9.15860433 43.1594366,9.9675502 C43.5560563,11.0965462 42.9205634,12.1805622 41.6315493,12.6303614 C41.0095775,12.8462651 40.3425352,12.8462651 40.0315493,12.9542169 C39.8011546,13.0598237 39.6079752,13.232239 39.4771831,13.448996 L38.6523944,11.0695582 Z" id="Shape"></path>
                    <path d="M46.6974648,5.19068273 C46.5928376,4.84939175 46.3344079,4.57650557 45.9988732,4.45301205 L48.1667606,3.87277108 C47.9345792,4.14625691 47.8444685,4.51263758 47.9233803,4.86232932 L49.1177465,9.2973494 C49.2254599,9.63889981 49.4873929,9.91029685 49.8253521,10.0305221 L47.6574648,10.6107631 C47.8896462,10.3372772 47.9797569,9.97089655 47.9008451,9.62120482 L46.6974648,5.19068273 Z" id="Shape"></path>
                    <path d="M53.1335211,3.59839357 C53.05201,3.24795949 52.8098704,2.95630887 52.48,2.81124498 L54.6929577,2.39293173 C54.6827586,2.4705647 54.6827586,2.54919433 54.6929577,2.62682731 C54.7263955,2.75921383 54.7895878,2.8822683 54.8777465,2.98666667 L57.284507,6.19823293 L57.284507,6.19823293 L56.8157746,3.56240964 C56.6625352,2.76626506 56.4822535,2.42441767 55.891831,2.17253012 L58.1904225,1.72273092 C57.938614,1.97941356 57.8218453,2.3390051 57.8749296,2.69429719 L58.8169014,7.64208835 C58.8271054,7.8056163 58.9055876,7.95737017 59.0332394,8.06040161 L57.3971831,8.37076305 C57.4145223,8.31510242 57.4145223,8.25549999 57.3971831,8.19983936 C57.3402212,8.07222066 57.2642445,7.9539349 57.171831,7.84899598 L54.4676056,4.25060241 L54.4676056,4.25060241 L55.035493,7.22827309 C55.1887324,8.02441767 55.3690141,8.36626506 55.9594366,8.61815261 L53.6608451,9.06795181 C53.9132732,8.81164369 54.0301443,8.45173699 53.976338,8.09638554 L53.1335211,3.59839357 Z" id="Shape"></path>
                    <path d="M65.0230986,0.706184739 C65.474824,0.708337778 65.9261339,0.73386065 66.3752113,0.782650602 C66.5852397,0.760005787 66.7794693,0.660683039 66.9205634,0.5037751 L67.1819718,3.14859438 C0.477746479,-8.4043883e-14 67.1819718,3.14859438 67.1819718,3.14859438 C66.5464789,2.14104418 65.9515493,1.65975904 65.2664789,1.73172691 C64.5814085,1.80369478 63.8467606,2.36594378 64.0495775,4.22811245 C64.2208451,5.80240964 65.0050704,6.21172691 65.8523944,6.12176707 C66.6638498,6.00490719 67.3511351,5.46475683 67.6552113,4.7048996 L67.6867606,4.7048996 C67.835493,6.17124498 67.2360563,7.17429719 65.6946479,7.34072289 C64.4822535,7.47116466 63.0895775,6.84144578 62.8191549,4.33156627 C62.5487324,2.09606426 63.576338,0.863614458 65.0230986,0.706184739 L65.0230986,0.706184739 Z" id="Shape"></path>
                    <path d="M71.9639437,1.1784739 C71.9361029,0.821979678 71.7426257,0.499055547 71.4411268,0.305863454 L75.8129577,0.161927711 C76.0329885,0.161470352 76.2495832,0.107430412 76.4439437,0.00449799197 L76.5160563,2.14104418 C75.948169,1.34939759 75.3577465,1.10200803 74.2625352,1.13799197 C73.5008451,1.16048193 73.2259155,1.36289157 73.2439437,1.88016064 L73.275493,2.77975904 L73.9425352,2.77975904 C74.6591549,2.75726908 75.1774648,2.65381526 75.5109859,2.16353414 L75.5785915,4.2011245 C75.2135211,3.7513253 74.6771831,3.67935743 73.9740845,3.70184739 C73.7532394,3.70184739 73.5008451,3.72433735 73.3070423,3.7513253 L73.3476056,4.97477912 C73.3476056,5.50104418 73.604507,5.68546185 74.5419718,5.6539759 C75.5190342,5.71468448 76.4259239,5.14630136 76.795493,4.24160643 L76.8766197,6.70200803 C76.6043752,6.54437424 76.2864147,6.48408306 75.9752113,6.53108434 L71.6619718,6.67502008 C71.9429596,6.46038529 72.1092154,6.12854142 72.1126761,5.77542169 L71.9639437,1.1784739 Z" id="Shape"></path>
                    <path d="M87.7070423,1.50232932 C87.8498794,1.56722992 88.001908,1.60971246 88.1577465,1.62827309 C88.64,1.67325301 89.2709859,1.36738956 89.3160563,0.854618474 C89.3321789,0.710257652 89.2704319,0.568182548 89.1538028,0.481285141 L90.5780282,0.611726908 C90.4367203,0.718371112 90.3533784,0.884720325 90.3526761,1.0615261 L89.9019718,6.00931727 C89.8367833,6.42519904 89.9759864,6.84699128 90.2760563,7.14281124 L88.0721127,6.94040161 C88.405722,6.78360769 88.6232736,6.4535932 88.635493,6.08578313 L88.9509859,2.64481928 L87.9143662,2.52787149 C87.8090783,2.51410718 87.7020948,2.53294872 87.6078873,2.58184739 L87.7070423,1.50232932 Z" id="Shape"></path>
                    <path d="M96.6490141,6.11277108 C96.6994848,5.8096488 96.8734954,5.54092406 97.1296812,5.37047652 C97.3858669,5.20002897 97.7013468,5.14308199 98.0011268,5.21317269 C98.6591549,5.3211245 99.091831,5.73943775 98.9791549,6.41413655 C98.9377485,6.71142649 98.7684678,6.97590438 98.5155942,7.13838647 C98.2627206,7.30086856 97.9514106,7.34519077 97.6630986,7.25975904 C96.955493,7.15180723 96.5498592,6.70200803 96.6490141,6.11277108 L96.6490141,6.11277108 Z M95.3464789,5.92385542 C95.1842254,6.90441767 95.5267606,7.90746988 97.5098592,8.23582329 C99.2766197,8.52819277 100.105915,7.60160643 100.277183,6.59405622 C100.382591,5.93504808 100.068595,5.27966623 99.4884507,4.94779116 C100.046087,4.77543681 100.453599,4.29687025 100.534085,3.71983936 C100.705352,2.6897992 100.015775,1.92064257 98.6321127,1.67325301 C97.2484507,1.42586345 96.3380282,1.96562249 96.1667606,2.99116466 C96.0417217,3.55449446 96.2499909,4.13962125 96.7030986,4.49799197 C95.9892557,4.63002409 95.4416614,5.20556828 95.3464789,5.92385542 L95.3464789,5.92385542 Z M97.3070423,3.28803213 C97.3568942,3.04644611 97.5068655,2.83720015 97.7198501,2.71206582 C97.9328347,2.58693149 98.1889357,2.55759883 98.4247887,2.6313253 C99.0061972,2.73028112 99.411831,3.00016064 99.3261972,3.59389558 C99.2725091,3.84336895 99.1151915,4.0583526 98.8934147,4.18531793 C98.6716379,4.31228326 98.4062684,4.33928441 98.1633803,4.25959839 C97.9158999,4.25752032 97.6810233,4.15033432 97.5175639,3.9648799 C97.3541045,3.77942548 97.27754,3.53326312 97.3070423,3.28803213 L97.3070423,3.28803213 Z" id="Shape"></path>
                    <path d="M106.920563,7.75903614 L105.185352,7.30923695 L107.556056,5.11421687 L107.556056,5.11421687 L106.920563,7.75903614 Z M103.765634,8.11437751 C103.910666,8.05857721 104.071306,8.05857721 104.216338,8.11437751 L106.627606,8.71261044 L106.537465,9.07694779 C106.463723,9.40891191 106.245652,9.69084564 105.942535,9.84610442 L107.91662,10.3453815 C107.720403,10.0616432 107.662477,9.70487242 107.758873,9.37381526 L107.849014,9.00497992 L108.254648,9.10393574 C108.368873,9.11699972 108.46798,9.18862251 108.516056,9.29285141 L108.894648,7.77253012 C108.704841,8.01692977 108.389235,8.12778578 108.087887,8.05590361 L108.957746,4.56995984 C108.999521,4.37138105 109.133355,4.20442506 109.31831,4.12016064 L107.515493,3.67036145 C107.520623,3.70012955 107.520623,3.73055318 107.515493,3.76032129 C107.501617,3.81657846 107.468048,3.86603275 107.420845,3.89975904 L104.013521,7.10232932 L103.765634,8.11437751 Z" id="Shape"></path>
                    <path d="M114.113803,5.35261044 C114.225232,5.53303233 114.395537,5.66963831 114.596056,5.73943775 C115.082817,5.90586345 115.434366,5.79791165 116.286197,6.08578313 C117.741972,6.58056225 117.953803,7.48915663 117.705915,8.22232932 C117.528041,8.79370711 117.022909,9.20197129 116.425915,9.25686747 C116.960946,9.68798226 117.16663,10.4082321 116.939718,11.0560643 C116.489014,12.337992 115.209014,12.7473092 114.001127,12.337992 C113.230423,12.0771084 112.946479,11.6902811 112.477746,11.5328514 C112.236919,11.4400986 111.967803,11.4548375 111.738592,11.5733333 L112.558873,9.16240964 C113.009577,10.624257 113.460282,11.1145382 114.050704,11.3214458 C114.821408,11.5823293 115.501972,11.3754217 115.749859,10.651245 C115.997746,9.92706827 115.542535,9.48176707 114.731268,9.20738956 C114.520275,9.1139245 114.284463,9.09181213 114.059718,9.14441767 L114.451831,7.99293173 C114.606636,8.1506161 114.798889,8.2666643 115.010704,8.33028112 C115.569577,8.51919679 116.286197,8.51919679 116.484507,7.93445783 C116.597183,7.60160643 116.448451,7.17429719 115.803944,6.95389558 C114.956563,6.72798989 114.052076,6.9351328 113.388169,7.50714859 L114.113803,5.35261044 Z" id="Shape"></path>
                    <path d="M38.6523944,11.0695582 C39.6304225,11.8117269 40.3740845,12.0591165 41.2214085,11.762249 C41.9876056,11.4968675 42.1859155,10.9751004 42.028169,10.5342972 C41.8704225,10.093494 41.5774648,9.93606426 40.964507,9.90008032 L39.5538028,9.82811245 C38.8650877,9.8427239 38.239016,9.43095502 37.9808451,8.7935743 C37.6247887,7.7860241 38.2873239,6.7739759 39.5087324,6.34666667 C40.1126761,6.13526104 40.3560563,6.19823293 40.7391549,6.06329317 C40.9695007,5.99755387 41.169086,5.85254753 41.3025352,5.6539759 L42.023662,7.70506024 C41.4540358,7.18503148 40.6472072,7.01297839 39.9143662,7.25526104 C39.364507,7.4486747 39.0129577,7.80401606 39.1797183,8.26281124 C39.2923944,8.58216867 39.576338,8.71261044 40.2884507,8.71261044 L41.275493,8.71261044 C42.1212665,8.6358587 42.9060239,9.15860433 43.1594366,9.9675502 C43.5560563,11.0965462 42.9205634,12.1805622 41.6315493,12.6303614 C41.0095775,12.8462651 40.3425352,12.8462651 40.0315493,12.9542169 C39.8011546,13.0598237 39.6079752,13.232239 39.4771831,13.448996 L38.6523944,11.0695582 Z" id="Shape"></path>
                    <path d="M46.6974648,5.19068273 C46.5928376,4.84939175 46.3344079,4.57650557 45.9988732,4.45301205 L48.1667606,3.87277108 C47.9345792,4.14625691 47.8444685,4.51263758 47.9233803,4.86232932 L49.1177465,9.2973494 C49.2254599,9.63889981 49.4873929,9.91029685 49.8253521,10.0305221 L47.6574648,10.6107631 C47.8896462,10.3372772 47.9797569,9.97089655 47.9008451,9.62120482 L46.6974648,5.19068273 Z" id="Shape"></path>
                    <path d="M53.1335211,3.59839357 C53.05201,3.24795949 52.8098704,2.95630887 52.48,2.81124498 L54.6929577,2.39293173 C54.6827586,2.4705647 54.6827586,2.54919433 54.6929577,2.62682731 C54.7263955,2.75921383 54.7895878,2.8822683 54.8777465,2.98666667 L57.284507,6.19823293 L57.284507,6.19823293 L56.8157746,3.56240964 C56.6625352,2.76626506 56.4822535,2.42441767 55.891831,2.17253012 L58.1904225,1.72273092 C57.938614,1.97941356 57.8218453,2.3390051 57.8749296,2.69429719 L58.8169014,7.64208835 C58.8271054,7.8056163 58.9055876,7.95737017 59.0332394,8.06040161 L57.3971831,8.37076305 C57.4145223,8.31510242 57.4145223,8.25549999 57.3971831,8.19983936 C57.3402212,8.07222066 57.2642445,7.9539349 57.171831,7.84899598 L54.4676056,4.25060241 L54.4676056,4.25060241 L55.035493,7.22827309 C55.1887324,8.02441767 55.3690141,8.36626506 55.9594366,8.61815261 L53.6608451,9.06795181 C53.9132732,8.81164369 54.0301443,8.45173699 53.976338,8.09638554 L53.1335211,3.59839357 Z" id="Shape"></path>
                    <path d="M65.0230986,0.706184739 C65.474824,0.708337778 65.9261339,0.73386065 66.3752113,0.782650602 C66.5852397,0.760005787 66.7794693,0.660683039 66.9205634,0.5037751 L67.1819718,3.14859438 C0.477746479,-8.4043883e-14 67.1819718,3.14859438 67.1819718,3.14859438 C66.5464789,2.14104418 65.9515493,1.65975904 65.2664789,1.73172691 C64.5814085,1.80369478 63.8467606,2.36594378 64.0495775,4.22811245 C64.2208451,5.80240964 65.0050704,6.21172691 65.8523944,6.12176707 C66.6638498,6.00490719 67.3511351,5.46475683 67.6552113,4.7048996 L67.6867606,4.7048996 C67.835493,6.17124498 67.2360563,7.17429719 65.6946479,7.34072289 C64.4822535,7.47116466 63.0895775,6.84144578 62.8191549,4.33156627 C62.5487324,2.09606426 63.576338,0.863614458 65.0230986,0.706184739 L65.0230986,0.706184739 Z" id="Shape"></path>
                    <path d="M71.9639437,1.1784739 C71.9361029,0.821979678 71.7426257,0.499055547 71.4411268,0.305863454 L75.8129577,0.161927711 C76.0329885,0.161470352 76.2495832,0.107430412 76.4439437,0.00449799197 L76.5160563,2.14104418 C75.948169,1.34939759 75.3577465,1.10200803 74.2625352,1.13799197 C73.5008451,1.16048193 73.2259155,1.36289157 73.2439437,1.88016064 L73.275493,2.77975904 L73.9425352,2.77975904 C74.6591549,2.75726908 75.1774648,2.65381526 75.5109859,2.16353414 L75.5785915,4.2011245 C75.2135211,3.7513253 74.6771831,3.67935743 73.9740845,3.70184739 C73.7532394,3.70184739 73.5008451,3.72433735 73.3070423,3.7513253 L73.3476056,4.97477912 C73.3476056,5.50104418 73.604507,5.68546185 74.5419718,5.6539759 C75.5190342,5.71468448 76.4259239,5.14630136 76.795493,4.24160643 L76.8766197,6.70200803 C76.6043752,6.54437424 76.2864147,6.48408306 75.9752113,6.53108434 L71.6619718,6.67502008 C71.9429596,6.46038529 72.1092154,6.12854142 72.1126761,5.77542169 L71.9639437,1.1784739 Z" id="Shape"></path>
                    <path d="M87.7070423,1.50232932 C87.8498794,1.56722992 88.001908,1.60971246 88.1577465,1.62827309 C88.64,1.67325301 89.2709859,1.36738956 89.3160563,0.854618474 C89.3321789,0.710257652 89.2704319,0.568182548 89.1538028,0.481285141 L90.5780282,0.611726908 C90.4367203,0.718371112 90.3533784,0.884720325 90.3526761,1.0615261 L89.9019718,6.00931727 C89.8367833,6.42519904 89.9759864,6.84699128 90.2760563,7.14281124 L88.0721127,6.94040161 C88.405722,6.78360769 88.6232736,6.4535932 88.635493,6.08578313 L88.9509859,2.64481928 L87.9143662,2.52787149 C87.8090783,2.51410718 87.7020948,2.53294872 87.6078873,2.58184739 L87.7070423,1.50232932 Z" id="Shape"></path>
                    <path d="M96.6490141,6.11277108 C96.6994848,5.8096488 96.8734954,5.54092406 97.1296812,5.37047652 C97.3858669,5.20002897 97.7013468,5.14308199 98.0011268,5.21317269 C98.6591549,5.3211245 99.091831,5.73943775 98.9791549,6.41413655 C98.9377485,6.71142649 98.7684678,6.97590438 98.5155942,7.13838647 C98.2627206,7.30086856 97.9514106,7.34519077 97.6630986,7.25975904 C96.955493,7.15180723 96.5498592,6.70200803 96.6490141,6.11277108 L96.6490141,6.11277108 Z M95.3464789,5.92385542 C95.1842254,6.90441767 95.5267606,7.90746988 97.5098592,8.23582329 C99.2766197,8.52819277 100.105915,7.60160643 100.277183,6.59405622 C100.382591,5.93504808 100.068595,5.27966623 99.4884507,4.94779116 C100.046087,4.77543681 100.453599,4.29687025 100.534085,3.71983936 C100.705352,2.6897992 100.015775,1.92064257 98.6321127,1.67325301 C97.2484507,1.42586345 96.3380282,1.96562249 96.1667606,2.99116466 C96.0417217,3.55449446 96.2499909,4.13962125 96.7030986,4.49799197 C95.9892557,4.63002409 95.4416614,5.20556828 95.3464789,5.92385542 L95.3464789,5.92385542 Z M97.3070423,3.28803213 C97.3568942,3.04644611 97.5068655,2.83720015 97.7198501,2.71206582 C97.9328347,2.58693149 98.1889357,2.55759883 98.4247887,2.6313253 C99.0061972,2.73028112 99.411831,3.00016064 99.3261972,3.59389558 C99.2725091,3.84336895 99.1151915,4.0583526 98.8934147,4.18531793 C98.6716379,4.31228326 98.4062684,4.33928441 98.1633803,4.25959839 C97.9158999,4.25752032 97.6810233,4.15033432 97.5175639,3.9648799 C97.3541045,3.77942548 97.27754,3.53326312 97.3070423,3.28803213 L97.3070423,3.28803213 Z" id="Shape"></path>
                    <path d="M106.920563,7.75903614 L105.185352,7.30923695 L107.556056,5.11421687 L107.556056,5.11421687 L106.920563,7.75903614 Z M103.765634,8.11437751 C103.910666,8.05857721 104.071306,8.05857721 104.216338,8.11437751 L106.627606,8.71261044 L106.537465,9.07694779 C106.463723,9.40891191 106.245652,9.69084564 105.942535,9.84610442 L107.91662,10.3453815 C107.720403,10.0616432 107.662477,9.70487242 107.758873,9.37381526 L107.849014,9.00497992 L108.254648,9.10393574 C108.368873,9.11699972 108.46798,9.18862251 108.516056,9.29285141 L108.894648,7.77253012 C108.704841,8.01692977 108.389235,8.12778578 108.087887,8.05590361 L108.957746,4.56995984 C108.999521,4.37138105 109.133355,4.20442506 109.31831,4.12016064 L107.515493,3.67036145 C107.520623,3.70012955 107.520623,3.73055318 107.515493,3.76032129 C107.501617,3.81657846 107.468048,3.86603275 107.420845,3.89975904 L104.013521,7.10232932 L103.765634,8.11437751 Z" id="Shape"></path>
                    <path d="M114.113803,5.35261044 C114.225232,5.53303233 114.395537,5.66963831 114.596056,5.73943775 C115.082817,5.90586345 115.434366,5.79791165 116.286197,6.08578313 C117.741972,6.58056225 117.953803,7.48915663 117.705915,8.22232932 C117.528041,8.79370711 117.022909,9.20197129 116.425915,9.25686747 C116.960946,9.68798226 117.16663,10.4082321 116.939718,11.0560643 C116.489014,12.337992 115.209014,12.7473092 114.001127,12.337992 C113.230423,12.0771084 112.946479,11.6902811 112.477746,11.5328514 C112.236919,11.4400986 111.967803,11.4548375 111.738592,11.5733333 L112.558873,9.16240964 C113.009577,10.624257 113.460282,11.1145382 114.050704,11.3214458 C114.821408,11.5823293 115.501972,11.3754217 115.749859,10.651245 C115.997746,9.92706827 115.542535,9.48176707 114.731268,9.20738956 C114.520275,9.1139245 114.284463,9.09181213 114.059718,9.14441767 L114.451831,7.99293173 C114.606636,8.1506161 114.798889,8.2666643 115.010704,8.33028112 C115.569577,8.51919679 116.286197,8.51919679 116.484507,7.93445783 C116.597183,7.60160643 116.448451,7.17429719 115.803944,6.95389558 C114.956563,6.72798989 114.052076,6.9351328 113.388169,7.50714859 L114.113803,5.35261044 Z" id="Shape"></path>
                    <path d="M155.637183,73.9919679 L156.28169,73.9919679 L156.28169,72.808996 L157.04338,72.808996 C157.1357,72.7921123 157.23085,72.8153808 157.304889,72.872947 C157.378929,72.9305132 157.424809,73.0168963 157.430986,73.1103614 L157.430986,73.7130924 C157.440647,73.8108124 157.469761,73.905624 157.51662,73.9919679 L158.224225,73.9919679 L158.224225,73.8795181 C158.133607,73.8329847 158.085559,73.7315489 158.107042,73.6321285 C158.107042,73.4791968 158.107042,73.0878715 158.075493,72.9619277 C158.037155,72.7729585 157.90447,72.6167722 157.723944,72.5481124 C157.939933,72.4697094 158.10671,72.2949453 158.174648,72.0758233 C158.229799,71.8768032 158.218728,71.6652944 158.143099,71.4730924 C158.033809,71.1712501 157.738484,70.9772034 157.417465,70.9963052 L155.673239,70.9963052 L155.673239,73.9919679 L155.637183,73.9919679 Z M156.28169,71.5090763 L157.160563,71.5090763 C157.26026,71.4856922 157.365149,71.5113432 157.442717,71.5780785 C157.520286,71.6448137 157.561162,71.7445699 157.552676,71.8464257 C157.566655,71.9578034 157.533137,72.0699218 157.460294,72.155448 C157.38745,72.2409742 157.281974,72.2920504 157.169577,72.2962249 L156.268169,72.2962249 L156.268169,71.5180723 L156.28169,71.5090763 Z" id="Shape"></path>
                    <path d="M153.79831,72.4941365 C153.741204,71.2655473 154.439021,70.1259364 155.56057,69.6161762 C156.682118,69.106416 158.001623,69.3291241 158.892834,70.1786007 C159.784044,71.0280773 160.067553,72.3333179 159.608805,73.4748405 C159.150056,74.6163631 158.041399,75.3643727 156.809014,75.3638554 C155.18439,75.3990477 153.837683,74.1154038 153.79831,72.4941365 L153.79831,72.4941365 Z M154.249014,72.4941365 C154.199267,71.4398298 154.797557,70.461468 155.759831,70.0235524 C156.722106,69.5856368 157.854571,69.7763601 158.61956,70.5051717 C159.38455,71.2339832 159.628001,72.3541064 159.23433,73.333735 C158.840659,74.3133637 157.889148,74.9552086 156.831549,74.9545382 C156.158597,74.9751007 155.505217,74.7269612 155.016213,74.2651126 C154.527208,73.803264 154.242965,73.1658506 154.226479,72.4941365 L154.249014,72.4941365 Z" id="Shape"></path>
                    <path d="M87.788169,17.4342169 C86.3639437,14.4970281 83.5740845,15.9363855 81.3070423,17.0878715 C80.83873,17.0908476 80.3708814,17.1178713 79.9053521,17.1688353 C79.7729534,16.5677003 79.3753785,16.0585038 78.823662,15.7834538 C78.6984821,15.6968758 78.6255822,15.5530609 78.6298592,15.4011245 C78.6319383,15.2082131 78.7570539,15.0381081 78.9408451,14.9783133 C79.7688918,14.8453534 80.3711105,14.1222143 80.3506328,13.2854519 C80.3301552,12.4486896 79.6932816,11.7557525 78.8597183,11.6632932 C78.6782412,10.814282 77.9267621,10.2074226 77.0569014,10.2074226 C76.1870408,10.2074226 75.4355616,10.814282 75.2540845,11.6632932 C74.4464181,11.7537633 73.8200762,12.4093097 73.7679285,13.2187442 C73.7157808,14.0281787 74.2528464,14.7583767 75.0422535,14.9513253 C75.2057947,15.0133618 75.3228422,15.1589284 75.3481088,15.3317031 C75.3733753,15.5044779 75.3028972,15.677358 75.1639437,15.7834538 C74.6006471,16.0596556 74.1906363,16.5727898 74.0461972,17.1823293 C73.5480205,17.1235009 73.0469873,17.0919676 72.5453521,17.0878715 C70.291831,15.9363855 67.4884507,14.4970281 66.0642254,17.4342169 C64.3650704,15.7339759 60.2050704,15.0008032 59.844507,19.3683534 C59.6777465,21.5183936 61.435493,22.1616064 63.0985915,22.6024096 C63.3479012,23.0821815 63.6357935,23.5409817 63.9594366,23.9742972 C64.3290141,24.4780723 66.3076056,26.6191165 66.663662,27.3612851 L65.1267606,27.3612851 C64.9151811,27.3612851 64.743662,27.5324598 64.743662,27.7436145 L64.743662,28.4273092 C64.743662,29.2324498 66.451831,31.0676305 66.8123944,31.0676305 L87.2383099,31.0676305 C87.5943662,31.0676305 89.3070423,29.2369478 89.3070423,28.4273092 L89.3070423,27.7526104 C89.3070423,27.5414558 89.1355232,27.3702811 88.9239437,27.3702811 L87.1707042,27.3702811 C87.5447887,26.6281124 89.5233803,24.4870683 89.8749296,23.9832932 C90.2004902,23.550386 90.4899118,23.0915509 90.7402817,22.6114056 C92.4033803,22.1616064 94.1611268,21.5273896 93.9943662,19.3773494 C93.6698592,15.0008032 89.4873239,15.7429719 87.788169,17.4342169 L87.788169,17.4342169 Z M87.2923944,18.500241 C87.7430986,19.8496386 86.9273239,20.3983936 85.9402817,20.7492369 C86.0253779,20.1158209 85.9169927,19.4715183 85.6292958,18.9005622 C85.1392156,17.9647925 84.2117699,17.3364768 83.1594366,17.2273092 C84.8585915,16.3996787 86.4540845,15.9093976 87.2969014,18.504739 L87.2923944,18.500241 Z M80.004507,19.3413655 C80.0545021,19.0442178 80.0666171,18.7419505 80.0405634,18.4417671 L80.4056338,18.4057831 C84.376338,18.0639357 85.1740845,19.0984739 84.804507,20.9921285 C84.613351,21.0579691 84.4266691,21.1360979 84.2456338,21.2260241 C83.0332394,21.6758233 81.9921127,21.9816867 81.4287324,23.1196787 C80.8698592,22.4359839 80.1622535,22.1930924 79.355493,21.8107631 C79.7115144,21.0306476 79.9310258,20.195441 80.004507,19.3413655 L80.004507,19.3413655 Z M79.2878873,24.8289157 C80.5221889,25.0626628 81.4275936,26.1215242 81.4647887,27.3747791 L79.1571831,27.3747791 C79.6369576,26.6038777 79.6879773,25.6415413 79.2923944,24.8244177 L79.2878873,24.8289157 Z M81.9921127,24.3026506 C82.4428169,22.9937349 83.5425352,22.408996 84.7188732,21.9816867 C84.1766168,23.2563189 83.4290948,24.4338469 82.5059155,25.4676305 C82.3814276,25.0575339 82.2121481,24.6623361 82.0011268,24.2891566 L81.9921127,24.3026506 Z M74.6095775,13.2645783 C74.6106961,12.8252889 74.9503563,12.4608385 75.3892958,12.4279518 C75.5361355,12.3723667 75.6867501,12.327273 75.84,12.293012 C75.9571831,11.5643373 76.4304225,11.0110843 77.0073239,11.0110843 C77.5842254,11.0110843 78.0574648,11.5508434 78.1791549,12.2750201 C78.3682025,12.3112112 78.5537028,12.3638898 78.7335211,12.4324498 C79.1628408,12.4741089 79.4904097,12.8341003 79.4907042,13.2645783 C79.4907042,13.4900443 79.400958,13.7062758 79.2412087,13.8657043 C79.0814594,14.0251328 78.8647929,14.1146988 78.6388732,14.1146988 C78.3427297,14.1113816 78.070316,13.9523652 77.9222535,13.6963855 C77.7383756,14.0264335 77.3985342,14.2401037 77.0208451,14.2631325 C76.662186,14.247602 76.3346146,14.0554981 76.1464789,13.7503614 C75.9925255,13.9750709 75.7386526,14.1109809 75.4659155,14.1146988 C75.239216,14.1158959 75.0213898,14.0268586 74.8606644,13.8673002 C74.6999389,13.7077417 74.6095743,13.4908258 74.6095775,13.2645783 L74.6095775,13.2645783 Z M75.2630986,16.808996 L78.7876056,16.808996 L78.7876056,20.6187952 C78.7876056,21.1990361 77.9988732,21.6668273 77.0253521,21.6893173 C76.051831,21.7118072 75.2766197,21.1990361 75.2630986,20.6187952 L75.2630986,16.808996 L75.2630986,16.808996 Z M76.3988732,22.4494779 C76.4501633,22.2058538 76.6654853,22.031422 76.9149296,22.031422 C77.1643738,22.031422 77.3796959,22.2058538 77.4309859,22.4494779 C78.7300576,22.4753589 79.9564068,23.0529418 80.8022535,24.0372691 C79.7886137,23.4404393 78.5579835,23.3361616 77.4580282,23.7538956 C77.4580282,24.055261 76.9126761,24.4330924 76.9126761,24.4330924 C76.6747786,24.2578996 76.4868029,24.0237894 76.3673239,23.7538956 C75.2673686,23.3361616 74.0367384,23.4404393 73.0230986,24.0372691 C73.8699843,23.0517841 75.0982195,22.4740853 76.3988732,22.4494779 L76.3988732,22.4494779 Z M78.2783099,25.9804016 C78.2684029,26.5915576 77.8481,27.1197433 77.2538712,27.2677916 C76.6596425,27.4158399 76.039909,27.1467728 75.7433441,26.6119724 C75.4467792,26.0771719 75.5474562,25.4102156 75.9887324,24.9863454 C76.340597,25.1340645 76.6559159,25.3566471 76.9126761,25.6385542 C77.1702784,25.3544847 77.4872195,25.1303075 77.8411268,24.9818474 C78.121031,25.2385643 78.279718,25.6010157 78.2783099,25.9804016 L78.2783099,25.9804016 Z M74.6726761,27.3657831 L72.3650704,27.3657831 C72.4126568,26.1149948 73.3157561,25.0610117 74.5464789,24.8199197 C74.1445395,25.6322454 74.188792,26.593654 74.663662,27.3657831 L74.6726761,27.3657831 Z M73.4332394,18.4147791 L73.8839437,18.459759 C73.856315,18.7993211 73.8729801,19.141026 73.9335211,19.4763052 C74.0115182,20.2758083 74.2121701,21.0585999 74.5284507,21.7972691 C73.6991549,22.1795984 72.9735211,22.4314859 72.4011268,23.1466667 C71.8242254,22.0086747 70.7966197,21.6983133 69.5842254,21.253012 C69.4030369,21.1634199 69.2163767,21.0853002 69.0253521,21.0191165 C68.6557746,19.1074699 69.435493,18.0774297 73.4242254,18.4192771 L73.4332394,18.4147791 Z M71.8242254,24.2891566 C71.61331,24.6608121 71.4440277,25.0545081 71.3194366,25.4631325 C70.3912149,24.427162 69.6391174,23.2465825 69.0929577,21.9681928 C70.2738028,22.4 71.3960563,22.984739 71.8242254,24.2891566 L71.8242254,24.2891566 Z M66.5329577,18.504739 C67.3712676,15.9138956 68.9667606,16.3996787 70.6704225,17.2183133 C69.6197477,17.3289195 68.6942889,17.9570354 68.2050704,18.8915663 C67.9176424,19.4626101 67.8092712,20.1068296 67.8940845,20.740241 C66.8980282,20.4028916 66.0912676,19.8676305 66.5329577,18.504739 L66.5329577,18.504739 Z M62.6749296,21.5903614 C62.4428685,21.5056222 62.2169746,21.4049255 61.9988732,21.288996 C59.1053521,19.7281928 63.0129577,14.4520482 65.604507,18.1853815 C64.7858346,17.7561585 63.7780684,17.9546849 63.1842254,18.6621687 C62.5252037,19.4876855 62.3332213,20.5914876 62.6749296,21.5903614 L62.6749296,21.5903614 Z M63.6484507,21.8962249 C63.2383099,20.9741365 63.1977465,20.0520482 63.8602817,19.1974297 C64.3560563,18.5677108 65.1538028,18.9005622 65.5278873,19.1119679 C65.3791549,20.6907631 66.6411268,21.1405622 68.0833803,21.6263454 C68.5340845,23.2276305 69.7149296,24.8424096 70.5847887,25.8859438 C70.8056338,26.1513253 70.9949296,26.3627309 71.1166197,26.4976707 C71.0836864,26.7857965 71.0731385,27.0760333 71.0850704,27.3657831 L68.3808451,27.3657831 C69.3814085,22.939759 66.24,22.6159036 63.6484507,21.9142169 L63.6484507,21.8962249 Z M64.1938028,22.8632932 C66.2850704,23.3715663 68.2501408,23.9967871 67.5109859,27.1723695 C67.1459155,26.0883534 65.3025352,24.5320482 64.1938028,22.8812851 L64.1938028,22.8632932 Z M88.2569014,28.2159036 L88.6129577,28.2788755 L88.3650704,28.9400803 L65.5143662,28.9400803 L65.4287324,28.2968675 L65.7892958,28.2338956 L88.2614085,28.2338956 L88.2569014,28.2159036 Z M86.3188732,27.1723695 C85.5752113,23.9922892 87.5447887,23.3670683 89.6360563,22.8632932 C88.5273239,24.5320482 86.6794366,26.0883534 86.3188732,27.1903614 L86.3188732,27.1723695 Z M90.1678873,21.9142169 C87.576338,22.6159036 84.4349296,22.9307631 85.4715493,27.3657831 L82.7673239,27.3657831 L82.7673239,27.3657831 C82.7762312,27.0759235 82.7641812,26.7858002 82.7312676,26.4976707 C82.8529577,26.3627309 83.0377465,26.1513253 83.2630986,25.8859438 C84.1374648,24.8379116 85.3002817,23.2276305 85.764507,21.6263454 C87.1977465,21.1765462 88.4371831,20.6727711 88.3064789,19.1254618 C88.6805634,18.9140562 89.4783099,18.5812048 89.9740845,19.2109237 C90.5749706,19.9921062 90.6512152,21.0556174 90.1678873,21.9142169 L90.1678873,21.9142169 Z M91.8174648,21.306988 C91.5992755,21.4227379 91.3733942,21.523429 91.1414085,21.6083534 C91.4785075,20.607149 91.2814627,19.5035408 90.6185915,18.6801606 C90.0256759,17.9711139 89.0167195,17.772353 88.1983099,18.2033735 C90.8123944,14.4745382 94.72,19.7461847 91.8309859,21.306988 L91.8174648,21.306988 Z" id="Shape"></path>
                    <path d="M151.981972,74.6396787 C130.010141,69.0621687 103.918873,65.8281124 75.9707042,65.8281124 C69.7374648,65.8281124 63.4140845,65.9990361 57.5549296,66.3093976 L57.5549296,62.7514859 C58.8682275,63.461017 60.3552976,63.7868296 61.8456338,63.6915663 C68.2456338,63.3407229 71.4050704,58.788755 71.4726761,49.7792771 C71.4276056,43.7384739 70.2422535,39.5463454 67.9346479,37.3243373 C66.555493,35.9749398 64.7797183,35.4171888 62.616338,35.4171888 L62.616338,35.4171888 C60.3633626,35.3590785 58.2412592,36.4707754 57.0095775,38.3543775 L56.9329577,35.6555823 L56.6805634,35.7545382 C53.7509859,36.8655422 50.9430986,37.9630522 48.1171831,39.1055422 L47.8602817,39.208996 L48.0180282,39.4159036 C49.2612468,40.9395686 49.9323593,42.8486369 49.915493,44.813494 L49.915493,63.7860241 L49.6630986,63.5296386 C48.3335211,61.7304418 47.6619718,60.3810442 47.6619718,57.12 L47.6619718,44.6245783 C47.6619718,41.7458635 47.0174648,39.6767871 45.6428169,38.4443373 C44.4890141,37.4187952 42.9385915,37.0049799 40.8878873,37.2208835 C38.724507,37.499759 36.5430986,38.7771888 34.8304225,40.7338153 C33.0276056,38.5882731 30.5983099,38.633253 28.4259155,38.9706024 C25.4287324,39.4743775 23.468169,40.7697992 22.2602817,43.0187952 L22.188169,39.9556627 L21.9177465,40.0861044 C18.7628169,41.6109237 16.0585915,42.9513253 13.3543662,44.3097189 L13.1064789,44.4356627 L13.3092958,44.6245783 C14.5777432,45.9564939 15.2663968,47.7353124 15.2247887,49.5723695 L15.2247887,60.8173494 C15.2546304,63.1315919 14.709571,65.4171718 13.6383099,67.4698795 C12.4484507,65.2928514 12.0383099,63.2372691 12.0383099,59.8232932 L12.0383099,42.6679518 C12.0383099,38.8581526 12.5160563,36.5281928 13.971831,33.4245783 L14.1250704,33.064739 L13.7329577,33.1546988 C9.55943662,34.1172691 5.5256338,35.1383133 1.41521127,36.2718072 L1.1628169,36.3437751 L1.18985915,36.5641767 C2.61408451,38.7861847 3.02422535,40.886747 3.02422535,44.5930924 L3.02422535,61.5010442 C3.02422535,65.2388755 2.63211268,67.5013655 1.18084507,70.4655422 L1.06366197,70.8208835 L1.47830986,70.7399197 C5.59774648,69.8718072 9.63605634,69.0936546 13.7915493,68.3604819 C17.2935211,67.739759 20.6783099,67.195502 24.1216901,66.6917269 L24.4056338,66.651245 L24.2659155,66.4038554 C23.3419718,64.8070683 22.8597183,62.5895582 22.8597183,59.8097992 L22.8597183,50.8273092 C22.8597183,48.9291566 23.8242254,47.584257 25.2980282,47.3233735 C25.8687834,47.2128311 26.4596288,47.3520561 26.9205634,47.7057028 C27.5389631,48.3100881 27.8672873,49.1505486 27.8219718,50.0131727 L27.8219718,59.4589558 C27.8219718,62.0228112 27.1594366,64.7485944 26.343662,66.08 L26.0957746,66.4308434 L26.4833803,66.3723695 C29.8050704,65.9225703 33.0185915,65.499759 36.6197183,65.0904418 L36.908169,65.0589558 L36.8180282,64.7710843 C35.8940845,63.1383133 35.4659155,60.8893173 35.4659155,58.0825703 L35.4659155,48.9966265 C35.4659155,47.0759839 36.3673239,45.7535743 37.8321127,45.5511647 C38.3486826,45.4679449 38.8741121,45.6349432 39.2473239,46.0009639 C39.788169,46.482249 39.9729577,47.3503614 39.9729577,48.3893976 L39.9729577,57.9341365 C39.9729577,60.5159839 39.468169,63.2327711 38.6523944,64.5416867 L38.4901408,64.8790361 L38.9047887,64.8385542 C42.4743662,64.4607229 45.9538028,64.1458635 49.5729577,63.8714859 L49.8884507,63.844498 L49.8884507,66.7996787 C31.8602817,68.1490763 15.3059155,70.7938956 0.446197183,74.5362249 C0.446197183,74.5362249 19.8264789,70.4880321 49.811831,68.7697992 C49.6378721,70.6125389 49.0193007,72.3858173 48.0090141,73.937992 L47.783662,74.2708434 L48.1892958,74.2393574 C51.948169,73.946988 55.5177465,73.7220884 59.411831,73.5331727 L59.7769014,73.5331727 L59.5605634,73.2408032 C58.5321868,71.8045856 57.8968266,70.1255798 57.7171831,68.3694779 C84.051831,67.2899598 117.138028,68.1760643 151.981972,74.6396787 L151.981972,74.6396787 Z M4.82704225,61.1457028 C4.82704225,64.2673092 4.5115493,66.3993574 3.61464789,68.7428112 L3.61464789,68.8237751 L2.46985915,69.0621687 L2.5915493,68.7967871 C3.56331704,66.3204458 4.02323975,63.6735506 3.94366197,61.015261 L3.94366197,44.0803213 C3.94366197,40.868755 3.5515493,38.8536546 2.5915493,36.8835341 L2.51042254,36.7036145 L3.45690141,36.4337349 L3.56507042,37.0049799 C4.49352113,38.9436145 4.82704225,40.9587149 4.82704225,44.1567871 L4.82704225,61.1187149 L4.82704225,61.1457028 Z M16.9960563,60.5249799 C16.9843429,62.5652575 16.5788294,64.5841721 15.8016901,66.4713253 L15.7340845,66.5522892 L14.5622535,66.7502008 L14.5622535,66.4893173 C15.3231763,64.5352417 15.6877835,62.44984 15.6349296,60.3540562 L15.6349296,49.1090763 C15.6690902,47.5286182 15.2584219,45.9702773 14.4495775,44.6110843 L14.3549296,44.3816867 L15.256338,44.3546988 L15.6078873,44.804498 C16.4812554,46.1435049 16.9505911,47.7048158 16.96,49.30249 L16.96,60.5744578 L16.9960563,60.5249799 Z M23.463662,43.9408835 C23.2830177,44.3189444 22.9335911,44.589248 22.5216901,44.6695582 L22.3774648,44.6695582 C22.2554376,44.6714128 22.1347886,44.6436267 22.0259155,44.5885944 L21.8050704,44.4716466 L22.0078873,44.3232129 C22.2047558,44.1936188 22.3609785,44.0112053 22.4585915,43.7969478 C23.4005634,41.5479518 25.0816901,40.3559839 27.9121127,39.8836948 L27.9707042,40.1940562 C25.7171831,40.7787952 24.315493,41.9347791 23.463662,43.9408835 L23.463662,43.9408835 Z M29.3228169,59.2070683 C29.3261355,61.0033178 29.071142,62.790747 28.5656338,64.5146988 L28.5385915,64.6091566 L27.4208451,64.7575904 L27.4614085,64.5236948 C27.9939971,62.7419966 28.2568055,60.8908712 28.2411268,59.0316466 L28.2411268,49.5858635 C28.2411268,48.2364659 27.8535211,47.1479518 27.0828169,46.482249 L27.2450704,46.2168675 C27.5748421,46.3175462 27.8812558,46.4826774 28.1464789,46.7026506 C28.8991549,47.3548594 29.3092958,48.4073896 29.3228169,49.7567871 L29.3228169,59.2025703 L29.3228169,59.2070683 Z M36.0473239,41.4939759 C35.8685724,41.7188042 35.6039349,41.8590088 35.3171831,41.8808032 L35.2811268,41.8808032 C35.1377517,41.8841478 34.9965987,41.8450173 34.875493,41.7683534 L34.6997183,41.6559036 L34.8619718,41.5209639 C34.9183048,41.4788905 34.9710657,41.4322533 35.0197183,41.3815261 C36.5385915,39.5823293 38.4991549,38.4263454 40.4056338,38.1879518 L40.5678873,38.1879518 L40.6264789,38.4893173 C38.8335848,39.0118093 37.238641,40.0583477 36.0473239,41.4939759 L36.0473239,41.4939759 Z M41.7802817,57.7407229 C41.7863293,59.5388494 41.5374792,61.3287899 41.0411268,63.0573494 L41.0411268,63.1563052 L39.9369014,63.268755 L40.0450704,63.0438554 C40.6010781,61.2640872 40.8881759,59.4115526 40.8969014,57.5473092 L40.8969014,47.9980723 C40.9560544,46.8058707 40.5075013,45.6442617 39.6619718,44.8 L39.5898592,44.7550201 L39.7340845,44.4896386 C40.0687678,44.6117018 40.3753485,44.7998703 40.635493,45.0428916 C41.4016901,45.7490763 41.7802817,46.8420884 41.7802817,48.1914859 L41.7802817,57.7407229 L41.7802817,57.7407229 Z M58.3391549,56.4228112 C57.8614085,55.973012 57.6225352,55.2083534 57.6090141,54.1018474 L57.6090141,46.9455422 C57.6405634,43.2571888 59.1864789,42.7309237 60.3402817,42.6589558 L60.4709859,42.6589558 C60.9500103,42.6238821 61.4224773,42.7864746 61.7780282,43.108755 C62.6208451,43.9183936 63.0039437,45.9604819 63.0174648,49.7342972 C62.9904225,55.7256225 62.0890141,56.8771084 60.3132394,56.9850602 C59.6066655,57.073801 58.8942602,56.8725205 58.3391549,56.4273092 L58.3391549,56.4228112 Z M62.188169,41.6648996 C62.542559,41.7984275 62.8627718,42.0089134 63.1256338,42.2811245 C64.2073239,43.3741365 64.6760563,45.5916466 64.6895775,49.6983133 C64.6895775,53.8769478 64.2388732,55.9640161 63.1166197,57.146988 C62.4963807,57.7502116 61.6565646,58.075068 60.7909859,58.0465863 L60.7414085,57.7452209 C61.2558697,57.6016922 61.7226321,57.3237498 62.0935211,56.9400803 C63.2247887,55.7481124 63.675493,53.6475502 63.684507,49.4419277 C63.6935211,45.2363052 63.1977465,43.0907631 62.0394366,41.9212851 L62.188169,41.6648996 Z M51.7002817,66.7502008 C51.7132603,68.7465993 51.3159727,70.7244559 50.5329577,72.5616064 L50.4743662,72.6470683 L49.3205634,72.7280321 L49.5188732,72.4941365 C50.3596322,70.6190964 50.7957422,68.5885136 50.7988732,66.5342972 L50.7988732,44.4941365 C50.7589332,42.782385 50.2827413,41.1089982 49.4152113,39.6318072 L49.2349296,39.3979116 L50.1047887,39.3979116 L50.3932394,39.8477108 C51.23435,41.3237669 51.684217,42.989577 51.7002817,44.6875502 L51.7002817,66.7277108 L51.7002817,66.7502008 Z M57.2664789,39.9601606 C57.1185354,39.9611823 56.9732867,39.9206566 56.8473239,39.8432129 L56.6490141,39.7217671 L56.8383099,39.5868273 C56.9821551,39.4874289 57.0996941,39.3546914 57.1808451,39.2 C58.235493,37.1084337 60.3132394,36.5236948 61.868169,36.406747 L61.9132394,36.7126104 C60.3249105,36.9934249 58.9548601,37.9890312 58.1994366,39.4114056 C58.0138204,39.7391286 57.6745408,39.9507526 57.2980282,39.9736546 L57.2664789,39.9736546 L57.2664789,39.9601606 Z" id="Shape"></path>
                    <path d="M92.1059155,53.746506 C89.915493,55.2983133 86.6749296,56.4453012 84.588169,56.4183133 C81.6315493,56.3193574 80.0540845,54.8170281 79.7656338,51.8303614 C83.515493,51.8708434 87.0625352,51.9608032 90.5825352,52.1137349 C91.0240699,52.13465 91.4600235,52.2210593 91.8760563,52.3701205 L92.1329577,52.4600803 L92.1329577,52.082249 C92.0067606,38.2149398 88.108169,35.4396787 82.2850704,34.9898795 L82.2039437,34.9898795 C77.4625352,34.9898795 71.8377465,37.531245 71.7160563,49.4104418 C71.7926761,58.9236948 75.0332394,63.3272289 82.5329577,63.3272289 L82.6140845,63.3272289 C88.6129577,63.3272289 92.2591549,59.8367871 92.3808451,53.8544578 L92.3808451,53.5081124 L92.1059155,53.746506 Z M84.1149296,40.8012851 C85.5932394,41.422008 86.3684507,43.1627309 86.4180282,46.1314056 C86.4197329,46.3871668 86.3284587,46.6348703 86.1611268,46.8285944 C86.0035529,46.996685 85.7874105,47.0981001 85.5571831,47.1119679 L85.5571831,47.1119679 L84.9757746,47.057992 L84.908169,46.7431325 C84.994175,46.6941483 85.0730336,46.6336096 85.1425352,46.5632129 C85.3259044,46.3723385 85.4263325,46.1169227 85.4219718,45.8525301 C85.3678873,43.5630522 84.8766197,41.9482731 83.9616901,41.0576707 L84.1149296,40.8012851 Z M76.9938028,60.8983133 C76.4266273,60.5849878 75.9037321,60.1977635 75.4388732,59.7468273 C73.3746479,57.668755 72.4056338,54.3492369 72.3876056,49.297992 C72.3695775,44.246747 73.4602817,40.7518072 75.5966197,38.5028112 C77.0142687,37.0564344 78.9422183,36.2202998 80.9690141,36.1728514 L81.0005634,36.4787149 C79.3462002,36.7164498 77.8162223,37.4909671 76.6467606,38.6827309 C74.4969014,40.9632129 73.4377465,44.5301205 73.4152113,49.5408835 C73.3926761,54.5516466 74.4157746,57.9566265 76.4890141,60.0436948 C76.7084429,60.2550912 76.9402092,60.4533491 77.1830986,60.6374297 L76.9938028,60.8983133 Z M82.3166197,41.7143775 L82.3166197,41.7143775 C83.8670423,41.7143775 84.6332394,43.095261 84.7278873,45.911004 C83.0377465,45.8705221 81.3701408,45.8480321 79.6484507,45.8300402 C79.7566197,42.9423293 80.5543662,41.7143775 82.3211268,41.7143775 L82.3166197,41.7143775 Z M90.3571831,56.3058635 L90.2850704,56.3373494 C88.8035327,56.9895951 87.2214465,57.385083 85.6067606,57.5068273 L85.5752113,57.2009639 C87.2026629,56.9129189 88.7798883,56.3917677 90.2580282,55.6536546 L90.555493,55.5052209 L90.3571831,56.3058635 Z" id="Shape"></path>
                    <path d="M114.208451,28.2653815 C112.658028,28.0629719 111.40507,28.3328514 110.580282,29.0480321 C109.755493,29.7632129 109.426479,30.7167871 109.408451,32.0571888 C109.44,34.8054618 111.125634,36.5551807 114.158873,36.964498 L114.158873,36.964498 C114.478949,37.0028456 114.801007,37.0223706 115.12338,37.0229719 C116.099265,37.0784003 117.061572,36.7742817 117.827606,36.1683534 C118.562254,35.5341365 118.936338,34.5670683 118.954366,33.2851406 C118.913803,30.5413655 117.187606,28.7106827 114.208451,28.2653815 L114.208451,28.2653815 Z M111.842254,34.5625703 L111.977465,34.706506 L111.792676,34.9493976 C110.655548,34.3893737 109.971364,33.1980115 110.061972,31.935743 C110.007649,31.155648 110.284004,30.3886301 110.823662,29.8216867 L110.823662,29.8216867 C111.501276,29.2928137 112.364801,29.0607306 113.216901,29.1784739 L113.216901,29.4843373 C112.716807,29.5577784 112.247905,29.7714805 111.864789,30.1005622 C111.308414,30.6787705 111.022056,31.464264 111.076056,32.2640964 C111.046094,33.0992942 111.31624,33.9176763 111.837746,34.5715663 L111.842254,34.5625703 Z" id="Shape"></path>
                    <path d="M119.95493,65.2208835 C119.076056,63.8714859 118.025915,61.5280321 118.007887,57.9386345 L118.007887,37.9900402 L117.877183,38.0170281 C114.988169,38.4038554 112.090141,38.8266667 109.385915,39.3034538 L109.385915,37.2028916 L109.070423,37.2388755 L108.651268,37.3108434 C108.432018,37.3670934 108.206029,37.3928256 107.979718,37.3873092 C107.512057,37.3098558 107.057162,37.1691216 106.627606,36.968996 C106.163211,36.7504339 105.669998,36.5989806 105.162817,36.5191968 C102.940845,36.3257831 101.962817,37.3333333 100.827042,39.8027309 L100.750423,36.0648996 L100.516056,36.1188755 C97.6721127,36.7710843 94.8642254,37.4682731 91.9526761,38.2284337 L91.6642254,38.3048996 L91.7678873,38.5387952 C92.9751783,40.2029137 93.6236193,42.2057379 93.6202817,44.260241 L93.6202817,55.8965462 C93.6202817,59.4949398 92.6377465,61.6944578 91.7633803,62.8999197 L91.5966197,63.1877912 L91.9752113,63.1877912 C95.9729577,63.3677108 99.5470423,63.5836145 103.202254,63.86249 L103.60338,63.8939759 L103.305915,63.5656225 C102.427042,62.2567068 101.286761,59.935743 101.286761,56.3328514 L101.286761,47.8226506 C101.286761,46.2033735 101.764507,45.0024096 102.47662,44.3546988 C102.934157,43.955448 103.533886,43.7575617 104.139718,43.8059438 C106.082254,43.9993574 107.294648,45.4027309 108.772958,47.3413655 L109.376901,47.9800803 L109.376901,40.895743 C109.996993,42.9598491 110.300896,45.10564 110.27831,47.2604016 L110.27831,57.1559839 C110.27831,60.7318876 109.246197,62.8684337 108.371831,64.0289157 L108.178028,64.3077912 L108.529577,64.3392771 C112.24338,64.6766265 115.921127,65.0679518 119.75662,65.535743 L120.171268,65.5852209 L119.95493,65.2208835 Z M95.4185915,55.986506 C95.4544224,57.9921761 95.07226,59.9833952 94.296338,61.8338956 L94.2602817,61.9328514 L93.1515493,61.8743775 L93.2461972,61.6674699 C94.0565335,59.779724 94.4603753,57.7431155 94.4315493,55.6896386 L94.4315493,44.0803213 C94.4025084,42.311578 93.9595483,40.574102 93.1380282,39.0065863 L93.011831,38.7636948 L93.9132394,38.8266667 L94.1611268,39.3259438 C94.9797868,40.8838112 95.4154365,42.61366 95.4321127,44.3726908 L95.4321127,56.004498 L95.4185915,55.986506 Z M102.070986,41.1746185 C101.915331,41.4807337 101.5943,41.6673322 101.250704,41.6514056 L101.183099,41.6514056 C101.022262,41.639582 100.86712,41.5869397 100.732394,41.4984739 L100.561127,41.3815261 L100.75493,41.2510843 C100.884799,41.1659085 100.987914,41.0458493 101.052394,40.904739 C102.363944,37.8326104 103.089577,37.3558233 104.581408,37.4772691 L104.590423,37.7831325 C103.689014,38.0125301 103.044507,38.9031325 102.070986,41.1746185 L102.070986,41.1746185 Z M112.094648,57.3134137 C112.116375,59.3003296 111.709015,61.2686061 110.900282,63.0843373 L110.837183,63.1832932 L109.723944,63.0753414 L109.904225,62.8774297 C110.754351,61.0328119 111.188231,59.0243912 111.175211,56.9940562 L111.175211,47.1254618 C111.175211,44.1882731 110.683944,42.020241 109.863662,40.306506 L109.705915,40.0771084 L110.548732,40.1085944 L110.837183,40.6528514 C111.652958,42.3620884 112.07662,44.5211245 112.07662,47.4448193 L112.07662,57.3089157 L112.094648,57.3134137 Z" id="Shape"></path>
                    <path d="M151.373521,70.4475502 C150.494648,69.0351807 149.503099,66.619759 149.503099,63.1293173 L149.503099,34.9853815 L149.24169,34.9853815 C146.086761,34.9448996 143.035493,34.9853815 139.943662,35.0798394 L139.533521,35.0798394 L139.849014,35.3812048 C141.129014,36.9195181 141.841127,39.3754217 141.841127,42.8838554 L141.841127,61.6539759 C141.878321,63.8008501 141.277671,65.9106414 140.11493,67.7172691 C139.249577,66.2239357 138.686197,64.8475502 138.686197,63.295743 L138.686197,48.8122088 C138.686197,44.0308434 135.747606,41.0531727 129.987606,39.9601606 C128.796256,39.7579234 127.590411,39.6526238 126.381972,39.6453012 C125.47717,39.6390732 124.573779,39.5729576 123.677746,39.4473896 C123.021483,39.332753 122.380382,39.1441288 121.766761,38.8851406 L121.572958,38.7816867 L121.572958,50.5889157 L121.856901,50.1661044 C125.214648,46.0234538 127.743099,45.8300402 129.590986,46.1179116 C130.615255,46.2301108 131.380762,47.1096553 131.348732,48.13751 C131.258592,49.5993574 129.460282,50.0851406 127.193239,50.6968675 C123.704789,51.6414458 119.364507,52.8199197 119.211268,58.3434538 C119.265352,63.1608032 121.730704,66.1879518 126.161127,66.8626506 C128.694085,67.2 130.839437,66.7457028 132.254648,65.5807229 C132.619718,66.4488353 133.435493,67.3799197 134.192676,67.5373494 C136.108169,67.8477108 137.987606,68.1715663 139.930141,68.5179116 C143.598873,69.1746185 147.141408,69.8673092 151.112113,70.6994378 L151.589859,70.7938956 L151.373521,70.4475502 Z M122.947606,46.3697992 C122.713239,46.5452209 122.528451,46.7386345 122.303099,46.9410442 L122.068732,47.1659438 L122.068732,46.8240964 L122.068732,42.533012 L122.068732,40.1490763 L122.330141,40.2120482 C122.546479,40.2660241 122.753803,40.315502 122.961127,40.3559839 L122.992676,40.3784739 L122.884507,40.6978313 L122.884507,46.3293173 L122.947606,46.3697992 Z M122.627606,63.9119679 C122.767324,64.0604016 122.907042,64.1998394 123.051268,64.3257831 L122.866479,64.5731727 C122.396434,64.2875391 121.968644,63.9378189 121.595493,63.5341365 C120.450704,62.2522088 119.860282,60.48 119.846761,58.266988 C119.92338,53.4451406 123.903099,52.3926104 127.125634,51.546988 L127.31493,51.49751 C129.789296,50.8497992 131.925634,50.2875502 131.975211,48.1105221 C131.975996,47.2489343 131.654553,46.4180699 131.073803,45.7805622 L131.263099,45.5466667 C131.623872,45.7419845 131.946097,46.0010758 132.214085,46.3113253 C132.728206,46.9166856 133.008019,47.6858247 133.002817,48.4793574 C132.953239,50.4899598 131.231549,51.0387149 128.428169,51.7718876 L128.220845,51.8258635 C124.984789,52.6714859 120.96,53.7240161 120.878873,58.5998394 C120.878873,60.8263454 121.473803,62.6120482 122.618592,63.9119679 L122.627606,63.9119679 Z M128.626479,60.8713253 C127.545705,60.6479254 126.792057,59.6680443 126.855211,58.5683534 C126.900282,57.128996 128.238873,56.4812851 129.532394,55.8695582 C130.081337,55.6252803 130.607685,55.3332848 131.105352,54.9969478 L131.186479,58.3434538 C131.186479,59.342008 130.92507,60.0616867 130.433803,60.484498 C129.918911,60.8713293 129.259687,61.012778 128.630986,60.8713253 L128.626479,60.8713253 Z M131.727324,61.4695582 C131.204197,61.8795379 130.553278,62.0928906 129.888451,62.0722892 C129.73793,62.0724852 129.587497,62.0649787 129.437746,62.0497992 L129.437746,61.7439357 C129.908464,61.6594113 130.352027,61.463525 130.731268,61.1726908 C131.47493,60.5609639 131.907606,59.5804016 131.907606,58.257992 L131.907606,54.5336546 C131.889477,54.3556814 131.82923,54.184555 131.731831,54.0343775 L131.560563,53.746506 L131.858028,53.8139759 C132.392143,53.9051585 132.789039,54.3575747 132.809014,54.897992 L132.809014,58.6178313 C132.827042,59.931245 132.466479,60.8668273 131.727324,61.4695582 L131.727324,61.4695582 Z M133.665352,66.1789558 C133.246223,65.8616013 132.932202,65.4259889 132.763944,64.9285141 C132.743136,64.8601663 132.715975,64.7939079 132.682817,64.7306024 L132.552113,64.4742169 L132.836056,64.5057028 C132.91926,64.5152669 133.000988,64.5349026 133.079437,64.5641767 C133.41241,64.6890664 133.669788,64.9591857 133.778028,65.2973494 C133.863282,65.5456168 133.986421,65.7792644 134.143099,65.9900402 L134.359437,66.2914056 L133.665352,66.1789558 Z M143.188732,62.0048193 C143.188732,64.1458635 142.886761,66.0170281 142.12507,67.5733333 L142.12507,67.6767871 L141.061408,67.4743775 L141.129014,67.2899598 C141.946557,65.5146539 142.344399,63.5756037 142.291831,61.62249 L142.291831,42.8928514 C142.291831,40.0636145 141.922254,37.9450602 141.101972,36.1728514 L141.011831,35.9434538 L141.845634,35.9839357 L142.061972,36.6046586 C142.877746,38.3498795 143.193239,40.4729317 143.193239,43.2931727 L143.193239,62.0093173 L143.188732,62.0048193 Z" id="Shape"></path>
                    <path d="M129.514366,81.8319679 C129.388169,81.8319679 129.293521,81.8634538 129.180845,81.8769478 C128.967428,81.9203585 128.749004,81.9339826 128.531831,81.9174297 C128.063764,81.8256051 127.609378,81.6744471 127.179718,81.4676305 C126.753683,81.2451186 126.298576,81.0831233 125.827606,80.9863454 C123.628169,80.7029719 122.424789,81.5755823 121.52338,83.7751004 L121.52338,80.3431325 L121.189859,80.3791165 C118.390986,80.8289157 115.610141,81.2787149 112.554366,81.8274699 L112.252394,81.8634538 L112.450704,82.1198394 C113.653045,83.6223056 114.326205,85.4780787 114.366197,87.4004819 L114.366197,97.975261 C114.366197,99.9678715 114.046197,101.663614 113.298028,103.031004 C112.788269,102.030442 112.535812,100.919079 112.56338,99.7969478 L112.56338,86.2085141 C112.56338,81.6475502 109.471549,79.0881928 103.693521,78.5979116 C102.46678,78.5208529 101.23601,78.5343838 100.011268,78.6383936 C99.0970107,78.7158892 98.1788285,78.7369199 97.2619718,78.7013655 C96.5827162,78.6597307 95.910119,78.5435825 95.256338,78.3550201 L94.9859155,78.2830522 L94.9859155,89.1906827 L95.3419718,88.7813655 C98.776338,84.6522088 101.435493,84.3283534 103.130141,84.4408032 C104.234366,84.535261 104.878873,85.1649799 104.892394,86.1545382 C104.802254,87.5354217 102.891268,88.1561446 100.669296,88.8533333 C97.2123944,89.9733333 92.9126761,91.3632129 92.7684507,96.3649799 C92.8180282,100.71004 95.2878873,103.318876 99.731831,103.719197 C102.273803,103.908112 104.419155,103.381847 105.820845,102.252851 C106.190423,103.026506 107.006197,103.858635 107.76338,103.95759 C109.291268,104.11502 110.864225,104.290442 112.567887,104.492851 C116.394366,104.942651 120.063099,105.464418 123.785915,106.049157 L124.23662,106.116627 L123.984225,105.747791 C122.667388,103.72857 121.980377,101.364864 122.010141,98.9558233 L122.010141,91.1248193 C122.010141,89.7214458 122.375211,88.6779116 123.019718,88.1156627 C123.502671,87.712029 124.137662,87.5380035 124.759437,87.6388755 C126.724507,87.940241 127.765634,89.3166265 129.266479,91.2372691 L129.658592,91.8040161 L129.658592,81.8094779 L129.514366,81.8319679 Z M96.7707042,79.8888353 L96.7707042,85.0660241 L96.6625352,85.111004 C96.4326761,85.2909237 96.2794366,85.4843373 96.0450704,85.691245 L95.8692958,85.9206426 L95.8692958,79.4120482 L95.9414085,79.4390361 C96.1802817,79.4750201 96.3560563,79.506506 96.5904225,79.528996 L96.7616901,79.528996 L96.7707042,79.8888353 Z M100.416901,96.1085944 C100.457465,94.7906827 101.895211,94.106988 103.220282,93.4412851 C103.797133,93.1848097 104.353169,92.8840405 104.88338,92.5416867 L104.88338,95.5958233 C104.916238,96.3276131 104.636071,97.0388858 104.112676,97.5524498 C103.575434,97.9792732 102.886448,98.1678353 102.206197,98.0742169 C101.183136,97.993571 100.399428,97.1326332 100.416901,96.1085944 L100.416901,96.1085944 Z M106.235493,95.757751 C106.235493,96.9587149 105.942535,97.8628112 105.216901,98.4565462 C104.629303,98.9149777 103.897966,99.1508303 103.152676,99.122249 L102.922817,99.122249 L102.922817,98.8163855 C103.405794,98.7211249 103.858723,98.5113139 104.24338,98.2046586 C104.987042,97.6019277 105.347606,96.6798394 105.347606,95.4608835 L105.347606,92.0109237 C105.357516,91.883622 105.337451,91.7557717 105.289014,91.6375904 L105.180845,91.3812048 L105.383662,91.4171888 C105.867361,91.4365132 106.249402,91.8336726 106.249014,92.3167871 L106.249014,95.766747 L106.235493,95.757751 Z M101.886197,89.7439357 L101.737465,89.7889157 C98.5059155,90.8009639 94.4856338,92.0379116 94.4090141,96.4729317 C94.4090141,98.4970281 95.0174648,100.093815 96.1847887,101.213815 L96.3470423,101.357751 L96.1667606,101.609639 C95.8014169,101.40351 95.4611366,101.155981 95.1526761,100.871968 C93.9988732,99.7699598 93.4084507,98.1956627 93.3949296,96.1850602 C93.4715493,91.81751 97.2935211,90.6165462 100.664789,89.5595181 L100.818028,89.5100402 C103.319437,88.7318876 105.47831,88.0571888 105.518873,86.0016064 C105.529695,85.2679365 105.249416,84.5597536 104.739155,84.0314859 L104.91493,83.7840964 C105.227336,83.9294246 105.512418,84.1272115 105.757746,84.3688353 C106.268853,84.8834141 106.548635,85.5830887 106.532958,86.3074699 C106.510423,88.2191165 104.757183,88.8578313 101.886197,89.7439357 L101.886197,89.7439357 Z M116.132958,98.2046586 C116.158514,100.022207 115.755562,101.820296 114.95662,103.453815 L114.875493,103.552771 L113.753239,103.408835 L113.753239,103.210924 C114.532958,101.6951 114.821408,99.9004016 114.821408,97.8628112 L114.821408,87.2880321 C114.821093,85.6550867 114.402178,84.0493722 113.604507,82.6236145 L113.518873,82.3762249 L114.420282,82.4302008 L114.798873,82.9744578 C115.629441,84.3854419 116.094177,85.9809235 116.150986,87.6163855 L116.150986,98.2091566 L116.132958,98.2046586 Z M122.632113,85.0885141 C122.470117,85.335658 122.188439,85.4779286 121.892958,85.4618474 L121.762254,85.4618474 C121.62079,85.4416024 121.484582,85.3942544 121.361127,85.3224096 L121.135775,85.1919679 L121.35662,85.0570281 C121.467301,84.9912004 121.557729,84.896286 121.618028,84.7826506 C122.839437,82.2277912 123.524507,81.6340562 125.07493,81.8229719 L125.07493,82.1243373 C124.232113,82.313253 123.610141,83.0869076 122.645634,85.0885141 L122.632113,85.0885141 Z" id="Shape"></path>
                    <path d="M93.3633803,78.4944578 C91.2360563,78.395502 89.1673239,78.3145382 86.8461972,78.2425703 L86.7650704,78.2425703 L86.7064789,78.3010442 C86.1911531,78.8108325 85.8222795,79.4492402 85.6383099,80.1497189 C84.3583099,78.395502 82.7402817,77.6218474 80.3290141,77.5813655 C73.7622535,77.6128514 70.1025352,82.1513253 70.0304225,90.3196787 C70.0980282,100.633574 73.4692958,102.914056 78.8912676,102.914056 L78.8912676,102.914056 C80.3425352,102.914056 82.3030986,102.567711 83.7047887,101.114859 L83.7678873,102.261847 C83.7408451,105.32498 82.4157746,106.521446 78.8552113,106.521446 L78.8552113,106.521446 C77.0523944,106.521446 74.1453521,105.356466 71.9684507,103.080482 L71.5177465,102.666667 L71.5177465,111.689639 L71.9233803,111.473735 C72.3613803,111.152145 72.8895073,110.975932 73.4332394,110.96996 C73.9692534,111.033268 74.501752,111.123341 75.0287324,111.239839 C77.1222961,111.66674 79.2515346,111.895652 81.388169,111.923534 L81.5098592,111.923534 C88.2974648,111.923534 91.3442254,108.077751 91.3442254,100.125301 L91.3442254,84.2024096 C91.3442254,81.8544578 92.0743662,80.1542169 93.3678873,78.8632932 L93.7284507,78.5529317 L93.3633803,78.4944578 Z M73.3340845,109.697028 L72.964507,109.697028 L72.4326761,109.746506 L72.4326761,104.893173 L72.6535211,105.0551 C72.8833803,105.21253 73.068169,105.360964 73.3025352,105.5049 L73.3295775,105.54988 L73.3295775,109.701526 L73.3340845,109.697028 Z M74.5374648,100.413173 L74.6861972,100.534618 L74.5149296,100.791004 C74.149945,100.605151 73.8080764,100.377193 73.496338,100.111807 C71.571831,98.3980723 70.7064789,95.2854618 70.6839437,90.0183133 C70.7064789,85.695743 71.7926761,82.4841767 73.9019718,80.4780723 C75.2894337,79.2273128 77.0765937,78.508465 78.9453521,78.4494779 L78.9814085,78.7553414 C77.4662989,78.9760941 76.0528625,79.6469119 74.9250704,80.6804819 C72.8022535,82.7000803 71.7115493,85.9296386 71.684507,90.2702008 C71.7250704,95.5508434 72.5904225,98.6814458 74.5374648,100.413173 L74.5374648,100.413173 Z M78.4946479,90.4726104 C78.5216901,85.102008 79.5583099,84.02249 81.383662,84.02249 C82.9971831,84.0674699 83.7002817,84.9940562 83.7002817,86.8607229 L83.7002817,93.2928514 C83.7002817,96.4189558 82.3211268,96.7922892 81.0816901,96.8057831 C79.3149296,96.7518072 78.5216901,95.757751 78.4991549,90.4726104 L78.4946479,90.4726104 Z M85.4985915,102.198876 C85.4985915,104.04755 85.0028169,105.253012 83.9887324,106.107631 C83.1323944,106.800321 81.9876056,107.169157 80.4101408,107.259116 L80.3695775,106.953253 C81.3268244,106.829208 82.2361826,106.462168 83.0107042,105.887229 C84.0428169,105.019116 84.6016901,103.795663 84.6016901,101.92 L84.6016901,100.350201 C84.5717588,100.288567 84.5386633,100.228514 84.5025352,100.170281 C84.5025352,100.107309 84.4439437,100.048835 84.4439437,99.9903614 L84.4214085,99.8284337 L84.6016901,99.8284337 C85.0657385,99.8098545 85.4625643,100.15836 85.5030986,100.62008 L85.5030986,102.194378 L85.4985915,102.198876 Z M85.4985915,93.3333333 C85.4985915,95.0875502 85.1335211,96.2075502 84.2591549,96.9767068 C83.5747987,97.5298898 82.7093014,97.8103311 81.8298592,97.7638554 L81.8028169,97.457992 C82.3422342,97.3435755 82.8461687,97.1013705 83.2721127,96.7518072 C84.1735211,95.9736546 84.5971831,94.7996787 84.5971831,93.0589558 L84.5971831,86.6313253 C84.6655967,85.5062533 84.2566631,84.4043498 83.4704225,83.5951807 L83.6326761,83.3432932 C83.9384687,83.4869041 84.2174149,83.6816223 84.4574648,83.9190361 C85.1830986,84.6117269 85.5030986,85.5877912 85.5030986,86.9057028 L85.5030986,93.3378313 L85.4985915,93.3333333 Z M87.7521127,79.3895582 C87.4580202,79.7332243 87.2715254,80.155514 87.2157746,80.6040161 C87.2157746,81.0538153 86.7650704,81.2877108 86.2602817,81.2877108 L86.2602817,81.2877108 C86.1126283,81.3270173 85.9572309,81.3270173 85.8095775,81.2877108 L85.5887324,81.215743 L85.8005634,81.1032932 C86.0396982,80.9639471 86.1922447,80.7135967 86.2061972,80.4375904 C86.2556494,79.9744585 86.4353337,79.5347261 86.724507,79.1691566 L86.7740845,79.1016867 L87.9143662,79.1646586 L87.7521127,79.3895582 Z" id="Shape"></path>
                    <path d="M39.6033803,83.9145382 C36.9892958,83.0599197 34.7312676,82.317751 34.6456338,80.1946988 C34.6907042,77.7837751 37.1019718,77.3159839 37.8366197,77.2305221 C40.5408451,77.0011245 43.3216901,79.1331727 46.1476056,83.5636948 L46.503662,84.1214458 L46.503662,69.4714859 L46.1566197,69.9212851 C45.7435553,70.4152331 45.1419599,70.7137953 44.4980282,70.7444177 C43.7002929,70.7811447 42.9010533,70.7691276 42.1047887,70.7084337 C40.3439155,70.5830302 38.575684,70.6025876 36.8180282,70.7669076 C29.9087324,71.6035341 25.7307042,76.0565462 25.6450704,82.6820884 C25.811831,88.7408835 30.6433803,90.5040964 34.5239437,91.9209639 C37.0298592,92.8205622 39.1932394,93.6257028 39.2923944,95.3259438 C39.2698592,97.457992 37.971831,98.8613655 35.736338,99.1717269 C33.0005634,99.4820884 28.9171831,98.0427309 26.4112676,92.977992 L26.1183099,93.0274699 L26.0326761,93.0274699 L26.0326761,106.921767 L26.3526761,106.660884 C27.0088744,106.163793 27.7875084,105.852965 28.6061972,105.761285 C29.3562781,105.704098 30.1096374,105.704098 30.8597183,105.761285 C32.7286367,105.86103 34.6026487,105.803854 36.4619718,105.590361 C44.0022535,104.483855 48.2073239,100.116305 48.3019718,93.2838554 C48.1126761,86.7032932 43.3938028,85.1559839 39.6033803,83.9145382 L39.6033803,83.9145382 Z M30.9408451,88.7228916 L30.7876056,88.9927711 C28.7233803,87.940241 26.343662,86.226506 26.2805634,82.2457831 C26.3030986,79.3040964 27.1549296,76.9561446 28.8721127,75.048996 C30.5802817,73.2497992 32.8969014,72.0983133 35.7588732,71.675502 L35.8129577,71.9768675 C33.5616964,72.4166171 31.4995379,73.53432 29.9042254,75.1794378 C28.164507,77.0910843 27.308169,79.4525301 27.2901408,82.4032129 C27.3352113,85.2189558 28.4980282,87.2205622 30.9408451,88.7228916 L30.9408451,88.7228916 Z M27.8129577,104.506345 L27.6326761,104.533333 C27.416338,104.582811 27.0602817,104.645783 26.7988732,104.726747 L26.456338,104.789719 L26.456338,96.2435341 L26.8349296,96.5359036 C27.0557746,96.7787952 27.4073239,97.0126908 27.6461972,97.2330924 L27.8084507,97.2780723 L27.8084507,104.519839 L27.8129577,104.506345 Z M39.5988732,98.53751 C38.6681056,99.4279441 37.4620114,99.9766538 36.1780282,100.093815 L36.1149296,99.7924498 C37.0411904,99.5493062 37.886873,99.0668077 38.5667606,98.3935743 C39.4608103,97.471622 39.9477503,96.2307985 39.9188732,94.9481124 C39.896338,93.8326104 39.3374648,92.955502 38.1656338,92.1863454 L38.3188732,91.9209639 C39.5177465,92.5191968 40.8923944,93.4277912 40.9329577,95.1415261 C40.9680725,96.4072252 40.4865837,97.6328808 39.5988732,98.53751 L39.5988732,98.53751 Z" id="Shape"></path>
                    <path d="M71.2383099,102.068434 C69.8861972,100.381687 69.2912676,99.1897189 69.2912676,96.1715663 L69.2912676,78.1795984 L69.1019718,78.1795984 C66.0822535,78.2380723 63.2428169,78.3325301 60.3898592,78.4629719 L60.0788732,78.4629719 L60.2276056,78.7373494 C61.1290141,80.3521285 61.6292958,82.5831325 61.6292958,85.1919679 L61.6292958,93.526747 C61.6292958,95.226988 60.7278873,96.302008 59.2180282,96.4054618 C58.5894174,96.4596223 57.9654776,96.2585463 57.4873239,95.8477108 C56.9448415,95.3047378 56.6498648,94.5630845 56.6715493,93.7966265 L56.6715493,78.6204016 L56.5453521,78.6204016 C53.4895775,78.7913253 50.5014085,78.9982329 47.3284507,79.2546185 L46.9949296,79.2816064 L47.148169,79.5649799 C48.4732394,81.2832129 49.0140845,82.5651406 49.0140845,85.6372691 L49.0140845,96.9857028 C49.0140845,99.2886747 49.7126761,101.00241 50.8709859,102.081928 C51.8940845,103.04 53.4174648,103.521285 55.3374648,103.521285 L56.0450704,103.521285 C58.0326761,103.372851 60.0383099,102.621687 62.3098592,101.177831 C62.3762433,101.48378 62.5332767,101.762738 62.7605634,101.978474 C63.3063201,102.41918 64.0047772,102.626193 64.7030986,102.554217 C66.8709859,102.473253 68.9577465,102.414779 71.0805634,102.374297 L71.468169,102.374297 L71.2383099,102.068434 Z M52.4214085,101.803052 C52.1233139,101.666051 51.8445056,101.490633 51.5921127,101.281285 C50.4428169,100.341205 49.915493,98.8298795 49.915493,96.6483534 L49.915493,85.3044177 C49.915493,83.0554217 49.5549296,81.6070683 48.7707042,80.1857028 L48.6309859,79.9742972 L49.4692958,79.9113253 L49.7397183,80.4285944 C50.5149296,81.8319679 50.8169014,83.2578313 50.8169014,85.5203213 L50.8169014,96.859759 C50.8169014,99.0547791 51.4073239,100.588594 52.5746479,101.542169 L52.4214085,101.803052 Z M62.1926761,96.4054618 C61.5457968,96.9864049 60.7142511,97.3209038 59.844507,97.3500402 L59.6777465,97.3500402 L59.623662,97.0486747 C60.1368016,96.8880693 60.6015873,96.602027 60.9757746,96.2165462 C61.7446602,95.4169367 62.1405844,94.3311477 62.0664789,93.2253815 L62.0664789,84.8816064 C62.1382987,83.032127 61.8866476,81.184303 61.3228169,79.4210442 L61.3228169,79.2231325 L62.2242254,79.1646586 L62.4721127,79.6504418 C63.0988708,81.3965497 63.4160995,83.2382613 63.4095775,85.093012 L63.4095775,93.4232932 C63.4387559,94.5416044 62.9896983,95.6194685 62.1746479,96.3874699 L62.1926761,96.4054618 Z M63.8512676,101.285783 C63.6074063,101.274 63.3723586,101.191117 63.1752113,101.04739 C63.0205459,100.930353 62.9316692,100.746263 62.936338,100.55261 C62.9368426,100.461811 62.9200171,100.371746 62.8867606,100.287229 L62.8101408,100.098313 L63.0129577,100.098313 C63.1768351,100.080061 63.3426799,100.103263 63.4952113,100.165783 C63.764409,100.266364 63.9436311,100.522137 63.9459155,100.808996 C63.9429737,100.906264 63.9614352,101.002992 64,101.092369 L64.108169,101.335261 L63.8512676,101.285783 Z" id="Shape"></path>
                </g>
            </g>
        </g>
    </g>
</svg>