<?xml version="1.0" encoding="UTF-8" standalone="no"?>
<svg width="73px" height="14px" viewBox="0 0 73 14" version="1.1" xmlns="http://www.w3.org/2000/svg" xmlns:xlink="http://www.w3.org/1999/xlink">
    <!-- Generator: Sketch 3.8.3 (29802) - http://www.bohemiancoding.com/sketch -->
    <title>Rcp rating 4</title>
    <desc>Created with Sketch.</desc>
    <defs></defs>
    <g id="Symbols" stroke="none" stroke-width="1" fill="none" fill-rule="evenodd">
        <g id="Rcp-rating-4">
            <polygon id="Star-1" fill="#FF9D6D" points="6.9795122 10.5 2.87705786 12.663119 3.66055692 8.08155948 0.341601641 4.83688104 4.92828503 4.16844052 6.9795122 0 9.03073936 4.16844052 13.6174227 4.83688104 10.2984675 8.08155948 11.0819665 12.663119"></polygon>
            <polygon id="Star-1" fill="#FF9D6D" points="20.9385366 10.5 16.8360822 12.663119 17.6195813 8.08155948 14.300626 4.83688104 18.8873094 4.16844052 20.9385366 0 22.9897638 4.16844052 27.5764471 4.83688104 24.2574919 8.08155948 25.0409909 12.663119"></polygon>
            <polygon id="Star-1" fill="#FF9D6D" points="35.8946341 10.5 31.7921798 12.663119 32.5756789 8.08155948 29.2567236 4.83688104 33.843407 4.16844052 35.8946341 0 37.9458613 4.16844052 42.5325447 4.83688104 39.2135894 8.08155948 39.9970885 12.663119"></polygon>
            <polygon id="Star-1" fill="#FF9D6D" points="50.8507317 10.5 46.7482774 12.663119 47.5317764 8.08155948 44.2128212 4.83688104 48.7995045 4.16844052 50.8507317 0 52.9019589 4.16844052 57.4886423 4.83688104 54.169687 8.08155948 54.953186 12.663119"></polygon>
            <polygon id="Star-1" fill-opacity="0.1" fill="#000000" points="65.8068293 10.5 61.7043749 12.663119 62.487874 8.08155948 59.1689187 4.83688104 63.7556021 4.16844052 65.8068293 0 67.8580564 4.16844052 72.4447398 4.83688104 69.1257845 8.08155948 69.9092836 12.663119"></polygon>
        </g>
    </g>
</svg>