<?xml version="1.0" encoding="UTF-8" standalone="no"?>
<svg width="45px" height="45px" viewBox="0 0 45 45" version="1.1" xmlns="http://www.w3.org/2000/svg" xmlns:xlink="http://www.w3.org/1999/xlink">
    <!-- Generator: Sketch 3.8.3 (29802) - http://www.bohemiancoding.com/sketch -->
    <title>scl-pn-active</title>
    <desc>Created with Sketch.</desc>
    <defs></defs>
    <g id="Symbols" stroke="none" stroke-width="1" fill="none" fill-rule="evenodd">
        <g id="scl-pn-active">
            <rect id="Rectangle-355" fill="#790713" x="0" y="0" width="45" height="45" rx="22.5"></rect>
            <path d="M31.637503,27.2734675 C30.0022235,29.1485479 27.8804784,30.1394964 25.5009151,30.1394964 C25.2761285,30.1394964 25.049197,30.1304878 24.8171178,30.1124706 C23.4143465,30.0035091 22.6288804,29.4587019 21.7190096,28.8276694 C21.5019447,28.6775257 21.279732,28.5230922 21.04036,28.3690876 C20.2626156,32.3852173 19.2956901,36.1259406 16.506878,38.1503068 L16.2181731,38.35965 L16.1679822,38.0065978 C15.527083,33.4576724 16.5223213,29.7486938 17.484528,26.1615461 C17.8277136,24.8831797 18.151595,23.6730214 18.4085553,22.4221098 C17.5265682,20.8580413 17.6080748,18.3849599 18.6093189,16.6269916 C19.27467,15.4571576 20.2343028,14.8132556 21.3114766,14.8132556 C21.6872649,14.8132556 22.0772096,14.8921883 22.4705861,15.0479088 C24.7506255,15.9504869 23.9265511,18.5419674 23.1299315,21.0480804 C22.5598143,22.8403673 21.970393,24.6935696 22.5988517,25.7608769 C22.8755451,26.2306122 23.3744512,26.5330445 24.1243118,26.6836172 C24.3855618,26.735953 24.6455249,26.7629789 24.8977664,26.7629789 C26.6437232,26.7629789 28.1970671,25.4451461 29.1588448,23.1479474 C30.4153332,20.1459312 30.4972688,15.6111622 28.4372971,13.5198748 C27.1091687,12.1724422 25.3868059,11.4603321 23.4550998,11.4603321 C21.0056125,11.4603321 18.4677548,12.6537601 16.8320463,14.5751706 C15.3546322,16.3108318 14.7360402,18.4720433 15.0899503,20.6607096 C15.1843264,21.2462701 15.4610198,21.7027069 15.7287046,22.1441294 C16.2602133,23.0213977 16.8105972,23.9278367 15.8162169,25.6845181 L15.7381422,25.8226503 L15.5828507,25.7883317 C12.5417971,25.114401 11.135165,22.8313586 11.2827348,18.8087942 C11.4440321,14.3242161 15.0547738,9.17385788 21.4285887,8.46003179 C22.0227288,8.3931106 22.6220167,8.35965 23.2105801,8.35965 C29.2369196,8.35965 33.7489525,11.7198662 34.4374687,16.7209387 C34.9754121,20.6319678 33.9025281,24.6751234 31.637503,27.2734675" id="Fill-1" fill="#FFFFFF"></path>
        </g>
    </g>
</svg>