<?xml version="1.0" encoding="UTF-8" standalone="no"?>
<svg width="10px" height="20px" viewBox="0 0 10 20" version="1.1" xmlns="http://www.w3.org/2000/svg" xmlns:xlink="http://www.w3.org/1999/xlink">
    <!-- Generator: Sketch 3.8.3 (29802) - http://www.bohemiancoding.com/sketch -->
    <title>scl-action-icon-fb</title>
    <desc>Created with Sketch.</desc>
    <defs></defs>
    <g id="Recipe" stroke="none" stroke-width="1" fill="none" fill-rule="evenodd">
        <g id="Desktop---Recipe" transform="translate(-976.000000, -1433.000000)" fill="#FFFFFF">
            <g id="Group-5" transform="translate(942.000000, 1313.000000)">
                <g id="Button" transform="translate(19.000000, 110.000000)">
                    <path d="M15,16.6138889 L17.1423225,16.6138889 L17.1423225,14.605 C17.1423225,13.7183333 17.1653521,12.3516667 17.8320571,11.505 C18.5350337,10.6088889 19.4993955,10 21.1586735,10 C23.8617652,10 25,10.3716667 25,10.3716667 L24.4639876,13.4355556 C24.4639876,13.4355556 23.5715931,13.1855556 22.7384996,13.1855556 C21.9048304,13.1855556 21.1586735,13.4738889 21.1586735,14.2777778 L21.1586735,16.6138889 L24.5756808,16.6138889 L24.3373251,19.6061111 L21.1586735,19.6061111 L21.1586735,30 L17.1423225,30 L17.1423225,19.6061111 L15,19.6061111 L15,16.6138889" id="scl-action-icon-fb"></path>
                </g>
            </g>
        </g>
    </g>
</svg>