<?xml version="1.0" encoding="UTF-8" standalone="no"?>
<svg width="45px" height="45px" viewBox="0 0 45 45" version="1.1" xmlns="http://www.w3.org/2000/svg" xmlns:xlink="http://www.w3.org/1999/xlink">
    <!-- Generator: Sketch 3.8.3 (29802) - http://www.bohemiancoding.com/sketch -->
    <title>scl-gl</title>
    <desc>Created with Sketch.</desc>
    <defs></defs>
    <g id="Symbols" stroke="none" stroke-width="1" fill="none" fill-rule="evenodd">
        <g id="scl-gl">
            <rect id="Rectangle-355" fill="#CC4121" x="0" y="0" width="45" height="45" rx="22.5"></rect>
            <path d="M9.00569569,22.772911 C8.82420013,17.9981077 13.0065865,13.5859761 17.7858632,13.5284599 C20.2219938,13.3207625 22.5916613,14.266904 24.4350555,15.8099358 C23.679037,16.6410449 22.9099176,17.4632071 22.0874359,18.232646 C20.4651595,17.2465627 18.5108869,16.4950177 16.6141304,17.1625252 C13.5549076,18.0335761 11.7025664,21.6455934 12.8343574,24.6386726 C13.771552,27.7643586 17.5736923,29.479939 20.553351,28.1666524 C22.0963829,27.6141774 23.1131415,26.1906514 23.5598507,24.6607205 C21.7912275,24.6255717 20.0229239,24.6476196 18.2546202,24.5990503 C18.2501468,23.5468234 18.2456733,22.4987504 18.2501468,21.4465235 C21.1988106,21.4423695 24.1522675,21.4334226 27.1054049,21.4599439 C27.2869004,24.0373088 26.9066544,26.7961692 25.2310158,28.8651547 C22.936439,31.8186116 18.6965364,32.685189 15.2481206,31.5268767 C11.587534,30.324149 8.92613162,26.637041 9.00569569,22.772911 Z M32.852871,18.794068 L35.4835981,18.794068 C35.4880715,19.6737464 35.496699,20.5578982 35.5011724,21.437896 C36.3808508,21.4465235 37.2653221,21.450997 38.1450005,21.4554704 L38.1450005,24.0903515 C37.2653221,24.094825 36.3808508,24.0992985 35.5011724,24.1037719 C35.4922255,24.9879237 35.4880715,25.8679216 35.4835981,26.7520734 C34.6036002,26.7475999 33.7239219,26.7520734 32.8483975,26.7520734 C32.83977,25.8679216 32.83977,24.9879237 32.8308231,24.1082454 C31.9511448,24.0992985 31.0666734,24.094825 30.1869951,24.0903515 L30.1869951,21.4554704 C31.0666734,21.450997 31.9466713,21.4465235 32.8308231,21.437896 C32.8352966,20.5578982 32.8442435,19.6737464 32.852871,18.794068 Z" id="Combined-Shape" fill="#FFFFFF"></path>
        </g>
    </g>
</svg>