<svg id="Layer_1" data-name="Layer 1" xmlns="http://www.w3.org/2000/svg" viewBox="0 0 21 21">
  <defs>
    <style>
      .cls-1 {
        fill: #4a4a4a;
      }
    </style>
  </defs>
  <title>search-icon-dark</title>
  <g id="Symbols">
    <g id="Search---Default">
      <g id="Search-Default">
        <path id="search-icon" class="cls-1" d="M2.53,8.22A5.69,5.69,0,0,1,8.22,2.53a6.13,6.13,0,0,1,5.95,5.95,5.69,5.69,0,0,1-5.69,5.69A6.13,6.13,0,0,1,2.53,8.22m18,9.54-5-5A8.18,8.18,0,0,0,16.7,8.48,8.66,8.66,0,0,0,8.22,0,8.22,8.22,0,0,0,0,8.22,8.66,8.66,0,0,0,8.48,16.7a8.18,8.18,0,0,0,4.14-1.12l5,5a1.26,1.26,0,0,0,1.79,0l1.25-1.25a1.07,1.07,0,0,0-.18-1.61"/>
      </g>
    </g>
  </g>
</svg>
