<?xml version="1.0" encoding="UTF-8" standalone="no"?>
<svg width="15px" height="15px" viewBox="0 0 15 15" version="1.1" xmlns="http://www.w3.org/2000/svg" xmlns:xlink="http://www.w3.org/1999/xlink">
    <!-- Generator: Sketch 3.8.3 (29802) - http://www.bohemiancoding.com/sketch -->
    <title>tooltip-info-icon</title>
    <desc>Created with Sketch.</desc>
    <defs></defs>
    <g id="Recipe" stroke="none" stroke-width="1" fill="none" fill-rule="evenodd">
        <g id="Desktop---Recipe-Upload-Copy" transform="translate(-305.000000, -1020.000000)" fill="#99C8FF">
            <g id="Recipe-Info" transform="translate(305.000000, 322.000000)">
                <g id="General-info" transform="translate(0.000000, 408.000000)">
                    <g id="Upload" transform="translate(0.000000, 284.000000)">
                        <g id="recipe-icon-info" transform="translate(0.000000, 6.000000)">
                            <path d="M6.2765244,12.1874849 C5.75560239,12.1874849 5.37375596,11.8715078 5.73831984,10.480915 L6.33603505,8.01489143 C6.43989337,7.61967549 6.45733895,7.46184998 6.33603505,7.46184998 C6.17967693,7.46184998 5.50337505,7.73462072 5.10408303,8.00347843 L4.84354051,7.57679521 C6.11087283,6.51848386 7.56831315,5.89761656 8.19309348,5.89761656 C8.71417853,5.89761656 8.8007543,6.51375562 8.54053786,7.46184998 L7.8559208,10.0542318 C7.73461689,10.5125453 7.78679062,10.6703709 7.90776843,10.6703709 C8.06445264,10.6703709 8.57657034,10.4802629 9.07972067,10.0850469 L9.37482829,10.4802629 C8.1422241,11.712704 6.79712032,12.1874849 6.2765244,12.1874849 M8.23108247,2.49996594 C8.99347099,2.49996594 9.21847016,2.94246433 9.21847016,3.4480603 C9.21847016,4.08017756 8.7125481,4.66452325 7.84956213,4.66452325 C7.12728216,4.66452325 6.7837508,4.30110066 6.80380508,3.70093981 C6.80380508,3.19518079 7.22755353,2.49996594 8.23108247,2.49996594 M7.39956377,0.000681602912 C3.25794848,0.0561161828 -0.0544307147,3.45898418 0.000677779465,7.60092555 C0.0561123594,11.7410735 3.45865427,15.0544309 7.60026956,14.9993224 C11.7412327,14.9435618 15.054264,11.5406938 14.9993186,7.39907847 C14.943884,3.25860447 11.541016,-0.0545899341 7.39956377,0.000681602912"></path>
                        </g>
                    </g>
                </g>
            </g>
        </g>
    </g>
</svg>