<?xml version="1.0" encoding="UTF-8" standalone="no"?>
<svg width="3px" height="15px" viewBox="0 0 3 15" version="1.1" xmlns="http://www.w3.org/2000/svg" xmlns:xlink="http://www.w3.org/1999/xlink">
    <!-- Generator: Sketch 3.8.3 (29802) - http://www.bohemiancoding.com/sketch -->
    <title>top-nav-more-separator</title>
    <desc>Created with Sketch.</desc>
    <defs></defs>
    <g id="Symbols" stroke="none" stroke-width="1" fill="none" fill-rule="evenodd">
        <g id="Header" transform="translate(-1075.000000, -123.000000)" fill="#4A4A4A">
            <g id="Nav" transform="translate(0.000000, 110.000000)">
                <path d="M1076.5,16 C1077.32843,16 1078,15.3284271 1078,14.5 C1078,13.6715729 1077.32843,13 1076.5,13 C1075.67157,13 1075,13.6715729 1075,14.5 C1075,15.3284271 1075.67157,16 1076.5,16 Z M1076.5,22 C1077.32843,22 1078,21.3284271 1078,20.5 C1078,19.6715729 1077.32843,19 1076.5,19 C1075.67157,19 1075,19.6715729 1075,20.5 C1075,21.3284271 1075.67157,22 1076.5,22 Z M1076.5,28 C1077.32843,28 1078,27.3284271 1078,26.5 C1078,25.6715729 1077.32843,25 1076.5,25 C1075.67157,25 1075,25.6715729 1075,26.5 C1075,27.3284271 1075.67157,28 1076.5,28 Z" id="top-nav-more-separator"></path>
            </g>
        </g>
    </g>
</svg>